<svg width="33" height="33" viewBox="0 0 33 33" fill="none" xmlns="http://www.w3.org/2000/svg">
<path opacity="0.1" fill-rule="evenodd" clip-rule="evenodd" d="M0 16.5C0 7.3873 7.3873 0 16.5 0C25.6127 0 33 7.3873 33 16.5C33 25.6127 25.6127 33 16.5 33C7.3873 33 0 25.6127 0 16.5Z" fill="#FDFDFD"/>
<path fill-rule="evenodd" clip-rule="evenodd" d="M25.3002 16.4878C25.3002 17.0829 25.2396 17.6772 25.1206 18.2565C25.0046 18.822 24.8327 19.3773 24.6075 19.908C24.3875 20.4294 24.1147 20.9318 23.7958 21.4004C23.4817 21.866 23.1199 22.3028 22.7224 22.701C22.3241 23.0975 21.8858 23.4583 21.4204 23.7737C20.9503 24.0904 20.4471 24.3628 19.9254 24.5838C19.3939 24.8078 18.8374 24.9794 18.2723 25.0953C17.6923 25.2146 17.0958 25.2755 16.4998 25.2755C15.9034 25.2755 15.3069 25.2146 14.7277 25.0953C14.1618 24.9794 13.6053 24.8078 13.0742 24.5838C12.5525 24.3628 12.0489 24.0904 11.5788 23.7737C11.1134 23.4583 10.6751 23.0975 10.2776 22.701C9.87971 22.3028 9.51788 21.866 9.20334 21.4004C8.88621 20.9318 8.6129 20.4294 8.39204 19.908C8.16684 19.3773 7.99455 18.822 7.8781 18.2565C7.76037 17.6772 7.7002 17.0829 7.7002 16.4878C7.7002 15.8922 7.76033 15.2966 7.87813 14.7186C7.99459 14.153 8.16688 13.5969 8.39207 13.067C8.61293 12.5453 8.88624 12.0424 9.20337 11.5738C9.51791 11.1078 9.87975 10.6718 10.2776 10.2732C10.6751 9.8767 11.1134 9.51673 11.5788 9.20178C12.0489 8.88381 12.5525 8.61137 13.0742 8.38994C13.6053 8.16548 14.1618 7.99344 14.7277 7.87846C15.307 7.76004 15.9034 7.69995 16.4998 7.69995C17.0958 7.69995 17.6923 7.76004 18.2724 7.87846C18.8374 7.99347 19.3939 8.16551 19.9255 8.38994C20.4471 8.61133 20.9503 8.88381 21.4204 9.20178C21.8858 9.51673 22.3241 9.8767 22.7224 10.2732C23.1199 10.6718 23.4818 11.1078 23.7959 11.5738C24.1147 12.0424 24.3875 12.5453 24.6075 13.067C24.8327 13.5969 25.0046 14.153 25.1206 14.7186C25.2396 15.2966 25.3002 15.8922 25.3002 16.4878ZM13.2933 9.69994C11.1976 10.6882 9.63341 12.6165 9.14568 14.9404C9.34381 14.9422 12.4755 14.9816 16.0838 14.0243C14.7831 11.7167 13.3934 9.83342 13.2933 9.69994ZM16.7064 15.1799C12.8369 16.3367 9.12377 16.2534 8.99058 16.2483C8.98841 16.329 8.98455 16.4071 8.98455 16.4877C8.98455 18.4156 9.7129 20.1732 10.9101 21.5021C10.9075 21.4982 12.9641 17.8548 17.0197 16.5452C17.1177 16.5126 17.2174 16.4834 17.3162 16.4551C17.1276 16.0286 16.9217 15.6013 16.7064 15.1799ZM21.4629 10.8555C20.1398 9.69049 18.4025 8.98382 16.4998 8.98382C15.8892 8.98382 15.2966 9.05763 14.7289 9.19407C14.8415 9.34513 16.2531 11.2151 17.5384 13.5716C20.374 12.5101 21.4444 10.8829 21.4629 10.8555ZM17.8285 17.6986C17.8117 17.7042 17.795 17.709 17.7786 17.7149C13.3445 19.2585 11.8965 22.3692 11.8808 22.4032C13.1567 23.3939 14.7569 23.9917 16.4998 23.9917C17.5406 23.9917 18.5319 23.7801 19.4338 23.397C19.3226 22.7413 18.886 20.4431 17.8285 17.6986ZM20.6993 22.7113C22.3868 21.5742 23.5852 19.7686 23.9195 17.6771C23.7649 17.6274 21.6623 16.9627 19.2366 17.351C20.2223 20.0561 20.6228 22.259 20.6993 22.7113ZM18.1168 14.6898C18.2912 15.0477 18.4602 15.412 18.6161 15.778C18.6716 15.9093 18.7257 16.0381 18.7786 16.1668C21.3602 15.8424 23.9037 16.3882 24.0124 16.4105C23.9953 14.6315 23.358 12.9988 22.3035 11.7205C22.2893 11.7407 21.084 13.4798 18.1168 14.6898Z" fill="white"/>
</svg>
