<svg width="33" height="33" viewBox="0 0 33 33" fill="none" xmlns="http://www.w3.org/2000/svg">
<path opacity="0.1" fill-rule="evenodd" clip-rule="evenodd" d="M0 16.5C0 7.3873 7.3873 0 16.5 0C25.6127 0 33 7.3873 33 16.5C33 25.6127 25.6127 33 16.5 33C7.3873 33 0 25.6127 0 16.5Z" fill="#FDFDFD"/>
<path fill-rule="evenodd" clip-rule="evenodd" d="M16.501 7.69995C14.1111 7.69995 13.8111 7.7104 12.8725 7.75312C11.9356 7.79602 11.2961 7.94434 10.7366 8.16196C10.1578 8.38672 9.66683 8.68739 9.17769 9.17672C8.68819 9.66585 8.38752 10.1568 8.16202 10.7354C7.94385 11.2952 7.79535 11.9348 7.75318 12.8713C7.7112 13.81 7.7002 14.1101 7.7002 16.5C7.7002 18.89 7.71083 19.189 7.75336 20.1277C7.79645 21.0645 7.94476 21.704 8.1622 22.2636C8.38715 22.8423 8.68782 23.3333 9.17714 23.8225C9.6661 24.312 10.1571 24.6134 10.7355 24.8381C11.2954 25.0557 11.9351 25.2041 12.8717 25.247C13.8104 25.2897 14.1101 25.3001 16.4999 25.3001C18.8901 25.3001 19.1891 25.2897 20.1278 25.247C21.0646 25.2041 21.7048 25.0557 22.2647 24.8381C22.8433 24.6134 23.3336 24.312 23.8225 23.8225C24.312 23.3333 24.6127 22.8423 24.8382 22.2637C25.0545 21.704 25.203 21.0644 25.247 20.1279C25.2892 19.1892 25.3002 18.89 25.3002 16.5C25.3002 14.1101 25.2892 13.8101 25.247 12.8715C25.203 11.9346 25.0545 11.2952 24.8382 10.7356C24.6127 10.1568 24.312 9.66585 23.8225 9.17672C23.333 8.68721 22.8435 8.38654 22.2642 8.16196C21.7032 7.94434 21.0633 7.79602 20.1265 7.75312C19.1878 7.7104 18.889 7.69995 16.4983 7.69995H16.501ZM15.7115 9.28578C15.9458 9.28541 16.2073 9.28578 16.501 9.28578C18.8506 9.28578 19.1291 9.29421 20.057 9.33638C20.915 9.37561 21.3806 9.51898 21.6908 9.63943C22.1015 9.79893 22.3943 9.9896 22.7021 10.2976C23.0101 10.6056 23.2008 10.8989 23.3607 11.3096C23.4811 11.6195 23.6247 12.0851 23.6637 12.9431C23.7059 13.8708 23.715 14.1495 23.715 16.498C23.715 18.8465 23.7059 19.1252 23.6637 20.0529C23.6245 20.9109 23.4811 21.3766 23.3607 21.6864C23.2012 22.0971 23.0101 22.3895 22.7021 22.6973C22.3941 23.0053 22.1017 23.196 21.6908 23.3555C21.381 23.4765 20.915 23.6195 20.057 23.6587C19.1293 23.7009 18.8506 23.71 16.501 23.71C14.1512 23.71 13.8727 23.7009 12.945 23.6587C12.087 23.6191 11.6213 23.4757 11.3109 23.3553C10.9003 23.1958 10.6069 23.0051 10.2989 22.6971C9.99093 22.3891 9.80026 22.0965 9.6404 21.6857C9.51994 21.3758 9.37639 20.9101 9.33734 20.0521C9.29517 19.1245 9.28674 18.8458 9.28674 16.4958C9.28674 14.1458 9.29517 13.8686 9.33734 12.9409C9.37658 12.0829 9.51994 11.6173 9.6404 11.307C9.7999 10.8964 9.99093 10.603 10.2989 10.295C10.6069 9.98703 10.9003 9.79637 11.3109 9.6365C11.6211 9.5155 12.087 9.37249 12.945 9.33308C13.7568 9.29641 14.0714 9.28541 15.7115 9.28358V9.28578ZM21.1984 10.747C20.6154 10.747 20.1424 11.2194 20.1424 11.8026C20.1424 12.3856 20.6154 12.8586 21.1984 12.8586C21.7814 12.8586 22.2544 12.3856 22.2544 11.8026C22.2544 11.2196 21.7814 10.747 21.1984 10.747ZM16.501 11.9808C14.0053 11.9808 11.9818 14.0043 11.9818 16.5C11.9818 18.9958 14.0053 21.0183 16.501 21.0183C18.9968 21.0183 21.0195 18.9958 21.0195 16.5C21.0195 14.0043 18.9968 11.9808 16.501 11.9808ZM16.501 13.5667C18.121 13.5667 19.4344 14.8799 19.4344 16.5C19.4344 18.12 18.121 19.4334 16.501 19.4334C14.8809 19.4334 13.5676 18.12 13.5676 16.5C13.5676 14.8799 14.8809 13.5667 16.501 13.5667Z" fill="#FDFDFD"/>
</svg>
