<svg width="33" height="33" viewBox="0 0 33 33" fill="none" xmlns="http://www.w3.org/2000/svg">
<path opacity="0.1" fill-rule="evenodd" clip-rule="evenodd" d="M0 16.5C0 7.3873 7.3873 0 16.5 0C25.6127 0 33 7.3873 33 16.5C33 25.6127 25.6127 33 16.5 33C7.3873 33 0 25.6127 0 16.5Z" fill="white"/>
<path fill-rule="evenodd" clip-rule="evenodd" d="M16.0058 13.4113L16.0405 13.9822L15.4634 13.9123C13.3628 13.6443 11.5278 12.7355 9.96967 11.2091L9.20794 10.4518L9.01173 11.011C8.59624 12.2578 8.86169 13.5744 9.7273 14.46C10.189 14.9493 10.0851 15.0193 9.28873 14.728C9.01173 14.6347 8.76936 14.5648 8.74628 14.5998C8.66549 14.6814 8.94248 15.7417 9.16177 16.1611C9.46185 16.7437 10.0735 17.3147 10.7429 17.6526L11.3085 17.9205L10.6391 17.9322C9.99275 17.9322 9.96967 17.9439 10.0389 18.1885C10.2697 18.9459 11.1815 19.7499 12.1972 20.0994L12.9127 20.3441L12.2895 20.717C11.3662 21.253 10.2813 21.5559 9.1964 21.5792C8.67703 21.5909 8.25 21.6375 8.25 21.6724C8.25 21.7889 9.65805 22.4414 10.4775 22.6978C12.9358 23.4551 15.8558 23.1289 18.0487 21.8355C19.6067 20.9151 21.1648 19.0857 21.8919 17.3147C22.2844 16.3709 22.6768 14.6464 22.6768 13.8191C22.6768 13.2831 22.7114 13.2132 23.3577 12.5724C23.7386 12.1995 24.0964 11.7917 24.1656 11.6752C24.281 11.4538 24.2695 11.4538 23.6809 11.6519C22.6998 12.0014 22.5613 11.9548 23.0461 11.4305C23.4039 11.0576 23.8309 10.3818 23.8309 10.1838C23.8309 10.1488 23.6578 10.2071 23.4616 10.3119C23.2538 10.4285 22.7922 10.6032 22.4459 10.7081L21.8227 10.9062L21.2572 10.5217C20.9456 10.3119 20.507 10.0789 20.2761 10.009C19.6875 9.84586 18.7873 9.86917 18.2564 10.0556C16.8137 10.5799 15.902 11.9315 16.0058 13.4113Z" fill="white"/>
</svg>
