<svg width="26" height="28" viewBox="0 0 26 28" fill="none" xmlns="http://www.w3.org/2000/svg">
<path d="M4.10769 22.0207L4.6077 21.1547L4.1077 22.0207L10.5 25.7113C12.047 26.6045 13.953 26.6045 15.5 25.7113L21.8923 22.0207C23.4393 21.1276 24.3923 19.4769 24.3923 17.6906V10.3094C24.3923 8.52307 23.4393 6.87244 21.8923 5.97927L15.5 2.28868C13.953 1.39551 12.047 1.39551 10.5 2.28868L4.1077 5.97927C2.56069 6.87244 1.6077 8.52307 1.6077 10.3094V17.6906C1.6077 19.4769 2.56069 21.1276 4.10769 22.0207Z" fill="#45B36B" stroke="#FCFCFD" stroke-width="2"/>
<path d="M12.1019 9.56332C12.2065 9.38035 12.0517 9.15804 11.8438 9.19269L10.8721 9.35464C10.7236 9.37939 10.6305 9.52885 10.6737 9.67307L10.9764 10.682C11.0395 10.8924 11.3239 10.9249 11.4329 10.7342L12.1019 9.56332Z" fill="#777E91"/>
<path d="M9.81713 10.2957C9.76139 10.1099 9.52537 10.0565 9.39878 10.2034C9.00622 10.6592 8.63545 11.138 8.25151 11.5988C8.23014 11.6244 8.20976 11.6506 8.19035 11.6773C8.08623 11.8204 8.20453 12 8.38153 12H9.99239C10.1599 12 10.28 11.8385 10.2318 11.6781L9.81713 10.2957Z" fill="#777E91"/>
<path d="M8.30819 13C8.14002 13 8.02062 13.1639 8.10483 13.3095C8.13185 13.3562 8.1616 13.4018 8.1941 13.4461L11.7907 18.3506C11.8508 18.4326 11.9172 18.5064 11.9886 18.5719C12.1439 18.7145 12.3386 18.5502 12.2765 18.3487L10.6826 13.1764C10.6503 13.0715 10.5534 13 10.4437 13H8.30819Z" fill="#777E91"/>
<path d="M13.7238 18.3488C13.6617 18.5503 13.8563 18.7147 14.0116 18.5721C14.0831 18.5065 14.1495 18.4327 14.2097 18.3506L17.8063 13.4461C17.8388 13.4018 17.8686 13.3562 17.8956 13.3095C17.9798 13.1639 17.8604 13 17.6922 13H15.5567C15.4469 13 15.35 13.0715 15.3177 13.1764L13.7238 18.3488Z" fill="#777E91"/>
<path d="M17.6189 11.9999C17.7959 11.9999 17.9142 11.8204 17.8101 11.6772C17.7907 11.6505 17.7703 11.6244 17.7489 11.5987C17.365 11.138 16.9942 10.6591 16.6016 10.2033C16.475 10.0563 16.239 10.1098 16.1833 10.2956L15.7685 11.6781C15.7204 11.8385 15.8405 11.9999 16.008 11.9999H17.6189Z" fill="#777E91"/>
<path d="M15.1277 9.35465C15.2762 9.37941 15.3693 9.52887 15.3261 9.67309L15.0234 10.682C14.9603 10.8925 14.6759 10.925 14.5669 10.7342L13.8978 9.56332C13.7932 9.38035 13.9481 9.15804 14.1559 9.19269L15.1277 9.35465Z" fill="#777E91"/>
<path d="M13 10.0078L13.9247 11.626C14.0199 11.7927 13.8996 12 13.7076 12H12.2924C12.1004 12 11.9801 11.7927 12.0753 11.626L13 10.0078Z" fill="#777E91"/>
<path d="M13.2393 16.5232C13.1669 16.7586 12.8338 16.7586 12.7614 16.5232L11.7769 13.3235C11.7274 13.1628 11.8476 13 12.0158 13H13.9849C14.1531 13 14.2733 13.1628 14.2238 13.3235L13.2393 16.5232Z" fill="#777E91"/>
</svg>
