<svg width="90" height="29" viewBox="0 0 90 29" fill="none" xmlns="http://www.w3.org/2000/svg">
<path d="M25.8857 19.8638C25.7445 19.5225 25.6121 19.1638 25.471 18.8575L24.818 17.3963L24.7915 17.37C22.8504 13.17 20.7768 8.9 18.5798 4.7L18.4915 4.525C18.271 4.11375 18.0504 3.65875 17.821 3.23875C17.5386 2.74 17.2651 2.20625 16.8151 1.69875C16.3764 1.16774 15.8244 0.739915 15.1988 0.446148C14.5732 0.152382 13.8896 0 13.1974 0C12.5052 0 11.8217 0.152382 11.1961 0.446148C10.5705 0.739915 10.0184 1.16774 9.57977 1.69875C9.16507 2.20625 8.85625 2.74 8.57389 3.23875C8.3533 3.69375 8.13272 4.14 7.9033 4.55125L7.81507 4.72625C5.6533 8.92625 3.54448 13.1963 1.6033 17.3963L1.55036 17.4487C1.35625 17.9038 1.12683 18.3762 0.906245 18.8838C0.765069 19.19 0.623892 19.5225 0.482716 19.89C0.101568 20.8523 -0.0201441 21.8965 0.129574 22.9197C0.279292 23.9428 0.695273 24.9097 1.33652 25.7249C1.97777 26.5401 2.82215 27.1755 3.78644 27.5685C4.75074 27.9616 5.80167 28.0986 6.83566 27.9663C7.82695 27.8368 8.78149 27.5094 9.64154 27.0037C10.7886 26.365 11.8915 25.4375 13.1268 24.0988C14.3621 25.4375 15.4915 26.365 16.6121 27.0125C17.6897 27.6397 18.9101 27.9859 20.1592 28.0187C21.6057 28.0247 23.0055 27.5115 24.1002 26.5739C25.1949 25.6363 25.9106 24.3375 26.1151 22.9175C26.3514 21.8971 26.2714 20.8296 25.8857 19.855V19.8638ZM13.2151 21.3162C11.6974 19.3913 10.7092 17.6238 10.3739 16.11C10.235 15.5491 10.205 14.967 10.2857 14.395C10.3474 13.9488 10.5151 13.555 10.7445 13.2225C11.2739 12.4613 12.2004 11.9888 13.2151 11.9888C13.697 11.9742 14.175 12.0784 14.6062 12.2922C15.0374 12.5061 15.4083 12.8227 15.6857 13.2138C15.9151 13.5638 16.0827 13.9488 16.1357 14.395C16.2239 14.9025 16.1886 15.4887 16.0474 16.11C15.7121 17.5975 14.7239 19.3825 13.2151 21.3162ZM24.4562 22.6112C24.356 23.3322 24.067 24.0145 23.618 24.5902C23.1691 25.1659 22.5758 25.6149 21.8974 25.8925C21.2268 26.1725 20.4857 26.2512 19.7621 26.1725C19.0562 26.085 18.3504 25.8575 17.6268 25.4375C16.4255 24.7012 15.3453 23.7864 14.4239 22.725C16.2768 20.45 17.3974 18.3763 17.821 16.53C18.0239 15.655 18.0504 14.8675 17.9621 14.1412C17.8519 13.4529 17.5931 12.7962 17.2033 12.2163C16.7582 11.5874 16.1642 11.0765 15.4734 10.7286C14.7826 10.3808 14.0162 10.2065 13.2415 10.2213C11.6092 10.2213 10.1533 10.9738 9.27095 12.2075C8.87375 12.786 8.61705 13.4479 8.52095 14.1412C8.40625 14.8763 8.43272 15.69 8.66213 16.53C9.08566 18.3763 10.2327 20.4762 12.0592 22.7425C11.1534 23.8241 10.0707 24.747 8.85624 25.4725C8.12389 25.8925 7.42683 26.1112 6.72095 26.1987C5.6232 26.3382 4.51432 26.0423 3.63533 25.3755C2.75634 24.7086 2.17829 23.7247 2.02683 22.6375C1.9386 21.9375 2.00036 21.2375 2.28272 20.45C2.37095 20.17 2.5033 19.89 2.64448 19.5575C2.8386 19.1025 3.06801 18.63 3.2886 18.1575L3.32389 18.0963C5.22977 13.9225 7.31213 9.66125 9.47389 5.4875L9.56213 5.3125C9.78271 4.8925 10.0033 4.44625 10.2327 4.02625C10.4621 3.58 10.7092 3.15125 11.0268 2.80125C11.3018 2.47577 11.6453 2.21401 12.0333 2.03441C12.4213 1.85482 12.8443 1.76174 13.2724 1.76174C13.7006 1.76174 14.1235 1.85482 14.5115 2.03441C14.8995 2.21401 15.2431 2.47577 15.518 2.80125C15.8268 3.15125 16.0827 3.58 16.3121 4.02625C16.5327 4.44625 16.7533 4.90125 16.9827 5.3125L17.071 5.4875C19.2239 9.66125 21.3062 13.9225 23.2474 18.0963L23.2739 18.1225C23.5033 18.5775 23.6974 19.085 23.918 19.5225C24.0592 19.8638 24.2004 20.135 24.2886 20.4237C24.4562 21.2113 24.5445 21.9113 24.4562 22.6112ZM36.7386 21.1238C36.0737 21.1334 35.4152 20.9945 34.8118 20.7173C34.2085 20.4401 33.6758 20.0317 33.2533 19.5225C32.3039 18.4375 31.8001 17.0384 31.8415 15.6025C31.827 14.1353 32.3471 12.7122 33.3062 11.595C33.7499 11.0793 34.3021 10.6663 34.9241 10.3851C35.5461 10.1039 36.2227 9.96138 36.9062 9.9675C37.5494 9.95004 38.1865 10.0951 38.7576 10.389C39.3287 10.6828 39.8151 11.1159 40.1709 11.6475L40.2592 10.2738H42.8357V20.8438H40.2504L40.1621 19.3038C39.7952 19.8713 39.2881 20.3365 38.6889 20.655C38.0897 20.9735 37.4184 21.1349 36.7386 21.1238ZM37.4092 18.6038C37.9209 18.6038 38.3709 18.4638 38.7945 18.21C39.1827 17.93 39.5004 17.5625 39.7474 17.1163C39.968 16.67 40.0827 16.1362 40.0827 15.5413C40.1171 15.0245 40.0157 14.5077 39.7883 14.0414C39.561 13.5752 39.2155 13.1754 38.7857 12.8813C38.3727 12.6261 37.8958 12.4908 37.4092 12.4908C36.9226 12.4908 36.4457 12.6261 36.0327 12.8813C35.6445 13.1613 35.3268 13.5288 35.0798 13.975C34.8464 14.4671 34.7317 15.0063 34.7445 15.55C34.7101 16.0668 34.8115 16.5836 35.0389 17.0498C35.2662 17.5161 35.6117 17.9158 36.0415 18.21C36.4562 18.4638 36.9062 18.6038 37.4092 18.6038ZM47.2474 7.42125C47.2474 7.7275 47.1945 8.0075 47.0533 8.235C46.9121 8.45375 46.718 8.655 46.4621 8.795C46.2062 8.935 45.9327 8.9875 45.6504 8.9875C45.368 8.9875 45.0857 8.935 44.8298 8.795C44.5878 8.6614 44.3843 8.46862 44.2386 8.235C44.1019 7.98574 44.0349 7.70481 44.0445 7.42125C44.0445 7.10625 44.1062 6.82625 44.2386 6.6075C44.3798 6.345 44.5827 6.1875 44.8298 6.0475C45.0857 5.9075 45.3592 5.84625 45.6504 5.84625C45.9312 5.83983 46.209 5.9058 46.4564 6.0377C46.7039 6.16959 46.9126 6.36291 47.0621 6.59875C47.1905 6.85385 47.2541 7.13621 47.2474 7.42125ZM44.2474 20.8088V10.2563H47.0533V20.8263H44.2386L44.2474 20.8088ZM54.5533 13.0212V13.0562C54.4209 12.995 54.2445 12.9688 54.1121 12.9425C53.9357 12.9075 53.7945 12.9075 53.6268 12.9075C52.8415 12.9075 52.2504 13.135 51.8621 13.6075C51.4386 14.0887 51.2445 14.7625 51.2445 15.6288V20.8175H48.4298V10.2475H51.0151L51.1033 11.8488C51.3857 11.2888 51.7209 10.8688 52.1974 10.5538C52.6714 10.2477 53.2293 10.0948 53.7945 10.1163C53.9974 10.1163 54.1915 10.1338 54.3592 10.1688C54.4474 10.195 54.5004 10.195 54.5533 10.2213V13.0212ZM55.6827 20.8088V5.91625H58.4886V11.6038C58.8857 11.0963 59.3357 10.7025 59.9004 10.3962C60.7944 9.96158 61.81 9.83828 62.7833 10.0462C63.7566 10.2542 64.6309 10.7813 65.2651 11.5425C66.2165 12.6298 66.7205 14.0323 66.6768 15.4713C66.6914 16.9384 66.1712 18.3615 65.2121 19.4788C64.7685 19.9945 64.2162 20.4074 63.5942 20.6886C62.9722 20.9698 62.2957 21.1124 61.6121 21.1063C60.969 21.1237 60.3319 20.9787 59.7608 20.6848C59.1897 20.3909 58.7033 19.9578 58.3474 19.4263L58.2592 20.8L55.6827 20.8263V20.8088ZM61.1092 18.6038C61.6121 18.6038 62.0621 18.4638 62.4857 18.21C62.8739 17.93 63.1915 17.5625 63.4386 17.1163C63.668 16.67 63.7739 16.1362 63.7739 15.5413C63.7739 14.955 63.668 14.4213 63.4386 13.975C63.2069 13.5447 62.8813 13.1711 62.4857 12.8813C62.0727 12.6261 61.5958 12.4908 61.1092 12.4908C60.6226 12.4908 60.1457 12.6261 59.7327 12.8813C59.3357 13.1613 59.0268 13.5288 58.771 13.975C58.5376 14.4671 58.4228 15.0063 58.4357 15.55C58.4013 16.0668 58.5027 16.5836 58.73 17.0498C58.9574 17.5161 59.3029 17.9158 59.7327 18.21C60.1474 18.4638 60.5974 18.6038 61.1092 18.6038ZM67.7357 20.8175V10.2475H70.3209L70.4092 11.6213C70.7341 11.0947 71.1949 10.6637 71.7441 10.373C72.2932 10.0822 72.9107 9.94223 73.5327 9.9675C74.244 9.95532 74.9431 10.1514 75.5426 10.5311C76.1421 10.9108 76.6154 11.4574 76.9033 12.1025C77.2121 12.7675 77.3798 13.59 77.3798 14.5087V20.8438H74.5651V14.8763C74.5651 14.1412 74.3974 13.5638 74.0621 13.135C73.7268 12.715 73.268 12.4875 72.6857 12.4875C72.2621 12.4875 71.8915 12.575 71.5651 12.7675C71.2562 12.9688 71.0004 13.2225 70.8062 13.5813C70.61 13.9439 70.5126 14.3511 70.5239 14.7625V20.8175H67.7357ZM78.7827 20.8175V5.9075H81.5974V11.595C81.9787 11.0847 82.4746 10.6695 83.0459 10.3824C83.6172 10.0954 84.2481 9.9443 84.8886 9.94125C85.5535 9.9316 86.212 10.0705 86.8154 10.3477C87.4187 10.6249 87.9514 11.0333 88.3739 11.5425C89.3186 12.6297 89.819 14.028 89.7768 15.4625C89.7922 16.9298 89.2719 18.3532 88.3121 19.47C87.8685 19.9857 87.3162 20.3987 86.6942 20.6799C86.0723 20.9611 85.3957 21.1036 84.7121 21.0975C84.069 21.115 83.4319 20.9699 82.8608 20.676C82.2897 20.3822 81.8033 19.9491 81.4474 19.4175L81.368 20.7913L78.7827 20.8175ZM84.2357 18.6038C84.7474 18.6038 85.1974 18.4638 85.6121 18.21C86.0092 17.93 86.318 17.5625 86.5739 17.1163C86.7945 16.67 86.9092 16.1362 86.9092 15.5413C86.9436 15.0245 86.8421 14.5077 86.6148 14.0414C86.3874 13.5752 86.042 13.1754 85.6121 12.8813C85.1991 12.6261 84.7223 12.4908 84.2357 12.4908C83.7491 12.4908 83.2722 12.6261 82.8592 12.8813C82.4709 13.1613 82.1533 13.5288 81.9062 13.975C81.66 14.4627 81.5445 15.0052 81.5709 15.55C81.5366 16.0668 81.638 16.5836 81.8653 17.0498C82.0927 17.5161 82.4382 17.9158 82.868 18.21C83.2827 18.4638 83.7062 18.6038 84.2357 18.6038Z" fill="#FF385C"/>
</svg>
