<svg width="80" height="26" viewBox="0 0 80 26" fill="none" xmlns="http://www.w3.org/2000/svg">
<path d="M59.5225 24.2279L66.1941 16.8386L59.5225 9.44836H66.5618L69.8661 13.0381L73.048 9.44836H79.8418L73.2018 16.8081L79.9329 24.2279H72.8647L69.5903 20.6087L66.3468 24.2279H59.5225Z" fill="#FF6600"/>
<path d="M59.522 6.13531H51.9659V9.44834H59.522V14.4414H51.9659V19.0243H59.522V24.2279H46.4121V0.946167H59.522V6.13531Z" fill="#FF6600"/>
<path d="M40.882 0.946167V10.4742H40.8212C39.5968 9.08697 38.0671 8.60491 36.2921 8.60491C32.6563 8.60491 29.9175 11.0413 28.9561 14.2624C27.8598 10.7131 25.0323 8.53839 20.8396 8.53839C17.4347 8.53839 14.746 10.0449 13.3429 12.4998V9.44868H6.30499V6.136H13.9853V0.946167H0.03125V24.2282H6.30499V14.4414H12.5582C12.3718 15.1603 12.2723 15.9301 12.2723 16.7423C12.2723 21.5989 16.0361 25.0065 20.8396 25.0065C24.8789 25.0065 27.5408 23.1373 28.9488 19.7293H23.5725C22.8452 20.753 22.2935 21.0571 20.8396 21.0571C19.1537 21.0571 17.7001 19.6072 17.7001 17.8885H28.6476C29.1224 21.7459 32.1707 25.0727 36.354 25.0727C38.1586 25.0727 39.8107 24.1977 40.8212 22.7203H40.882V24.2275H46.4125V0.946167H40.882ZM17.8747 14.511C18.2236 13.0322 19.3871 12.0657 20.8396 12.0657C22.4386 12.0657 23.5429 13.0024 23.8333 14.511C23.9558 14.511 17.8747 14.511 17.8747 14.511ZM37.5259 20.6831C35.4873 20.6831 34.2205 18.8107 34.2205 16.8558C34.2205 14.7661 35.3224 12.7566 37.5259 12.7566C39.8107 12.7566 40.721 14.7661 40.721 16.8558C40.7206 18.8375 39.7561 20.6831 37.5259 20.6831Z" fill="#652C8F"/>
</svg>
