<svg width="85" height="28" viewBox="0 0 85 28" fill="none" xmlns="http://www.w3.org/2000/svg">
<path d="M36.4145 14.7185C36.4145 18.605 33.3294 21.4689 29.5432 21.4689C25.757 21.4689 22.6719 18.605 22.6719 14.7185C22.6719 10.8045 25.757 7.96802 29.5432 7.96802C33.3294 7.96802 36.4145 10.8045 36.4145 14.7185ZM33.4066 14.7185C33.4066 12.2898 31.6185 10.628 29.5432 10.628C27.4679 10.628 25.6798 12.2898 25.6798 14.7185C25.6798 17.1228 27.4679 18.8089 29.5432 18.8089C31.6185 18.8089 33.4066 17.1198 33.4066 14.7185Z" fill="#EA4335"/>
<path d="M51.2378 14.7185C51.2378 18.605 48.1526 21.4689 44.3664 21.4689C40.5803 21.4689 37.4951 18.605 37.4951 14.7185C37.4951 10.8076 40.5803 7.96802 44.3664 7.96802C48.1526 7.96802 51.2378 10.8045 51.2378 14.7185ZM48.2298 14.7185C48.2298 12.2898 46.4417 10.628 44.3664 10.628C42.2911 10.628 40.5031 12.2898 40.5031 14.7185C40.5031 17.1228 42.2911 18.8089 44.3664 18.8089C46.4417 18.8089 48.2298 17.1198 48.2298 14.7185Z" fill="#FBBC05"/>
<path d="M65.4437 8.37584V20.495C65.4437 25.4802 62.4604 27.5163 58.9337 27.5163C55.6138 27.5163 53.6157 25.328 52.8622 23.5385L55.481 22.4641C55.9474 23.5628 57.09 24.8593 58.9306 24.8593C61.1881 24.8593 62.5871 23.4867 62.5871 20.9028V19.9319H62.4821C61.8088 20.7506 60.5118 21.4658 58.875 21.4658C55.4501 21.4658 52.3125 18.5258 52.3125 14.7428C52.3125 10.9324 55.4501 7.96802 58.875 7.96802C60.5087 7.96802 61.8057 8.68323 62.4821 9.47758H62.5871V8.37889H65.4437V8.37584ZM62.8002 14.7428C62.8002 12.3658 61.1912 10.628 59.1437 10.628C57.0684 10.628 55.3297 12.3658 55.3297 14.7428C55.3297 17.0954 57.0684 18.8089 59.1437 18.8089C61.1912 18.8089 62.8002 17.0954 62.8002 14.7428Z" fill="#4285F4"/>
<path d="M70.1535 1.27246V21.0551H67.2197V1.27246H70.1535Z" fill="#34A853"/>
<path d="M81.5856 16.9403L83.9203 18.4742C83.1667 19.5729 81.3509 21.466 78.2132 21.466C74.322 21.466 71.416 18.5016 71.416 14.7155C71.416 10.7012 74.3468 7.96509 77.8766 7.96509C81.4312 7.96509 83.1698 10.7529 83.7381 12.2594L84.05 13.0264L74.8934 16.7638C75.5944 18.1181 76.6845 18.809 78.2132 18.809C79.745 18.809 80.8073 18.0664 81.5856 16.9403ZM74.3993 14.5116L80.5201 12.0068C80.1835 11.1638 79.1706 10.5764 77.9785 10.5764C76.4498 10.5764 74.322 11.9064 74.3993 14.5116Z" fill="#EA4335"/>
<path d="M11.5665 12.9624V10.0985H21.3593C21.455 10.5977 21.5044 11.1881 21.5044 11.8272C21.5044 13.9759 20.9084 16.6329 18.9875 18.5259C17.1192 20.4433 14.7319 21.4659 11.5696 21.4659C5.70812 21.4659 0.779297 16.7607 0.779297 10.9842C0.779297 5.20766 5.70812 0.502441 11.5696 0.502441C14.8122 0.502441 17.1222 1.75635 18.8578 3.3907L16.8072 5.41157C15.5627 4.26114 13.8765 3.36635 11.5665 3.36635C7.28621 3.36635 3.93856 6.76592 3.93856 10.9842C3.93856 15.2024 7.28621 18.602 11.5665 18.602C14.3428 18.602 15.924 17.5033 16.9369 16.505C17.7584 15.6955 18.2989 14.539 18.5119 12.9594L11.5665 12.9624Z" fill="#4285F4"/>
</svg>
