<svg width="91" height="29" viewBox="0 0 91 29" fill="none" xmlns="http://www.w3.org/2000/svg">
<path d="M10.5258 4.64087V12.5389H3.91694V4.64087H0.779297V23.4943H3.91694V15.8527H10.5258V23.4943H13.6635V4.64087H10.5258Z" fill="#33475B"/>
<path d="M23.7048 17.3999C23.7048 18.1555 23.4313 18.8801 22.9445 19.4144C22.4577 19.9487 21.7975 20.2488 21.1091 20.2488C20.4206 20.2488 19.7604 19.9487 19.2736 19.4144C18.7868 18.8801 18.5133 18.1555 18.5133 17.3999V9.32471H15.5371V17.3999C15.5371 19.0203 16.1236 20.5743 17.1675 21.72C18.2115 22.8658 19.6273 23.5095 21.1037 23.5095C22.58 23.5095 23.9959 22.8658 25.0399 21.72C26.0838 20.5743 26.6703 19.0203 26.6703 17.3999V9.32471H23.7048V17.3999Z" fill="#33475B"/>
<path d="M45.7564 10.1565C45.7564 8.50131 46.7541 7.97657 47.8472 7.97657C48.728 7.97657 49.8918 8.71222 50.6527 9.60477L52.602 7.08402C51.6289 5.63972 49.655 4.64087 48.0393 4.64087C44.811 4.64087 42.4758 6.71619 42.4758 10.1565C42.4758 16.5394 49.5843 14.5147 49.5843 18.0866C49.5843 19.1884 48.6097 20.1619 47.4936 20.1619C45.7334 20.1619 45.163 19.2171 44.3544 18.2182L42.1914 20.6867C43.575 22.5511 45.2814 23.4976 47.326 23.4976C50.3929 23.4976 52.8603 21.397 52.8603 18.1136C52.8603 11.0271 45.7518 13.229 45.7518 10.1565" fill="#33475B"/>
<path d="M89.7321 20.4825C87.9734 20.4825 87.4738 19.6473 87.4738 18.3684V12.7077H90.2071V9.83932H87.4738V6.05481L84.4561 7.54128V19.072C84.4561 22.0213 86.31 23.5078 88.8527 23.5078C89.2515 23.5157 89.6501 23.4807 90.0426 23.4032L90.779 20.4285C90.4469 20.4538 90.0657 20.4792 89.7321 20.4792" fill="#33475B"/>
<path d="M35.0339 9.41917C33.5596 9.41917 32.5311 9.88822 31.5365 10.9596V4.75391H28.5557V16.2559C28.5557 20.5618 31.392 23.5111 34.5788 23.5111C38.1146 23.5111 41.2246 20.5095 41.2246 16.4668C41.2246 12.4748 38.3621 9.42085 35.0339 9.42085V9.41917ZM35.0154 20.2193C34.3465 20.2193 33.6926 20.0016 33.1364 19.5937C32.5803 19.1858 32.1468 18.6061 31.8908 17.9278C31.6348 17.2496 31.5678 16.5032 31.6983 15.7832C31.8288 15.0631 32.1509 14.4017 32.6239 13.8826C33.0969 13.3634 33.6996 13.0099 34.3556 12.8667C35.0117 12.7235 35.6917 12.797 36.3097 13.0779C36.9277 13.3589 37.4559 13.8346 37.8275 14.4451C38.1991 15.0555 38.3975 15.7732 38.3975 16.5073C38.3975 17.4918 38.0412 18.4359 37.4069 19.1321C36.7726 19.8282 35.9124 20.2193 35.0154 20.2193Z" fill="#33475B"/>
<path d="M67.3994 16.2948C67.3994 12.2454 64.2956 9.25049 60.7536 9.25049C57.5668 9.25049 54.7305 12.1998 54.7305 16.5057V28.0144H57.7113V21.8003C58.7044 22.87 59.7344 23.3407 61.2071 23.3407C64.5354 23.3407 67.3979 20.2885 67.3979 16.2948H67.3994ZM64.5769 16.2543C64.5769 16.9884 64.3785 17.7061 64.0069 18.3165C63.6353 18.927 63.1071 19.4027 62.4891 19.6837C61.8711 19.9646 61.1911 20.0381 60.535 19.8949C59.879 19.7517 59.2763 19.3982 58.8033 18.879C58.3304 18.3599 58.0082 17.6985 57.8777 16.9784C57.7473 16.2584 57.8142 15.512 58.0702 14.8338C58.3262 14.1555 58.7597 13.5758 59.3159 13.1679C59.872 12.76 60.5259 12.5423 61.1948 12.5423C62.0918 12.5423 62.9521 12.9334 63.5863 13.6295C64.2206 14.3257 64.5769 15.2698 64.5769 16.2543Z" fill="#33475B"/>
<path d="M77.03 9.09207V5.8053C77.4257 5.60234 77.7608 5.28019 77.9962 4.87634C78.2316 4.47249 78.3577 4.00356 78.3597 3.52413V3.4482C78.3597 2.77697 78.1168 2.13323 77.6843 1.6586C77.2519 1.18397 76.6653 0.917321 76.0538 0.917321H75.9846C75.373 0.917321 74.7865 1.18397 74.354 1.6586C73.9216 2.13323 73.6786 2.77697 73.6786 3.4482V3.52413C73.6807 4.00356 73.8067 4.47249 74.0421 4.87634C74.2776 5.28019 74.6127 5.60234 75.0084 5.8053V9.09207C73.871 9.28306 72.7997 9.80051 71.903 10.592L63.6908 3.57137C63.7489 3.33986 63.7799 3.10116 63.783 2.86104C63.7839 2.297 63.6324 1.74534 63.3476 1.27583C63.0628 0.806315 62.6576 0.440047 62.1831 0.223351C61.7086 0.00665611 61.1863 -0.0507316 60.6821 0.0584472C60.1779 0.167626 59.7145 0.438466 59.3506 0.83671C58.9867 1.23495 58.7385 1.74271 58.6376 2.29575C58.5366 2.8488 58.5873 3.42229 58.7834 3.94368C58.9794 4.46506 59.3119 4.91093 59.7388 5.22489C60.1658 5.53884 60.668 5.70677 61.1819 5.70744C61.6313 5.70523 62.0723 5.57376 62.4609 5.32612L70.5487 12.2321C69.822 13.4367 69.4428 14.8537 69.4606 16.2984C69.4784 17.743 69.8924 19.1483 70.6486 20.3309L68.1889 23.0305C67.99 22.9608 67.7828 22.9238 67.574 22.9208C67.1521 22.9211 66.7398 23.0587 66.3891 23.3162C66.0384 23.5737 65.7652 23.9394 65.6039 24.3673C65.4426 24.7952 65.4005 25.2659 65.4828 25.72C65.5652 26.1741 65.7684 26.5913 66.0667 26.9187C66.365 27.2461 66.7451 27.4691 67.1589 27.5596C67.5726 27.65 68.0016 27.6037 68.3914 27.4267C68.7812 27.2496 69.1145 26.9497 69.3491 26.5649C69.5836 26.18 69.709 25.7275 69.7093 25.2644C69.7067 25.0352 69.673 24.8078 69.6094 24.5895L72.0429 21.9186C72.8365 22.5888 73.7592 23.0508 74.7405 23.2692C75.7219 23.4875 76.7357 23.4565 77.7044 23.1785C78.6731 22.9004 79.571 22.3827 80.3293 21.6651C81.0876 20.9474 81.6861 20.0487 82.0791 19.038C82.4721 18.0272 82.6491 16.9311 82.5965 15.8337C82.544 14.7362 82.2633 13.6665 81.7759 12.7066C81.2886 11.7466 80.6075 10.9217 79.7849 10.2952C78.9623 9.6687 78.0199 9.25715 77.03 9.09207ZM76.0215 19.9006C75.3558 19.9 74.7053 19.6827 74.1521 19.2764C73.5988 18.87 73.1678 18.2928 72.9134 17.6176C72.659 16.9425 72.5927 16.1997 72.7228 15.4832C72.8529 14.7667 73.1737 14.1086 73.6445 13.5921C74.1153 13.0756 74.7151 12.7239 75.3679 12.5814C76.0208 12.4389 76.6976 12.512 77.3126 12.7916C77.9276 13.0711 78.4534 13.5444 78.8233 14.1518C79.1933 14.7591 79.391 15.4732 79.3913 16.2039C79.3913 17.1838 79.0366 18.1237 78.4052 18.8167C77.7738 19.5096 76.9175 19.8989 76.0246 19.8989" fill="#FF7A59"/>
</svg>
