<svg width="123" height="27" viewBox="0 0 123 27" fill="none" xmlns="http://www.w3.org/2000/svg">
<path d="M43.1139 14.9846L42.3868 17.0404H42.3262C42.205 16.5768 41.9828 15.8714 41.6192 15.0249L37.7209 5.24969H33.9033V20.8295H36.4282V11.2156C36.4282 10.6109 36.4282 9.92566 36.408 9.07915C36.3878 8.6559 36.3474 8.33342 36.3272 8.09155H36.3878C36.5089 8.69621 36.6503 9.13962 36.7513 9.42179L41.4374 20.7892H43.2149L47.8606 9.32101C47.9616 9.059 48.0626 8.53497 48.1636 8.09155H48.2242C48.1636 9.24039 48.1232 10.2683 48.103 10.8931V20.7691H50.7894V5.20938H47.1133L43.1139 14.9846ZM53.3344 9.60318H55.9603V20.7691H53.3344V9.60318ZM54.6676 4.8869C54.2232 4.8869 53.8596 5.04814 53.5566 5.33031C53.2536 5.61248 53.0921 5.97528 53.0921 6.41869C53.0921 6.84194 53.2536 7.20473 53.5566 7.4869C53.8596 7.76907 54.2232 7.91016 54.6676 7.91016C55.1119 7.91016 55.4957 7.74892 55.7785 7.4869C56.0815 7.20473 56.2431 6.84194 56.2431 6.41869C56.2431 5.99543 56.0815 5.63264 55.7785 5.33031C55.5159 5.04814 55.1321 4.8869 54.6676 4.8869ZM65.2719 9.50241C64.7871 9.40163 64.2821 9.34117 63.7974 9.34117C62.6056 9.34117 61.5149 9.60318 60.606 10.1272C59.697 10.6512 58.9699 11.3768 58.5053 12.2838C58.0205 13.2109 57.7781 14.2792 57.7781 15.5086C57.7781 16.5768 58.0205 17.5241 58.4851 18.3908C58.9497 19.2373 59.596 19.9226 60.4646 20.3861C61.2927 20.8497 62.2623 21.0916 63.353 21.0916C64.6053 21.0916 65.6758 20.8295 66.5242 20.3458L66.5444 20.3257V17.9071L66.4434 17.9877C66.0596 18.2698 65.6152 18.5117 65.1709 18.6528C64.7063 18.814 64.2821 18.8947 63.9186 18.8947C62.8682 18.8947 62.0401 18.5923 61.4543 17.9272C60.8483 17.2823 60.5454 16.3954 60.5454 15.2869C60.5454 14.1381 60.8484 13.2311 61.4745 12.566C62.1007 11.9009 62.9288 11.5582 63.9387 11.5582C64.7871 11.5582 65.6556 11.8404 66.4434 12.4047L66.5444 12.4854V9.92566L66.5242 9.90551C66.1808 9.76442 65.797 9.60318 65.2719 9.50241ZM73.9371 9.42179C73.2907 9.42179 72.6848 9.62334 72.1596 10.0466C71.7152 10.4094 71.4123 10.9334 71.1497 11.5582H71.1295V9.60318H68.5036V20.7691H71.1295V15.0652C71.1295 14.0978 71.3315 13.2916 71.7758 12.7071C72.2202 12.1024 72.7858 11.8001 73.4725 11.8001C73.7149 11.8001 73.9573 11.8605 74.2603 11.9009C74.543 11.9815 74.745 12.0621 74.8864 12.1629L74.9874 12.2435V9.62334L74.9268 9.60318C74.745 9.48225 74.3815 9.42179 73.9371 9.42179ZM81.0874 9.36132C79.2493 9.36132 77.7748 9.90551 76.7447 10.9737C75.6944 12.0419 75.1894 13.5133 75.1894 15.3675C75.1894 17.1009 75.7146 18.5117 76.7245 19.5396C77.7344 20.5474 79.1079 21.0714 80.8248 21.0714C82.6225 21.0714 84.0566 20.5272 85.0868 19.4388C86.1371 18.3505 86.6421 16.8993 86.6421 15.1055C86.6421 13.3319 86.1573 11.921 85.1675 10.8931C84.2182 9.8652 82.8245 9.36132 81.0874 9.36132ZM83.1881 17.9474C82.7033 18.5722 81.9358 18.8745 80.9864 18.8745C80.0371 18.8745 79.2695 18.5722 78.7242 17.9071C78.1788 17.2823 77.9162 16.3753 77.9162 15.2264C77.9162 14.0373 78.199 13.1303 78.7242 12.4854C79.2695 11.8404 80.0169 11.5179 80.9662 11.5179C81.8954 11.5179 82.6225 11.8202 83.1477 12.445C83.6728 13.0698 83.9556 13.9768 83.9556 15.166C83.9152 16.3753 83.6931 17.3226 83.1881 17.9474ZM92.4997 14.2388C91.6715 13.8962 91.1464 13.6342 90.904 13.4125C90.702 13.2109 90.601 12.9288 90.601 12.566C90.601 12.2636 90.7222 11.9613 91.0252 11.7598C91.3281 11.5582 91.6715 11.4574 92.1765 11.4574C92.6209 11.4574 93.0854 11.5381 93.5298 11.659C93.9742 11.7799 94.3781 11.9613 94.7013 12.2032L94.8023 12.2838V9.82489L94.7417 9.80473C94.4387 9.6838 94.0348 9.56287 93.55 9.4621C93.0652 9.38148 92.6209 9.34117 92.2573 9.34117C91.005 9.34117 89.9748 9.64349 89.1669 10.3086C88.3589 10.9334 87.9752 11.7799 87.9752 12.7675C87.9752 13.2916 88.056 13.7551 88.2378 14.1381C88.4195 14.521 88.6821 14.8838 89.0457 15.1861C89.4093 15.4683 89.9344 15.7908 90.6616 16.0931C91.2676 16.3551 91.7321 16.5567 92.0149 16.7179C92.2977 16.8792 92.4795 17.0605 92.6209 17.2016C92.7219 17.3629 92.7825 17.5644 92.7825 17.8264C92.7825 18.5722 92.2169 18.935 91.0656 18.935C90.6212 18.935 90.1566 18.8543 89.6113 18.673C89.0659 18.4916 88.5609 18.2295 88.1368 17.9272L88.0358 17.8466V20.4063L88.0964 20.4264C88.4801 20.6078 88.9447 20.7288 89.5103 20.8699C90.0758 20.9706 90.5808 21.0512 91.0252 21.0512C92.3785 21.0512 93.4894 20.7489 94.2772 20.0838C95.0851 19.4388 95.5093 18.6125 95.5093 17.5443C95.5093 16.7985 95.3073 16.1334 94.8629 15.6295C94.2772 15.1458 93.55 14.6419 92.4997 14.2388ZM102.437 9.36132C100.599 9.36132 99.1248 9.90551 98.0947 10.9737C97.0646 12.0419 96.5394 13.5133 96.5394 15.3675C96.5394 17.1009 97.0646 18.5117 98.0745 19.5396C99.0844 20.5474 100.458 21.0714 102.175 21.0714C103.973 21.0714 105.407 20.5272 106.437 19.4388C107.487 18.3505 107.992 16.8993 107.992 15.1055C107.992 13.3319 107.507 11.921 106.518 10.8931C105.568 9.8652 104.174 9.36132 102.437 9.36132ZM104.518 17.9474C104.033 18.5722 103.266 18.8745 102.316 18.8745C101.347 18.8745 100.599 18.5722 100.054 17.9071C99.5086 17.2823 99.246 16.3753 99.246 15.2264C99.246 14.0373 99.5288 13.1303 100.054 12.4854C100.599 11.8404 101.347 11.5179 102.296 11.5179C103.205 11.5179 103.952 11.8202 104.477 12.445C105.003 13.0698 105.285 13.9768 105.285 15.166C105.285 16.3753 105.023 17.3226 104.518 17.9474ZM122.03 11.7598V9.60318H119.384V6.29776L119.303 6.31791L116.799 7.06365L116.738 7.0838V9.60318H112.779V8.19233C112.779 7.54737 112.941 7.04349 113.224 6.72101C113.506 6.39853 113.93 6.23729 114.456 6.23729C114.819 6.23729 115.203 6.31791 115.627 6.49931L115.728 6.55977V4.28225L115.668 4.2621C115.304 4.14117 114.819 4.06055 114.193 4.06055C113.405 4.06055 112.719 4.24194 112.092 4.54427C111.466 4.8869 111.002 5.35047 110.658 5.97528C110.315 6.57993 110.133 7.2652 110.133 8.05124V9.60318H108.295V11.7396H110.133V20.7691H112.779V11.7598H116.738V17.504C116.738 19.8621 117.849 21.0512 120.071 21.0512C120.434 21.0512 120.818 20.9908 121.182 20.9303C121.566 20.8497 121.848 20.7489 122.01 20.6683L122.03 20.6481V18.4916L121.929 18.5722C121.768 18.673 121.626 18.7536 121.384 18.814C121.182 18.8745 121 18.8947 120.859 18.8947C120.333 18.8947 119.97 18.7737 119.707 18.4714C119.465 18.1892 119.344 17.7257 119.344 17.0404V11.7598H122.03Z" fill="#737373"/>
<path d="M0.0507812 0.00939941H12.4326V12.3644H0.0507812V0.00939941Z" fill="#F25022"/>
<path d="M13.7256 0.00939941H26.1074V12.3644H13.7256V0.00939941Z" fill="#7FBA00"/>
<path d="M0.0507812 13.6544H12.4326V26.0095H0.0507812V13.6544Z" fill="#00A4EF"/>
<path d="M13.7256 13.6544H26.1074V26.0095H13.7256V13.6544Z" fill="#FFB900"/>
</svg>
