<svg width="112" height="27" viewBox="0 0 112 27" fill="none" xmlns="http://www.w3.org/2000/svg">
<path d="M39.5322 9.2573V10.7308H39.5772C40.1074 9.94188 40.9876 9.0128 42.9387 9.0128C44.4565 9.0128 45.6209 9.7854 46.1199 10.9524H46.1649C46.5912 10.3624 47.0798 9.9158 47.6273 9.59959C48.2754 9.2247 48.9961 9.00954 49.9041 9.00954C51.9591 9.00954 53.7784 10.3461 53.7784 13.7168V20.1095H50.6457V14.1635C50.6457 12.4553 50.0288 11.4675 48.7466 11.4675C47.8075 11.4675 47.1248 12.0608 46.8649 12.791C46.7748 13.042 46.7333 13.3843 46.7333 13.6712V20.1128H43.6005V13.9222C43.6005 12.4716 43.008 11.4643 41.7431 11.4643C40.7312 11.4643 40.097 12.214 39.8371 12.8562C39.7262 13.1301 39.6916 13.4463 39.6916 13.7429V20.1095H36.5554V9.2573H39.5322ZM69.9479 9.2573V11.3045H70.0345C70.6097 9.73976 71.9751 9.0128 73.1741 9.0128C73.4756 9.0128 73.642 9.03562 73.8845 9.08126V11.9239C73.5969 11.8848 73.3301 11.8457 72.9558 11.8457C71.5974 11.8457 70.6513 12.5889 70.4122 13.7527C70.3602 13.9939 70.3429 14.2547 70.3429 14.5546V20.1128H67.127V9.2573H69.9479ZM78.2509 5.66162V9.078H80.9678V11.8424H78.2509V15.9205C78.2509 17.2408 78.6079 17.8797 79.6683 17.8797C80.1673 17.8797 80.5346 17.8211 80.8534 17.7461L80.895 20.0378C80.4688 20.1878 79.5608 20.3508 78.639 20.3508C77.5544 20.3508 76.6499 19.9954 76.0989 19.4445C75.4682 18.8153 75.1771 17.7852 75.1771 16.3182V5.66162H78.2509ZM34.3722 20.1095H31.2534V5.66162H34.3722V20.1095ZM26.0553 16.2335C26.0553 16.4323 26.038 16.641 25.9791 16.8203C25.7365 17.5733 24.9083 18.209 23.8756 18.209C23.0127 18.209 22.3266 17.7493 22.3266 16.7746C22.3266 15.2849 24.0731 14.8709 26.0588 14.8806V16.2335H26.0553ZM29.1707 13.6353C29.1707 11.1741 28.0548 9.0128 24.281 9.0128C22.3439 9.0128 20.8053 9.52461 19.9666 9.981L20.58 11.9565C21.3458 11.5001 22.5691 11.1252 23.7266 11.1252C25.6429 11.122 25.9548 12.1456 25.9548 12.8008V12.9573C21.779 12.9508 19.1419 14.3101 19.1419 17.0811C19.1419 18.773 20.483 20.3573 22.8186 20.3573C24.2568 20.3573 25.4558 19.8194 26.1766 18.9555H26.2459C26.2459 18.9555 26.7241 20.83 29.3509 20.1128C29.2123 19.3304 29.1672 18.4991 29.1672 17.4983V13.6353H29.1707ZM3.47486 5.66162C3.79715 7.19052 4.71201 11.6305 4.71201 11.6305C5.09666 13.4561 5.45013 15.3696 5.71697 16.8822H5.76548C6.02539 15.2751 6.4343 13.7527 6.87094 11.8685L8.41304 5.66162H11.8264L13.268 12.0282C13.6458 13.7983 13.9473 15.1642 14.1864 16.8105H14.2314C14.4913 15.1479 14.8309 13.7266 15.2017 11.9076L16.5879 5.66162H19.8627L15.8047 20.1095C13.2195 20.6409 12.2284 19.6629 11.875 18.1112C11.5215 16.5562 10.8284 13.5995 10.8284 13.5995C10.4715 11.9793 10.1942 10.8384 10.0002 9.1758H9.95167C9.67444 10.8221 9.38334 11.9761 8.95364 13.5962L7.25213 20.1128C4.61151 20.6083 3.69665 19.8748 3.1907 17.883C2.75407 16.1781 0.0302734 5.66488 0.0302734 5.66488H3.47486V5.66162ZM61.929 16.2335C61.929 16.4323 61.9116 16.641 61.8527 16.8203C61.6101 17.5733 60.7819 18.209 59.7492 18.209C58.8864 18.209 58.2002 17.7493 58.2002 16.7746C58.2002 15.2849 59.9468 14.8709 61.9324 14.8806V16.2335H61.929ZM65.0443 13.6353C65.0443 11.1741 63.9285 9.0128 60.1547 9.0128C58.2175 9.0128 56.6789 9.52461 55.8403 9.981L56.4537 11.9565C57.2195 11.5001 58.4428 11.1252 59.6002 11.1252C61.5131 11.122 61.8285 12.1456 61.8285 12.8008V12.9573C57.6561 12.9508 55.019 14.3101 55.019 17.0811C55.019 18.773 56.3636 20.3573 58.6958 20.3573C60.1304 20.3573 61.3329 19.8194 62.0503 18.9555H62.123C62.123 18.9555 62.6012 20.83 65.228 20.1128C65.0894 19.3304 65.0443 18.4991 65.0443 17.4983V13.6353Z" fill="#041E42"/>
<path d="M93.6105 15.1335C93.9179 15.6611 93.8972 16.25 93.5691 16.519L87.8972 20.437C87.3065 20.774 86.4222 20.3655 85.9214 19.5111C85.417 18.6533 85.5068 17.6968 86.0975 17.3598L92.3773 14.4799C92.7711 14.3302 93.3031 14.6059 93.6105 15.1335ZM101.075 15.1335C101.386 14.6059 101.915 14.3336 102.308 14.4765L108.592 17.3563C109.182 17.6933 109.269 18.6499 108.768 19.5077C108.263 20.3621 107.376 20.7672 106.788 20.4336L101.117 16.5156C100.792 16.25 100.768 15.6577 101.075 15.1335ZM97.3411 17.2576C97.9594 17.2576 98.4672 17.5708 98.5363 17.9827L99.1477 24.7839C99.1477 25.4579 98.3497 26.0094 97.3446 26.0094C96.3428 26.0094 95.5414 25.4579 95.5414 24.7839L96.1494 17.9827C96.2185 17.5708 96.7262 17.2576 97.3411 17.2576ZM101.117 9.50325L106.788 5.5818C107.376 5.2448 108.263 5.64988 108.768 6.5077C109.269 7.36551 109.182 8.32205 108.592 8.65905L102.308 11.5423C101.915 11.6852 101.383 11.4129 101.075 10.8853C100.768 10.3577 100.792 9.76876 101.117 9.50325ZM92.3773 11.5423L86.0975 8.65905C85.5103 8.32205 85.4205 7.36551 85.9214 6.5077C86.4222 5.64988 87.31 5.2448 87.8972 5.5818L93.5691 9.50325C93.8972 9.76536 93.9179 10.3577 93.6105 10.8853C93.3031 11.4129 92.7711 11.6852 92.3773 11.5423ZM96.1494 8.03611L95.5414 1.23485C95.5414 0.560853 96.3394 0.00939941 97.3446 0.00939941C98.3497 0.00939941 99.1477 0.560853 99.1477 1.23485L98.5363 8.03611C98.4672 8.44459 97.9594 8.76117 97.3411 8.76117C96.7262 8.76117 96.2185 8.44459 96.1494 8.03611ZM110.301 20.4098V20.2396H110.457C110.509 20.2396 110.543 20.2736 110.543 20.3247C110.543 20.3723 110.509 20.4098 110.457 20.4098H110.301ZM110.174 20.7195C110.174 20.7366 110.187 20.7536 110.208 20.7536H110.274C110.291 20.7536 110.308 20.7366 110.308 20.7195V20.5255H110.415L110.502 20.7297C110.509 20.7434 110.519 20.7536 110.533 20.7536H110.612C110.637 20.7536 110.654 20.7297 110.643 20.7059C110.612 20.6446 110.581 20.58 110.55 20.5153C110.602 20.4983 110.681 20.4472 110.681 20.3247C110.681 20.1953 110.574 20.1204 110.467 20.1204H110.208C110.191 20.1204 110.174 20.1374 110.174 20.1545V20.7195ZM109.894 20.437C109.894 20.1613 110.122 19.9366 110.402 19.9366C110.681 19.9366 110.909 20.1579 110.909 20.437C110.909 20.7127 110.685 20.9374 110.402 20.9374C110.118 20.9374 109.894 20.7127 109.894 20.437ZM109.773 20.437C109.773 20.7774 110.053 21.0565 110.402 21.0565C110.747 21.0565 111.03 20.7774 111.03 20.437C111.03 20.0966 110.747 19.8175 110.402 19.8175C110.053 19.8175 109.773 20.0966 109.773 20.437Z" fill="#FFC124"/>
</svg>
