<svg width="18" height="18" viewBox="0 0 18 18" fill="none" xmlns="http://www.w3.org/2000/svg">
<g clip-path="url(#clip0_3002_795)">
<path d="M9 1.5C4.86 1.5 1.5 4.86 1.5 9C1.5 13.14 4.86 16.5 9 16.5C13.14 16.5 16.5 13.14 16.5 9C16.5 4.86 13.14 1.5 9 1.5ZM5.3025 13.71C5.625 13.035 7.59 12.375 9 12.375C10.41 12.375 12.3825 13.035 12.6975 13.71C11.6775 14.52 10.395 15 9 15C7.605 15 6.3225 14.52 5.3025 13.71ZM13.77 12.6225C12.6975 11.3175 10.095 10.875 9 10.875C7.905 10.875 5.3025 11.3175 4.23 12.6225C3.465 11.6175 3 10.365 3 9C3 5.6925 5.6925 3 9 3C12.3075 3 15 5.6925 15 9C15 10.365 14.535 11.6175 13.77 12.6225ZM9 4.5C7.545 4.5 6.375 5.67 6.375 7.125C6.375 8.58 7.545 9.75 9 9.75C10.455 9.75 11.625 8.58 11.625 7.125C11.625 5.67 10.455 4.5 9 4.5ZM9 8.25C8.3775 8.25 7.875 7.7475 7.875 7.125C7.875 6.5025 8.3775 6 9 6C9.6225 6 10.125 6.5025 10.125 7.125C10.125 7.7475 9.6225 8.25 9 8.25Z" fill="#F9CD92"/>
</g>
<defs>
<clipPath id="clip0_3002_795">
<rect width="18" height="18" fill="white"/>
</clipPath>
</defs>
</svg>
