<svg width="306" height="266" viewBox="0 0 306 266" fill="none" xmlns="http://www.w3.org/2000/svg">
<rect width="306" height="266" rx="10" fill="#F3F3F3"/>
<rect width="306" height="266" rx="10" fill="#FDC5C5"/>
<g clip-path="url(#clip0_3002_1011)">
<g clip-path="url(#clip1_3002_1011)">
<path d="M144.706 139.181L151.489 150.916L158.272 162.651H131.14L137.923 150.916L144.706 139.181Z" fill="#6C63FF"/>
<path d="M106.16 116.132H77.7129V144.546H106.16V116.132Z" fill="#E6E6E6"/>
<path d="M126.553 98.0276C136.633 98.0276 144.804 89.8656 144.804 79.7972C144.804 69.7289 136.633 61.5668 126.553 61.5668C116.472 61.5668 108.301 69.7289 108.301 79.7972C108.301 89.8656 116.472 98.0276 126.553 98.0276Z" fill="#6C63FF"/>
<path d="M142.979 110.237C142.979 109.64 143.156 109.057 143.488 108.561C143.82 108.065 144.291 107.678 144.843 107.449C145.395 107.221 146.003 107.161 146.589 107.278C147.175 107.394 147.713 107.682 148.136 108.104C148.558 108.526 148.846 109.063 148.962 109.649C149.079 110.234 149.019 110.841 148.791 111.392C148.562 111.943 148.175 112.415 147.678 112.746C147.181 113.078 146.597 113.255 145.999 113.255C145.198 113.255 144.43 112.937 143.863 112.371C143.297 111.805 142.979 111.037 142.979 110.237ZM143.482 110.237C143.482 110.735 143.63 111.221 143.906 111.634C144.183 112.048 144.576 112.37 145.036 112.56C145.496 112.751 146.002 112.8 146.491 112.703C146.979 112.606 147.428 112.367 147.78 112.015C148.132 111.664 148.371 111.216 148.469 110.728C148.566 110.24 148.516 109.734 148.325 109.275C148.135 108.815 147.812 108.423 147.398 108.146C146.984 107.87 146.497 107.723 145.999 107.723C145.332 107.723 144.691 107.988 144.219 108.459C143.747 108.931 143.482 109.57 143.482 110.237Z" fill="#CCCCCC"/>
<path d="M116.97 162.725L112.523 157.963L117.291 153.521L121.738 158.283L116.97 162.725ZM113.232 157.987L116.995 162.017L121.029 158.259L117.266 154.229L113.232 157.987Z" fill="#CCCCCC"/>
<path d="M80.2432 94.9818L76.624 91.1061L80.5052 87.4918L84.1244 91.3674L80.2432 94.9818ZM77.2008 91.1263L80.2643 94.4067L83.5476 91.3478L80.4851 88.0683L77.2008 91.1263Z" fill="#CCCCCC"/>
<path d="M131.084 100.291C126.105 100.291 121.238 98.8159 117.098 96.0529C112.958 93.2899 109.731 89.3627 107.826 84.768C105.92 80.1733 105.422 75.1174 106.393 70.2397C107.364 65.362 109.762 60.8815 113.283 57.3649C116.803 53.8482 121.289 51.4533 126.173 50.4831C131.056 49.5129 136.118 50.0108 140.718 51.914C145.318 53.8172 149.25 57.0402 152.016 61.1753C154.782 65.3104 156.259 70.172 156.259 75.1453C156.259 81.8143 153.607 88.2101 148.885 92.9257C144.164 97.6414 137.761 100.291 131.084 100.291ZM131.084 50.5029C126.204 50.5029 121.435 51.9481 117.377 54.6559C113.32 57.3636 110.158 61.2122 108.291 65.715C106.423 70.2179 105.935 75.1726 106.887 79.9528C107.839 84.733 110.188 89.1238 113.639 92.5701C117.089 96.0164 121.485 98.3634 126.271 99.3142C131.057 100.265 136.017 99.7771 140.525 97.9119C145.033 96.0468 148.887 92.8883 151.597 88.8359C154.308 84.7835 155.755 80.0191 155.755 75.1453C155.755 68.6097 153.156 62.3418 148.529 57.7205C143.903 53.0991 137.627 50.5029 131.084 50.5029Z" fill="#3F3D56"/>
<path d="M115.586 94.7094L109.083 108.228L109.537 108.446L116.04 94.9272L115.586 94.7094Z" fill="#3F3D56"/>
<path d="M114.085 126.22L113.846 126.662L142.492 142.147L142.731 141.705L114.085 126.22Z" fill="#3F3D56"/>
<path d="M114.217 144.798H77.4619V108.086H114.217V144.798ZM77.9654 144.295H113.714V108.589H77.9654V144.295Z" fill="#3F3D56"/>
<path d="M168.723 162.903H130.704L149.713 130.016L168.723 162.903ZM131.576 162.4H167.851L149.713 131.022L131.576 162.4Z" fill="#3F3D56"/>
<path d="M245 222.497H65V223H245V222.497Z" fill="#E6E6E6"/>
<path d="M116.936 206.814C118.217 207.264 119.593 207.377 120.93 207.141C122.267 206.906 123.521 206.331 124.571 205.471C127.245 203.229 128.084 199.537 128.766 196.117L130.783 186.001L126.559 188.907C123.521 190.996 120.415 193.153 118.311 196.179C116.208 199.205 115.29 203.336 116.98 206.611" fill="#E6E6E6"/>
<path d="M117.589 219.765C117.057 215.896 116.51 211.977 116.884 208.066C117.215 204.593 118.276 201.201 120.436 198.419C121.582 196.946 122.977 195.683 124.558 194.688C124.97 194.429 125.349 195.081 124.939 195.34C122.204 197.066 120.088 199.616 118.897 202.621C117.582 205.962 117.371 209.605 117.597 213.155C117.734 215.301 118.025 217.434 118.317 219.564C118.34 219.66 118.326 219.762 118.277 219.848C118.228 219.934 118.148 219.999 118.054 220.028C117.957 220.054 117.854 220.041 117.767 219.992C117.68 219.942 117.616 219.861 117.589 219.765L117.589 219.765Z" fill="#F2F2F2"/>
<path d="M152.783 214.436C153.405 215.17 154.206 215.731 155.108 216.066C156.01 216.401 156.984 216.498 157.934 216.348C160.375 215.935 162.214 213.977 163.858 212.129L168.723 206.666L165.098 206.93C162.49 207.12 159.816 207.326 157.445 208.423C155.073 209.521 153.027 211.718 152.886 214.327" fill="#E6E6E6"/>
<path d="M148.609 222.055C149.464 219.999 150.326 217.915 151.638 216.1C152.803 214.487 154.304 213.125 156.169 212.378C157.158 211.984 158.209 211.765 159.273 211.731C159.55 211.722 159.55 212.152 159.273 212.161C157.43 212.222 155.654 212.866 154.201 214.001C152.59 215.265 151.435 216.996 150.522 218.806C149.97 219.901 149.497 221.033 149.026 222.165C149.01 222.219 148.974 222.264 148.925 222.293C148.876 222.321 148.818 222.33 148.763 222.317C148.708 222.302 148.661 222.266 148.633 222.216C148.604 222.167 148.596 222.109 148.611 222.054L148.609 222.055Z" fill="#F2F2F2"/>
<path d="M121.415 213.557C121.964 214.391 122.719 215.07 123.608 215.528C124.496 215.986 125.487 216.208 126.486 216.172C129.054 216.05 131.194 214.261 133.12 212.561L138.818 207.536L135.047 207.356C132.335 207.226 129.553 207.104 126.97 207.941C124.387 208.777 122.004 210.787 121.532 213.457" fill="#E6E6E6"/>
<path d="M116.086 221.989C118.646 217.465 121.614 212.437 126.92 210.83C128.395 210.385 129.941 210.226 131.476 210.36C131.96 210.402 131.839 211.147 131.357 211.106C128.784 210.892 126.215 211.571 124.085 213.027C122.034 214.421 120.438 216.359 119.086 218.415C118.259 219.674 117.517 220.986 116.776 222.296C116.539 222.715 115.846 222.413 116.086 221.989Z" fill="#F2F2F2"/>
<path d="M70.9122 213.976C71.8392 214.302 72.8345 214.383 73.8022 214.213C74.7699 214.043 75.6774 213.627 76.4373 213.004C78.3725 211.382 78.98 208.709 79.4729 206.234L80.933 198.914L77.876 201.016C75.6775 202.528 73.4297 204.089 71.9073 206.279C70.385 208.469 69.7207 211.459 70.9437 213.829" fill="#E6E6E6"/>
<path d="M71.1734 222.839C70.864 220.588 70.5458 218.308 70.7628 216.032C70.9557 214.012 71.5727 212.038 72.8294 210.42C73.4964 209.562 74.3081 208.828 75.2278 208.249C75.4677 208.098 75.6883 208.478 75.4496 208.628C73.8582 209.632 72.6274 211.116 71.9345 212.864C71.1691 214.808 71.0463 216.928 71.1792 218.993C71.259 220.242 71.4279 221.482 71.5984 222.722C71.6121 222.778 71.6038 222.837 71.5753 222.888C71.5467 222.938 71.5001 222.975 71.4448 222.992C71.3886 223.007 71.3287 223 71.2781 222.971C71.2274 222.942 71.1902 222.895 71.1744 222.839L71.1734 222.839Z" fill="#F2F2F2"/>
<path d="M93.9449 222.862C93.8784 222.753 92.3123 220.141 91.7695 214.718C91.2716 209.742 91.5918 201.354 95.9465 189.655C104.197 167.491 94.0453 149.607 93.9416 149.429L94.4423 149.139C94.4675 149.184 97.0882 153.744 98.6354 161.004C100.68 170.63 99.9355 180.638 96.489 189.856C88.2528 211.983 94.3761 222.457 94.4388 222.56L93.9449 222.862Z" fill="#3F3D56"/>
<path d="M102.586 162.004C104.664 162.004 106.348 160.321 106.348 158.246C106.348 156.17 104.664 154.488 102.586 154.488C100.508 154.488 98.8232 156.17 98.8232 158.246C98.8232 160.321 100.508 162.004 102.586 162.004Z" fill="#6C63FF"/>
<path d="M91.5876 191.201C93.6655 191.201 95.35 189.518 95.35 187.443C95.35 185.367 93.6655 183.685 91.5876 183.685C89.5097 183.685 87.8252 185.367 87.8252 187.443C87.8252 189.518 89.5097 191.201 91.5876 191.201Z" fill="#6C63FF"/>
<path d="M95.8672 222.749C95.8672 222.749 92.6567 214.856 102.288 208.936L95.8672 222.749Z" fill="#E6E6E6"/>
<path d="M91.9188 222.606C91.9188 222.606 90.9395 216.979 83.3594 217.028L91.9188 222.606Z" fill="#E6E6E6"/>
<path d="M100.686 176.824C100.686 176.227 100.863 175.644 101.195 175.148C101.527 174.651 101.998 174.265 102.55 174.036C103.102 173.808 103.71 173.748 104.296 173.865C104.882 173.981 105.42 174.268 105.843 174.69C106.265 175.112 106.553 175.65 106.669 176.235C106.786 176.821 106.726 177.427 106.498 177.979C106.269 178.53 105.882 179.001 105.385 179.333C104.888 179.664 104.304 179.841 103.707 179.841C102.905 179.841 102.137 179.524 101.57 178.958C101.004 178.392 100.686 177.624 100.686 176.824ZM101.189 176.824C101.189 177.321 101.337 177.808 101.613 178.221C101.89 178.635 102.283 178.957 102.743 179.147C103.203 179.337 103.709 179.387 104.198 179.29C104.686 179.193 105.135 178.954 105.487 178.602C105.839 178.25 106.079 177.802 106.176 177.315C106.273 176.827 106.223 176.321 106.032 175.862C105.842 175.402 105.519 175.01 105.105 174.733C104.691 174.457 104.204 174.31 103.707 174.31C103.039 174.31 102.399 174.574 101.926 175.046C101.454 175.518 101.189 176.157 101.189 176.824Z" fill="#CCCCCC"/>
<path d="M91.5869 167.51C91.5869 166.913 91.7641 166.33 92.096 165.834C92.428 165.338 92.8998 164.951 93.4518 164.723C94.0038 164.494 94.6112 164.434 95.1973 164.551C95.7833 164.667 96.3216 164.955 96.7441 165.377C97.1665 165.799 97.4543 166.336 97.5708 166.922C97.6874 167.507 97.6276 168.114 97.3989 168.665C97.1703 169.216 96.7831 169.688 96.2863 170.019C95.7895 170.351 95.2054 170.528 94.6079 170.528C93.8067 170.528 93.0383 170.21 92.4717 169.644C91.9052 169.078 91.5869 168.311 91.5869 167.51ZM92.0904 167.51C92.0904 168.008 92.2381 168.494 92.5147 168.907C92.7913 169.321 93.1845 169.643 93.6445 169.833C94.1045 170.024 94.6107 170.074 95.099 169.977C95.5874 169.879 96.036 169.64 96.388 169.288C96.7401 168.937 96.9799 168.489 97.077 168.001C97.1741 167.513 97.1243 167.007 96.9337 166.548C96.7432 166.089 96.4205 165.696 96.0065 165.42C95.5925 165.143 95.1058 164.996 94.6079 164.996C93.9402 164.996 93.2999 165.261 92.8278 165.732C92.3556 166.204 92.0904 166.843 92.0904 167.51Z" fill="#CCCCCC"/>
<path d="M225.594 160.292C225.218 160.561 224.787 160.744 224.332 160.828C223.877 160.912 223.409 160.893 222.962 160.775C222.16 160.562 221.475 160.039 221.058 159.321C220.642 158.604 220.527 157.75 220.741 156.949C220.752 156.908 220.763 156.868 220.776 156.827C220.822 156.681 220.88 156.538 220.948 156.4L214.792 128.795C214.698 128.48 214.667 128.149 214.701 127.822C214.734 127.495 214.832 127.178 214.989 126.888C215.145 126.599 215.357 126.343 215.612 126.136C215.868 125.928 216.161 125.773 216.477 125.679C216.792 125.585 217.123 125.554 217.451 125.587C217.778 125.621 218.096 125.719 218.386 125.875C218.675 126.031 218.931 126.243 219.139 126.498C219.347 126.753 219.502 127.046 219.596 127.361C219.602 127.379 219.607 127.396 219.611 127.413L225.422 155.101C225.859 155.372 226.222 155.747 226.479 156.192C226.736 156.636 226.879 157.138 226.896 157.651C226.913 158.164 226.803 158.674 226.576 159.134C226.349 159.595 226.012 159.993 225.594 160.292L225.594 160.292Z" fill="#9F616A"/>
<path d="M233.769 219.516H230.43L228.842 206.653H233.77L233.769 219.516Z" fill="#A0616A"/>
<path d="M234.62 222.749H223.854V222.613C223.855 221.503 224.296 220.438 225.082 219.653C225.867 218.868 226.933 218.427 228.044 218.427H234.62V222.749Z" fill="#2F2E41"/>
<path d="M200.296 219.411L197.119 218.384L199.571 205.657L204.26 207.172L200.296 219.411Z" fill="#A0616A"/>
<path d="M200.11 222.749L189.868 219.439L189.91 219.31C190.252 218.254 191 217.377 191.99 216.871C192.979 216.366 194.129 216.274 195.186 216.616L201.442 218.637L200.11 222.749Z" fill="#2F2E41"/>
<path d="M215.274 121.345C218.385 121.345 220.907 118.826 220.907 115.719C220.907 112.612 218.385 110.093 215.274 110.093C212.164 110.093 209.642 112.612 209.642 115.719C209.642 118.826 212.164 121.345 215.274 121.345Z" fill="#9F616A"/>
<path d="M222.846 137.59C223.63 134.684 220.043 125.571 219.75 124.414C218.351 124.092 215.111 124.71 213.119 124.3C210.287 126.664 208.034 130.04 206.477 131.643C204.858 133.309 203.815 134.438 205.487 138.337C207.515 143.063 207.065 148.014 207.065 148.014L208.416 159.941C208.416 159.941 202.784 175.695 203.234 186.272L198.052 212.152C198.052 212.152 199.629 214.852 202.783 213.502C202.783 213.502 210.219 200.225 209.543 190.547L217.654 172.543C217.654 172.543 223.287 189.647 224.864 191.222L228.92 215.527C228.92 215.527 232.75 216.653 234.553 215.527C234.553 215.527 235.229 192.122 231.398 188.296C231.398 188.296 227.568 172.093 228.469 167.817C229.37 163.541 229.596 157.015 222.836 151.164C222.836 151.164 222.904 151.194 220.809 147.338L222.846 137.59Z" fill="#2F2E41"/>
<path d="M218.213 107.023C217.898 107.024 217.583 107.055 217.273 107.116C216.713 106.845 216.099 106.704 215.476 106.703H215.313C212.17 106.703 209.622 109.544 209.622 113.048H210.675L210.846 111.755L211.095 113.048H211.972C211.699 114.086 211.562 115.155 211.565 116.228V122.686H213.157L214.079 120.293L213.848 122.686H224.084L224.922 120.511L224.712 122.686H225.865V117.615C225.865 111.765 222.439 107.023 218.213 107.023Z" fill="#2F2E41"/>
<path d="M206.469 163.489C206.011 163.557 205.544 163.524 205.101 163.391C204.658 163.257 204.25 163.028 203.906 162.719C203.601 162.444 203.353 162.111 203.176 161.741C202.999 161.37 202.897 160.968 202.876 160.558C202.855 160.147 202.915 159.737 203.052 159.35C203.19 158.963 203.403 158.607 203.678 158.302C203.707 158.27 203.736 158.239 203.766 158.209C203.874 158.099 203.991 157.998 204.114 157.907L211.252 130.54C211.312 130.216 211.435 129.908 211.614 129.632C211.793 129.356 212.025 129.118 212.297 128.932C212.568 128.746 212.873 128.615 213.195 128.546C213.517 128.478 213.85 128.474 214.173 128.533C214.497 128.593 214.806 128.716 215.082 128.895C215.358 129.074 215.596 129.306 215.783 129.577C215.969 129.848 216.1 130.153 216.169 130.475C216.237 130.796 216.242 131.128 216.182 131.451C216.178 131.47 216.175 131.489 216.171 131.508L208.687 158.792C208.951 159.232 209.103 159.731 209.129 160.244C209.154 160.756 209.053 161.268 208.834 161.732C208.614 162.196 208.284 162.6 207.871 162.906C207.459 163.212 206.977 163.412 206.469 163.489Z" fill="#9F616A"/>
</g>
</g>
<defs>
<clipPath id="clip0_3002_1011">
<rect width="224" height="224" fill="white" transform="translate(43 25)"/>
</clipPath>
<clipPath id="clip1_3002_1011">
<rect width="180" height="173" fill="white" transform="translate(65 50)"/>
</clipPath>
</defs>
</svg>
