<svg width="306" height="266" viewBox="0 0 306 266" fill="none" xmlns="http://www.w3.org/2000/svg">
<rect width="306" height="266" rx="10" fill="#F3F3F3"/>
<rect width="306" height="266" rx="10" fill="#F9CD92"/>
<g clip-path="url(#clip0_3002_699)">
<g clip-path="url(#clip1_3002_699)">
<path d="M196.578 125.337L197.902 124.82C198.029 124.77 198.154 124.716 198.287 124.665C195.835 123.766 193.764 122.063 192.414 119.836C191.063 117.609 190.514 114.991 190.855 112.411C191.197 109.832 192.41 107.445 194.294 105.644C196.179 103.842 198.623 102.733 201.224 102.498L200.301 107.132L203.804 102.552H203.835C206.858 102.966 209.593 104.559 211.437 106.981C213.281 109.403 214.084 112.455 213.67 115.466C213.641 115.683 213.595 115.893 213.554 116.106C214.633 115.258 215.644 114.321 216.401 113.234C217.939 111.024 218.46 108.302 218.991 104.968C220.042 98.3661 220.99 91.6914 221.844 85.0206C219.223 84.2329 216.97 82.54 215.49 80.2461C214.01 77.9522 213.4 75.2077 213.77 72.506C213.818 72.1575 213.885 71.8186 213.962 71.4835C213.981 71.3993 214 71.315 214.021 71.2327C214.104 70.9091 214.196 70.5913 214.304 70.2753C214.321 70.2236 214.344 70.1758 214.362 70.126C214.458 69.8637 214.554 69.6052 214.679 69.3601C214.721 69.2644 214.763 69.1686 214.808 69.0787C214.94 68.8048 215.081 68.5368 215.234 68.2764C215.286 68.1902 215.342 68.1079 215.394 68.0217C215.513 67.8303 215.638 67.6388 215.767 67.4607C215.836 67.365 215.903 67.2692 215.975 67.1754L216.026 67.1008C217.659 64.9729 219.988 63.482 222.609 62.8873C225.231 62.2927 227.979 62.6318 230.375 63.8457L229.176 69.8752L232.636 65.3488C234.497 66.9194 235.805 69.0415 236.37 71.4052C236.934 73.769 236.725 76.2506 235.773 78.4876H235.787C235.754 78.5641 235.714 78.6369 235.681 78.7135C235.617 78.8552 235.552 78.9949 235.489 79.1347C235.4 79.3128 235.296 79.487 235.21 79.6594C235.137 79.7896 235.066 79.9198 234.987 80.0423C234.873 80.2338 234.75 80.4061 234.627 80.5842C234.554 80.6876 234.487 80.7948 234.412 80.8963C234.22 81.1624 234.005 81.4171 233.785 81.6621C233.709 81.7483 233.626 81.8268 233.545 81.9111C233.389 82.0757 233.234 82.2385 233.068 82.3936C232.966 82.4893 232.859 82.585 232.753 82.6731C232.601 82.8071 232.446 82.9373 232.286 83.0561C232.173 83.146 232.057 83.2322 231.942 83.3165C231.775 83.4371 231.605 83.5501 231.434 83.663C231.319 83.7377 231.204 83.8124 231.086 83.8832C230.894 84 230.692 84.1072 230.49 84.2125C230.389 84.2642 230.298 84.3217 230.185 84.3715C229.881 84.5189 229.57 84.6548 229.252 84.7755C229.193 84.7984 229.129 84.8157 229.07 84.8367C228.805 84.9325 228.537 85.0282 228.266 85.0952C228.149 85.1278 228.03 85.1546 227.911 85.1833C227.69 85.2369 227.467 85.2867 227.242 85.3288C227.113 85.3518 226.981 85.3729 226.844 85.392C226.623 85.4246 226.4 85.4494 226.175 85.4686C226.042 85.4801 225.911 85.4916 225.777 85.4992C225.535 85.5107 225.29 85.5126 225.046 85.5107C225.03 85.5098 225.014 85.5098 224.998 85.5107C224.637 88.319 224.257 91.1272 223.86 93.9355C224.792 92.6819 225.972 91.6312 227.326 90.8479C228.681 90.0645 230.182 89.565 231.737 89.38C233.292 89.195 234.869 89.3283 236.371 89.7719C237.872 90.2154 239.267 90.9599 240.47 91.9595L237.455 97.0488L242.302 93.8723C244.134 96.2878 244.929 99.3288 244.512 102.328C244.37 103.381 244.079 104.408 243.647 105.38C242.722 107.483 241.184 109.261 239.231 110.483C237.279 111.705 235.003 112.314 232.698 112.232C230.394 112.149 228.168 111.379 226.309 110.02C224.45 108.662 223.043 106.778 222.272 104.614C222.228 104.897 222.186 105.188 222.142 105.468C221.672 108.407 221.09 112.066 219.022 115.041C217.62 117.063 215.69 118.557 213.814 119.87C212.594 120.725 211.345 121.541 210.069 122.315C208.729 123.553 207.113 124.455 205.353 124.946C203.303 125.992 201.208 126.937 199.069 127.782L197.733 128.303C196.532 128.77 195.301 129.249 194.081 129.758C194.273 129.775 194.465 129.79 194.657 129.815C197.076 130.146 199.327 131.234 201.084 132.922C202.842 134.61 204.015 136.811 204.434 139.207L196.301 143.632L204.409 143.27C204.085 145.061 203.332 146.747 202.214 148.187C200.381 150.551 197.693 152.109 194.724 152.528C191.754 152.948 188.738 152.197 186.316 150.435L186.72 151.183C186.989 151.677 187.254 152.17 187.512 152.658C191.035 159.31 191.291 165.054 188.233 168.835L185.734 166.834C188.711 163.154 186.349 157.305 184.676 154.146C184.422 153.667 184.161 153.188 183.907 152.698C181.645 148.518 179.078 143.781 180.107 138.74C181.645 131.138 189.92 127.922 196.578 125.337Z" fill="#F2F2F2"/>
<path d="M100.827 161.376L99.7932 160.972C99.6932 160.933 99.601 160.889 99.4971 160.851C101.411 160.148 103.027 158.818 104.082 157.079C105.136 155.339 105.564 153.295 105.297 151.281C105.03 149.267 104.083 147.403 102.612 145.996C101.141 144.589 99.2331 143.722 97.2018 143.538L97.9227 147.157L95.1891 143.58H95.1641C93.9941 143.739 92.8671 144.127 91.8474 144.72C90.8277 145.313 89.9353 146.1 89.2212 147.037C88.5071 147.974 87.9853 149.041 87.6856 150.179C87.3859 151.316 87.3142 152.502 87.4746 153.667C87.4976 153.837 87.5342 154 87.5649 154.167C86.7168 153.532 85.9679 152.775 85.3426 151.921C84.145 150.198 83.7336 148.068 83.3184 145.466C82.5052 140.31 81.767 135.098 81.1038 129.894C83.1499 129.278 84.9083 127.955 86.063 126.163C87.2177 124.372 87.693 122.229 87.4034 120.119C87.365 119.847 87.3131 119.583 87.2516 119.321L87.2054 119.129C87.1401 118.877 87.0689 118.628 86.9844 118.386C86.9709 118.346 86.9536 118.308 86.9382 118.27C86.8632 118.065 86.7806 117.864 86.6922 117.667C86.6575 117.594 86.6249 117.519 86.5903 117.446C86.4865 117.234 86.3769 117.025 86.2577 116.822C86.2173 116.753 86.1731 116.688 86.1327 116.631C86.0385 116.481 85.9405 116.334 85.8405 116.192C85.7867 116.118 85.7348 116.041 85.6791 115.968L85.6387 115.911C84.3639 114.249 82.5454 113.084 80.4987 112.619C78.4519 112.153 76.3059 112.415 74.4331 113.36L75.3712 118.071L72.6664 114.536C71.213 115.763 70.1913 117.42 69.7503 119.266C69.3094 121.112 69.4723 123.05 70.2154 124.797H70.2058C70.2308 124.856 70.2615 124.914 70.2885 124.973C70.3384 125.084 70.3884 125.193 70.4422 125.302C70.5114 125.44 70.5845 125.576 70.6614 125.71C70.7171 125.814 70.7729 125.915 70.8344 126.015C70.9228 126.158 71.0266 126.298 71.1151 126.438C71.1727 126.518 71.2247 126.603 71.2842 126.681C71.438 126.888 71.6014 127.087 71.7725 127.28C71.8321 127.347 71.8975 127.409 71.9648 127.472C72.0859 127.6 72.2089 127.726 72.3377 127.855C72.4165 127.931 72.5011 128.002 72.5838 128.073C72.703 128.179 72.8241 128.28 72.9471 128.377C73.0355 128.446 73.1259 128.513 73.2162 128.58C73.347 128.674 73.4796 128.772 73.6123 128.85C73.7026 128.91 73.793 128.967 73.8852 129.023C74.0371 129.115 74.1928 129.197 74.3504 129.279C74.4312 129.321 74.5081 129.365 74.5888 129.406C74.8272 129.521 75.0694 129.626 75.3174 129.72C75.3635 129.739 75.4135 129.75 75.4597 129.768C75.6654 129.842 75.8749 129.911 76.0883 129.97C76.1786 129.995 76.2805 130.016 76.3651 130.038C76.5381 130.08 76.7111 130.12 76.888 130.152L77.1975 130.202C77.3705 130.227 77.5454 130.246 77.7204 130.262C77.8242 130.271 77.9261 130.279 78.0318 130.285C78.2241 130.294 78.4163 130.296 78.6085 130.294H78.6451C78.927 132.492 79.223 134.688 79.5332 136.883C78.8064 135.902 77.8861 135.08 76.8288 134.467C75.7715 133.853 74.5995 133.462 73.3847 133.316C72.1699 133.17 70.938 133.272 69.7646 133.618C68.5911 133.963 67.501 134.544 66.561 135.324L68.8947 139.276L65.1115 136.796C64.4018 137.73 63.8838 138.794 63.5869 139.927C63.2901 141.06 63.2202 142.24 63.3813 143.4C63.4929 144.224 63.7214 145.027 64.0599 145.786C64.7826 147.429 65.9842 148.817 67.5089 149.772C69.0337 150.726 70.8111 151.202 72.6107 151.137C74.4103 151.073 76.1489 150.471 77.601 149.41C79.053 148.35 80.1515 146.879 80.7539 145.189C80.7885 145.409 80.8212 145.633 80.8558 145.855C81.221 148.153 81.6767 151.009 83.2915 153.338C84.3872 154.915 85.8944 156.081 87.3592 157.108C88.3127 157.777 89.2874 158.415 90.2832 159.022C91.3301 159.989 92.5925 160.694 93.9664 161.079C95.5659 161.895 97.2037 162.637 98.8762 163.292L99.9181 163.7C100.856 164.064 101.817 164.437 102.765 164.835C102.615 164.849 102.463 164.86 102.312 164.881C100.423 165.139 98.6662 165.988 97.2937 167.305C95.9213 168.622 95.0045 170.339 94.6758 172.209L101.02 175.656L94.6873 175.374C94.9661 176.862 95.6189 178.255 96.5846 179.424C97.5504 180.592 98.7977 181.498 100.21 182.056C101.622 182.614 103.154 182.807 104.661 182.616C106.169 182.426 107.603 181.857 108.83 180.965C108.725 181.157 108.621 181.348 108.515 181.549C108.306 181.932 108.098 182.315 107.896 182.698C105.145 187.892 104.945 192.381 107.335 195.335L109.282 193.773C106.956 190.9 108.801 186.33 110.109 183.862C110.301 183.489 110.51 183.111 110.716 182.732C112.483 179.477 114.486 175.769 113.688 171.83C112.494 165.906 106.026 163.401 100.827 161.376Z" fill="#F2F2F2"/>
<path d="M155.5 202C214.318 202 262 199.985 262 197.5C262 195.015 214.318 193.001 155.5 193.001C96.6817 193.001 49 195.015 49 197.5C49 199.985 96.6817 202 155.5 202Z" fill="#3F3D56"/>
<path opacity="0.1" d="M155.5 202C214.318 202 262 199.985 262 197.5C262 195.015 214.318 193.001 155.5 193.001C96.6817 193.001 49 195.015 49 197.5C49 199.985 96.6817 202 155.5 202Z" fill="black"/>
<path d="M155.5 199.511C214.318 199.511 262 197.496 262 195.011C262 192.526 214.318 190.512 155.5 190.512C96.6817 190.512 49 192.526 49 195.011C49 197.496 96.6817 199.511 155.5 199.511Z" fill="#3F3D56"/>
<path d="M65.3403 193.411C64.7635 192.356 65.4172 191.063 66.163 190.121C66.9089 189.179 67.8182 188.206 67.799 187.002C67.7721 185.279 65.9343 184.262 64.4675 183.349C63.3792 182.67 62.3751 181.866 61.4763 180.953C61.1006 180.601 60.7896 180.187 60.5574 179.728C60.2536 179.054 60.2632 178.288 60.2825 177.549C60.3466 175.091 60.4683 172.635 60.6477 170.181" stroke="#3F3D56" stroke-width="4" stroke-miterlimit="10"/>
<path d="M57.864 170.045C57.8848 169.596 58.0189 169.158 58.2541 168.774C58.4893 168.389 58.8179 168.07 59.2097 167.845L59.8133 169.034L59.796 167.595C60.0839 167.509 60.3841 167.473 60.6841 167.487C61.2153 167.513 61.7269 167.695 62.1542 168.01C62.5816 168.326 62.9057 168.76 63.0855 169.258C63.2653 169.757 63.2928 170.297 63.1645 170.811C63.0363 171.325 62.758 171.79 62.3648 172.147C61.9716 172.503 61.4812 172.736 60.9554 172.815C60.4295 172.894 59.8919 172.817 59.4104 172.592C58.9289 172.367 58.525 172.005 58.2498 171.552C57.9746 171.099 57.8403 170.575 57.864 170.045Z" fill="#6C63FF"/>
<path d="M62.6759 188.235C62.944 188.767 63.382 189.194 63.9208 189.451C64.4597 189.707 65.0689 189.777 65.6524 189.651C66.236 189.525 66.7608 189.209 67.1442 188.753C67.5276 188.297 67.7478 187.727 67.7702 187.132C67.7894 186.761 67.7298 186.39 67.5953 186.043C67.4019 185.53 67.0552 185.088 66.6019 184.777C66.1486 184.466 65.6105 184.301 65.0602 184.304C64.5098 184.307 63.9737 184.478 63.524 184.794C63.0743 185.11 62.7327 185.556 62.5452 186.072L64.2311 187.437L62.3779 187.008C62.3769 187.435 62.4791 187.856 62.6759 188.235Z" fill="#6C63FF"/>
<path d="M64.0079 183.018C64.6802 183.068 65.347 182.866 65.8766 182.45C66.4062 182.034 66.7598 181.436 66.8676 180.773C66.9754 180.11 66.8294 179.431 66.4587 178.87C66.0879 178.309 65.5192 177.908 64.8652 177.744L64.8787 178.853L64.2674 177.649C63.5523 177.615 62.8533 177.866 62.324 178.347C61.7948 178.827 61.4787 179.496 61.4453 180.209C61.4119 180.921 61.664 181.617 62.146 182.144C62.628 182.671 63.3005 182.986 64.0156 183.019L64.0079 183.018Z" fill="#6C63FF"/>
<path d="M57.4585 178.677C57.812 178.693 58.1652 178.641 58.4981 178.521C58.831 178.402 59.1371 178.218 59.3988 177.981C59.6604 177.744 59.8727 177.458 60.0233 177.139C60.174 176.82 60.2601 176.475 60.2767 176.123C60.2934 175.771 60.2403 175.419 60.1204 175.087C60.0006 174.756 59.8163 174.451 59.5782 174.19C59.34 173.93 59.0527 173.718 58.7326 173.568C58.4124 173.418 58.0657 173.332 57.7123 173.316C57.2077 173.291 56.7064 173.409 56.2667 173.657L56.7434 174.959L55.7611 174.02C55.2357 174.5 54.9225 175.167 54.8902 175.876C54.8772 176.123 54.9005 176.372 54.9594 176.613C55.0936 177.181 55.4103 177.69 55.8613 178.062C56.3124 178.435 56.8732 178.651 57.4585 178.677Z" fill="#6C63FF"/>
<path opacity="0.1" d="M58.2275 170.762C58.8504 170.83 59.4559 171.024 60.0807 171.062C60.7055 171.1 61.3918 170.951 61.7878 170.469C62.0012 170.206 62.1069 169.877 62.2857 169.594C62.4569 169.329 62.6905 169.11 62.9662 168.956C63.129 169.295 63.2184 169.664 63.2287 170.04C63.239 170.415 63.1699 170.789 63.0259 171.136C62.8819 171.483 62.6663 171.796 62.3929 172.055C62.1196 172.314 61.7946 172.513 61.4392 172.639C61.0837 172.764 60.7057 172.814 60.3296 172.785C59.9535 172.756 59.5878 172.649 59.2562 172.47C58.9245 172.291 58.6344 172.044 58.4045 171.746C58.1746 171.448 58.0102 171.106 57.9219 170.74C58.0238 170.744 58.1256 170.752 58.2275 170.762Z" fill="black"/>
<path opacity="0.1" d="M57.4582 178.677C57.9235 178.7 58.387 178.603 58.8032 178.395C59.2195 178.186 59.5744 177.874 59.833 177.488C60.0917 177.102 60.2453 176.656 60.2789 176.193C60.3125 175.73 60.2248 175.266 60.0246 174.847C59.8104 174.991 59.6263 175.175 59.4824 175.389C59.2902 175.678 59.1729 176.012 58.948 176.278C58.527 176.77 57.81 176.931 57.1583 176.9C56.5066 176.869 55.878 176.687 55.2359 176.628C55.1455 176.628 55.0552 176.613 54.9648 176.611C55.0984 177.178 55.414 177.687 55.864 178.06C56.3139 178.433 56.8736 178.649 57.4582 178.677Z" fill="black"/>
<path opacity="0.1" d="M64.0077 183.018C64.4689 183.041 64.9283 182.946 65.342 182.742C65.7556 182.537 66.1095 182.23 66.3696 181.85C66.6297 181.47 66.7872 181.03 66.8271 180.572C66.8669 180.114 66.7877 179.653 66.5972 179.234C66.373 179.379 66.1775 179.564 66.0204 179.78C65.8109 180.075 65.6802 180.414 65.4437 180.685C64.99 181.191 64.2249 181.369 63.5348 181.352C62.8447 181.335 62.2237 181.174 61.5586 181.124C61.7209 181.653 62.0434 182.118 62.4819 182.457C62.9203 182.796 63.4533 182.992 64.0077 183.018Z" fill="black"/>
<path opacity="0.1" d="M62.6758 188.235C62.9439 188.767 63.3818 189.194 63.9207 189.451C64.4596 189.707 65.0687 189.777 65.6523 189.651C66.2358 189.525 66.7606 189.209 67.144 188.753C67.5275 188.297 67.7477 187.727 67.7701 187.132C67.7893 186.761 67.7297 186.39 67.5952 186.043C67.3729 186.188 67.1734 186.364 67.0031 186.567C66.7455 186.88 66.5782 187.232 66.2803 187.525C65.7285 188.065 64.8385 188.291 64.0464 188.308C63.5885 188.31 63.1309 188.285 62.6758 188.235Z" fill="black"/>
<path d="M69.4139 192.197C69.4139 192.197 67.2839 192.132 66.6438 191.676C66.0036 191.22 63.3757 190.676 63.2085 191.408C63.0412 192.139 60.0077 195.046 62.4126 195.057C64.8175 195.069 67.999 194.674 68.6392 194.291C69.2793 193.908 69.4139 192.197 69.4139 192.197Z" fill="#656380"/>
<path opacity="0.2" d="M62.3684 194.803C64.7733 194.822 67.9549 194.42 68.597 194.037C69.0833 193.742 69.2775 192.679 69.3428 192.189H69.414C69.414 192.189 69.2794 193.899 68.645 194.295C68.0106 194.692 64.8214 195.076 62.4184 195.061C61.7244 195.061 61.4841 194.81 61.4976 194.445C61.588 194.661 61.8532 194.803 62.3684 194.803Z" fill="black"/>
<path d="M251.811 195.134C251.234 194.079 251.888 192.786 252.634 191.844C253.38 190.902 254.289 189.93 254.27 188.725C254.243 187.002 252.405 185.985 250.938 185.072C249.85 184.394 248.846 183.59 247.947 182.677C247.571 182.325 247.26 181.91 247.028 181.451C246.724 180.777 246.734 180.011 246.753 179.272C246.816 176.814 246.938 174.358 247.118 171.905" stroke="#3F3D56" stroke-width="4" stroke-miterlimit="10"/>
<path d="M244.336 171.769C244.356 171.319 244.491 170.882 244.726 170.497C244.961 170.113 245.29 169.793 245.681 169.569L246.285 170.758L246.268 169.318C246.556 169.232 246.856 169.196 247.156 169.211C247.687 169.237 248.198 169.419 248.625 169.735C249.052 170.05 249.376 170.484 249.556 170.983C249.735 171.481 249.762 172.022 249.634 172.536C249.506 173.049 249.227 173.514 248.834 173.87C248.441 174.227 247.95 174.459 247.424 174.538C246.899 174.618 246.361 174.54 245.88 174.315C245.398 174.09 244.995 173.728 244.719 173.275C244.444 172.822 244.31 172.298 244.334 171.769H244.336Z" fill="#6C63FF"/>
<path d="M249.147 189.958C249.415 190.49 249.853 190.917 250.392 191.174C250.93 191.43 251.54 191.501 252.123 191.374C252.707 191.248 253.231 190.932 253.615 190.476C253.998 190.02 254.219 189.45 254.241 188.855C254.26 188.484 254.201 188.113 254.066 187.766C253.873 187.253 253.526 186.811 253.073 186.5C252.619 186.189 252.081 186.024 251.531 186.027C250.981 186.03 250.444 186.202 249.995 186.518C249.545 186.834 249.203 187.279 249.016 187.795L250.702 189.16L248.849 188.731C248.848 189.158 248.95 189.579 249.147 189.958Z" fill="#6C63FF"/>
<path d="M250.48 184.741C251.152 184.791 251.819 184.589 252.348 184.173C252.878 183.758 253.231 183.159 253.339 182.496C253.447 181.833 253.301 181.154 252.93 180.594C252.56 180.033 251.991 179.631 251.337 179.468L251.35 180.576L250.739 179.372C250.024 179.339 249.325 179.59 248.796 180.07C248.266 180.55 247.95 181.22 247.917 181.932C247.884 182.644 248.136 183.34 248.618 183.867C249.1 184.395 249.772 184.709 250.487 184.743L250.48 184.741Z" fill="#6C63FF"/>
<path d="M243.929 180.4C244.643 180.434 245.341 180.183 245.869 179.704C246.398 179.225 246.714 178.557 246.747 177.846C246.781 177.135 246.53 176.44 246.049 175.913C245.568 175.387 244.897 175.073 244.183 175.039C243.678 175.014 243.177 175.132 242.737 175.38L243.214 176.682L242.232 175.744C241.706 176.223 241.393 176.89 241.361 177.599C241.348 177.847 241.371 178.095 241.43 178.336C241.564 178.904 241.881 179.413 242.332 179.786C242.783 180.158 243.344 180.374 243.929 180.4Z" fill="#6C63FF"/>
<path opacity="0.1" d="M244.698 172.485C245.321 172.554 245.927 172.747 246.551 172.785C247.176 172.824 247.862 172.674 248.258 172.192C248.472 171.929 248.578 171.6 248.756 171.317C248.928 171.052 249.161 170.833 249.437 170.679C249.6 171.018 249.689 171.387 249.699 171.763C249.71 172.138 249.641 172.512 249.497 172.859C249.353 173.206 249.137 173.52 248.864 173.778C248.59 174.037 248.265 174.236 247.91 174.362C247.554 174.488 247.176 174.538 246.8 174.508C246.424 174.479 246.059 174.372 245.727 174.193C245.395 174.014 245.105 173.767 244.875 173.469C244.645 173.172 244.481 172.829 244.393 172.464C244.494 172.467 244.596 172.475 244.698 172.485Z" fill="black"/>
<path opacity="0.1" d="M243.93 180.4C244.395 180.424 244.859 180.326 245.275 180.118C245.691 179.91 246.046 179.597 246.305 179.211C246.563 178.825 246.717 178.379 246.751 177.916C246.784 177.453 246.697 176.99 246.496 176.571C246.282 176.715 246.098 176.899 245.954 177.113C245.762 177.402 245.645 177.735 245.42 178.001C244.999 178.493 244.282 178.654 243.63 178.623C242.978 178.593 242.35 178.411 241.708 178.351C241.617 178.351 241.527 178.336 241.437 178.334C241.57 178.902 241.886 179.41 242.336 179.783C242.786 180.156 243.345 180.373 243.93 180.4Z" fill="black"/>
<path opacity="0.1" d="M250.479 184.741C250.941 184.764 251.4 184.669 251.814 184.465C252.227 184.261 252.581 183.954 252.841 183.574C253.101 183.194 253.259 182.753 253.299 182.295C253.339 181.837 253.259 181.376 253.069 180.957C252.845 181.103 252.649 181.287 252.492 181.503C252.283 181.798 252.152 182.137 251.915 182.409C251.462 182.914 250.697 183.092 250.006 183.075C249.316 183.058 248.695 182.897 248.03 182.847C248.193 183.376 248.515 183.841 248.954 184.18C249.392 184.519 249.925 184.715 250.479 184.741Z" fill="black"/>
<path opacity="0.1" d="M249.146 189.958C249.415 190.49 249.853 190.917 250.391 191.174C250.93 191.43 251.539 191.501 252.123 191.374C252.707 191.248 253.231 190.932 253.615 190.476C253.998 190.02 254.218 189.45 254.241 188.855C254.26 188.484 254.2 188.113 254.066 187.766C253.844 187.911 253.644 188.088 253.474 188.291C253.216 188.603 253.049 188.955 252.751 189.248C252.199 189.788 251.309 190.014 250.517 190.031C250.059 190.033 249.602 190.009 249.146 189.958Z" fill="black"/>
<path d="M255.885 193.92C255.885 193.92 253.755 193.855 253.114 193.399C252.474 192.943 249.846 192.4 249.679 193.131C249.512 193.863 246.478 196.769 248.883 196.781C251.288 196.792 254.47 196.398 255.11 196.015C255.75 195.632 255.885 193.92 255.885 193.92Z" fill="#656380"/>
<path opacity="0.2" d="M248.839 196.526C251.244 196.545 254.426 196.143 255.068 195.76C255.554 195.465 255.748 194.402 255.814 193.912H255.885C255.885 193.912 255.75 195.622 255.116 196.018C254.481 196.415 251.292 196.8 248.889 196.784C248.195 196.784 247.955 196.534 247.968 196.168C248.059 196.384 248.324 196.526 248.839 196.526Z" fill="black"/>
<path d="M192.327 125.406C191.055 124.972 189.774 124.57 188.482 124.2C188.695 123.333 188.893 122.462 189.076 121.586C191.986 107.511 190.083 96.1719 183.584 92.4402C177.351 88.8596 167.159 92.5933 156.863 101.514C155.848 102.397 154.856 103.304 153.889 104.233C153.239 103.614 152.579 103.007 151.909 102.412C141.122 92.871 130.316 88.852 123.815 92.5952C117.588 96.1853 115.741 106.845 118.365 120.184C118.621 121.506 118.915 122.819 119.247 124.125C117.719 124.558 116.241 125.019 114.826 125.511C102.178 129.894 94.1006 136.787 94.1006 143.927C94.1006 151.3 102.772 158.697 115.947 163.181C117.015 163.542 118.092 163.878 119.176 164.188C118.825 165.592 118.512 167.008 118.238 168.435C115.739 181.543 117.692 191.952 123.901 195.519C130.316 199.206 141.082 195.415 151.563 186.29C152.391 185.568 153.222 184.802 154.062 184.002C155.11 185.009 156.186 185.987 157.289 186.935C167.443 195.637 177.474 199.153 183.676 195.574C190.083 191.881 192.165 180.699 189.462 167.097C189.257 166.058 189.018 164.998 188.745 163.916C189.503 163.694 190.243 163.464 190.968 163.225C204.663 158.706 213.575 151.4 213.575 143.927C213.575 136.76 205.235 129.831 192.332 125.406H192.327Z" fill="#53C1DE"/>
<path d="M189.357 158.4C188.704 158.616 188.035 158.823 187.35 159.026C185.68 153.87 183.659 148.833 181.3 143.952C183.569 139.135 185.512 134.172 187.116 129.097C188.336 129.45 189.524 129.821 190.666 130.214C201.722 134.003 208.466 139.607 208.466 143.927C208.466 148.522 201.182 154.498 189.357 158.4ZM184.451 168.085C185.647 174.099 185.816 179.537 185.028 183.785C184.317 187.605 182.886 190.152 181.118 191.172C177.352 193.342 169.301 190.521 160.618 183.079C159.622 182.225 158.62 181.315 157.613 180.35C161.233 176.358 164.579 172.127 167.627 167.686C173.071 167.227 178.477 166.395 183.807 165.197C184.051 166.178 184.267 167.135 184.455 168.069L184.451 168.085ZM134.831 190.801C131.151 192.095 128.222 192.132 126.451 191.115C122.683 188.949 121.116 180.584 123.254 169.383C123.51 168.059 123.801 166.742 124.125 165.433C129.433 166.568 134.812 167.344 140.225 167.755C143.362 172.181 146.788 176.396 150.481 180.373C149.739 181.089 148.98 181.786 148.205 182.462C143.57 186.498 138.923 189.355 134.831 190.801ZM117.598 158.371C111.772 156.388 106.962 153.811 103.663 151C100.701 148.472 99.2051 145.962 99.2051 143.927C99.2051 139.594 105.691 134.066 116.507 130.311C117.865 129.84 119.236 129.411 120.618 129.023C122.225 134.154 124.17 139.174 126.441 144.049C124.142 148.995 122.173 154.086 120.547 159.29C119.555 159.008 118.572 158.702 117.598 158.371ZM123.375 119.208C121.13 107.779 122.62 99.1569 126.372 96.9971C130.369 94.6995 139.206 97.9775 148.522 106.216C149.118 106.743 149.716 107.294 150.314 107.863C146.647 111.816 143.248 116.007 140.138 120.408C134.776 120.887 129.451 121.712 124.196 122.876C123.89 121.661 123.616 120.439 123.375 119.21V119.208ZM174.916 131.881C173.749 129.872 172.538 127.888 171.285 125.93C175.097 126.411 178.748 127.047 182.177 127.828C181.076 131.305 179.8 134.725 178.353 138.073C177.25 135.986 176.104 133.922 174.916 131.881ZM153.893 111.495C156.377 114.193 158.724 117.014 160.923 119.947C156.218 119.726 151.512 119.726 146.803 119.947C149.124 116.899 151.502 114.065 153.893 111.497V111.495ZM132.747 131.916C131.574 133.942 130.45 135.993 129.373 138.07C127.887 134.56 126.616 131.108 125.578 127.774C128.987 127.008 132.622 126.394 136.409 125.921C135.138 127.892 133.916 129.89 132.743 131.916H132.747ZM136.517 162.293C132.82 161.893 129.147 161.304 125.511 160.529C126.566 157.138 127.866 153.611 129.385 150.025C130.465 152.104 131.593 154.157 132.77 156.183C133.967 158.249 135.215 160.286 136.513 162.293H136.517ZM154.037 176.716C151.615 174.124 149.202 171.252 146.849 168.148C149.137 168.239 151.467 168.284 153.839 168.284C156.274 168.284 158.678 168.23 161.05 168.123C158.86 171.105 156.518 173.973 154.033 176.716H154.037ZM178.392 149.843C179.914 153.26 181.256 156.753 182.413 160.309C178.733 161.134 175.011 161.766 171.264 162.203C172.526 160.208 173.749 158.189 174.932 156.146C176.134 154.071 177.287 151.97 178.392 149.843ZM170.51 153.608C168.7 156.737 166.79 159.807 164.779 162.817C161.235 163.07 157.572 163.2 153.839 163.2C150.106 163.2 146.505 163.085 143.022 162.859C140.96 159.86 139.012 156.785 137.18 153.636C135.347 150.487 133.648 147.291 132.084 144.047C133.656 140.789 135.35 137.591 137.164 134.455C138.977 131.32 140.907 128.256 142.957 125.264C146.511 124.996 150.152 124.856 153.835 124.856C157.519 124.856 161.183 124.998 164.733 125.266C166.76 128.249 168.682 131.3 170.5 134.42C172.319 137.54 174.036 140.723 175.651 143.969C174.055 147.239 172.343 150.45 170.516 153.6L170.51 153.608ZM181.039 96.844C185.039 99.1416 186.595 108.409 184.082 120.562C183.917 121.352 183.737 122.14 183.544 122.926C178.281 121.738 172.945 120.898 167.571 120.412C164.491 116.007 161.117 111.813 157.472 107.859C158.37 106.999 159.285 106.162 160.22 105.349C169.039 97.7037 177.283 94.6861 181.039 96.844Z" fill="#F9CD92"/>
<path d="M153.835 133.3C155.945 133.3 158.008 133.923 159.763 135.091C161.517 136.259 162.885 137.918 163.692 139.86C164.5 141.802 164.711 143.939 164.299 146C163.888 148.061 162.872 149.955 161.38 151.441C159.887 152.927 157.986 153.939 155.917 154.349C153.847 154.759 151.702 154.549 149.752 153.745C147.803 152.94 146.136 151.578 144.964 149.831C143.792 148.083 143.166 146.029 143.166 143.927C143.166 142.531 143.442 141.149 143.978 139.86C144.514 138.57 145.3 137.399 146.29 136.412C147.281 135.425 148.457 134.642 149.752 134.109C151.047 133.575 152.434 133.3 153.835 133.3Z" fill="#53C1DE"/>
<path d="M156.511 65.9061C156.511 66.5347 156.324 67.1492 155.973 67.6719C155.623 68.1946 155.124 68.602 154.541 68.8425C153.958 69.0831 153.317 69.1461 152.697 69.0234C152.078 68.9008 151.51 68.5981 151.064 68.1535C150.617 67.709 150.313 67.1427 150.19 66.5261C150.067 65.9096 150.13 65.2705 150.372 64.6897C150.613 64.109 151.022 63.6125 151.547 63.2633C152.072 62.914 152.689 62.7276 153.32 62.7276C153.74 62.7256 154.156 62.8064 154.544 62.9654C154.932 63.1245 155.284 63.3585 155.581 63.6541C155.878 63.9496 156.113 64.3008 156.272 64.6873C156.432 65.0739 156.513 65.4881 156.511 65.9061Z" fill="#3F3D56"/>
<path d="M150.771 66.7083C150.518 66.253 150.381 65.7429 150.372 65.2226C150.363 64.7023 150.482 64.1878 150.719 63.724C150.956 63.2603 151.304 62.8615 151.731 62.5626C152.159 62.2637 152.654 62.0738 153.172 62.0096C152.732 61.9942 152.294 62.0696 151.885 62.231C151.476 62.3923 151.105 62.6361 150.795 62.9471C150.485 63.2581 150.243 63.6296 150.085 64.0382C149.926 64.4468 149.853 64.8837 149.872 65.3214C149.891 65.7592 150 66.1884 150.193 66.582C150.387 66.9757 150.659 67.3253 150.995 67.6089C151.33 67.8925 151.721 68.104 152.142 68.23C152.563 68.3561 153.006 68.3941 153.443 68.3415C152.894 68.3213 152.36 68.1604 151.892 67.8743C151.424 67.5882 151.038 67.1865 150.771 66.7083Z" fill="#3F3D56"/>
<path d="M157.88 70.3329H149.331V83.6153H157.88V70.3329Z" fill="#3F3D56"/>
<path opacity="0.1" d="M157.88 70.3329H149.331V83.6153H157.88V70.3329Z" fill="black"/>
<path d="M135.827 118.522C135.827 118.522 134.914 121.021 132.751 121.362C130.588 121.703 129.331 122.269 129.331 122.269L134.46 125.561L137.196 125.22C137.196 125.22 137.538 121.701 138.678 120.906C139.818 120.112 135.827 118.522 135.827 118.522Z" fill="#A0616A"/>
<path d="M172.867 118.522C172.867 118.522 173.78 121.021 175.943 121.362C178.106 121.703 179.363 122.269 179.363 122.269L174.234 125.561L171.498 125.22C171.498 125.22 171.156 121.701 170.016 120.906C168.876 120.112 172.867 118.522 172.867 118.522Z" fill="#A0616A"/>
<path d="M147.906 96.4993C147.906 96.4993 146.54 97.1809 146.084 98.5442C146.084 98.5442 143.585 99.3388 142.208 101.495C142.208 101.495 140.498 103.312 140.271 104.219C140.044 105.127 137.429 110.576 137.429 110.576C137.429 110.576 134.807 119.091 133.44 119.999C133.44 119.999 137.772 119.091 138.569 123.405C138.569 123.405 139.594 123.405 140.734 119.432C141.874 115.459 144.609 110.576 144.609 110.576C144.609 110.576 145.521 107.172 146.318 106.603C147.116 106.035 148.37 103.425 149.51 104.114C150.65 104.803 158.172 103.999 158.172 103.999C158.172 103.999 162.613 106.036 162.724 107.398C162.836 108.759 163.635 108.874 163.749 110.009C163.862 111.145 168.08 120.112 168.08 120.112C168.08 120.112 168.878 122.601 169.106 123.175C169.106 123.175 171.605 117.159 174.92 120.565C174.92 120.565 174.804 118.294 173.78 116.927C172.755 115.56 168.309 104.895 168.309 104.895C168.309 104.895 167.853 103.306 167.397 102.852C166.942 102.398 163.407 98.7644 162.153 98.7644C162.153 98.7644 161.471 97.0622 160.673 96.8343L147.906 96.4993Z" fill="#3F3D56"/>
<path d="M137.649 124.425C136.758 124.781 135.791 124.902 134.84 124.774C133.889 124.647 132.988 124.277 132.224 123.7C131.481 123.132 130.667 122.662 129.803 122.302C128.594 121.816 127.149 121.456 126.708 122.269C125.911 123.746 136.395 127.378 136.395 127.378C136.395 127.378 137.764 126.583 137.649 124.425Z" fill="#3F3D56"/>
<path d="M171.044 124.425C171.934 124.781 172.902 124.902 173.852 124.774C174.803 124.647 175.705 124.277 176.469 123.7C177.212 123.132 178.025 122.662 178.889 122.302C180.098 121.816 181.544 121.456 181.984 122.269C182.782 123.746 172.297 127.378 172.297 127.378C172.297 127.378 170.929 126.583 171.044 124.425Z" fill="#3F3D56"/>
<path d="M151.632 77.8289C151.59 78.2233 151.459 78.6503 151.121 78.859C150.844 79.0314 150.494 79.018 150.175 79.0831C149.84 79.1666 149.53 79.3275 149.268 79.5527C149.007 79.7778 148.803 80.061 148.672 80.3793C148.416 81.0218 148.366 81.7273 148.528 82.3993C148.603 82.7285 148.701 83.0521 148.82 83.3682C149.154 84.3102 149.558 85.2446 150.183 86.0277C150.716 86.6503 151.315 87.2133 151.971 87.7069C152.376 88.0363 152.795 88.3713 153.295 88.5264C153.634 88.6155 153.983 88.6618 154.333 88.6643C154.766 88.6834 155.227 88.6968 155.602 88.4824C156.179 88.1511 156.35 87.4197 156.663 86.8319C156.929 86.3341 157.325 85.9109 157.573 85.4035C157.749 85.0036 157.878 84.5847 157.957 84.1551L158.49 81.8C158.682 80.9442 158.859 79.9791 158.376 79.2458C158.341 79.1861 158.292 79.1356 158.234 79.0984C158.141 79.0619 158.04 79.052 157.942 79.0697C157.329 79.1093 156.717 78.9703 156.183 78.6695C156.099 78.6263 156.024 78.5678 155.962 78.4972C155.885 78.3745 155.839 78.2353 155.827 78.0912C155.775 77.7994 155.693 77.5139 155.581 77.2392C155.55 77.1402 155.492 77.0515 155.414 76.9826C155.332 76.9315 155.239 76.9007 155.143 76.8926C154.32 76.7596 153.49 76.6733 152.657 76.6341C152.384 76.6207 151.973 76.5116 151.784 76.7528C151.596 76.9941 151.655 77.5417 151.632 77.8289Z" fill="#A0616A"/>
<path opacity="0.1" d="M151.632 77.8289C151.59 78.2233 151.459 78.6503 151.121 78.859C150.844 79.0314 150.494 79.018 150.175 79.0831C149.84 79.1666 149.53 79.3275 149.268 79.5527C149.007 79.7778 148.803 80.061 148.672 80.3793C148.416 81.0218 148.366 81.7273 148.528 82.3993C148.603 82.7285 148.701 83.0521 148.82 83.3682C149.154 84.3102 149.558 85.2446 150.183 86.0277C150.716 86.6503 151.315 87.2133 151.971 87.7069C152.376 88.0363 152.795 88.3713 153.295 88.5264C153.634 88.6155 153.983 88.6618 154.333 88.6643C154.766 88.6834 155.227 88.6968 155.602 88.4824C156.179 88.1511 156.35 87.4197 156.663 86.8319C156.929 86.3341 157.325 85.9109 157.573 85.4035C157.749 85.0036 157.878 84.5847 157.957 84.1551L158.49 81.8C158.682 80.9442 158.859 79.9791 158.376 79.2458C158.341 79.1861 158.292 79.1356 158.234 79.0984C158.141 79.0619 158.04 79.052 157.942 79.0697C157.329 79.1093 156.717 78.9703 156.183 78.6695C156.099 78.6263 156.024 78.5678 155.962 78.4972C155.885 78.3745 155.839 78.2353 155.827 78.0912C155.775 77.7994 155.693 77.5139 155.581 77.2392C155.55 77.1402 155.492 77.0515 155.414 76.9826C155.332 76.9315 155.239 76.9007 155.143 76.8926C154.32 76.7596 153.49 76.6733 152.657 76.6341C152.384 76.6207 151.973 76.5116 151.784 76.7528C151.596 76.9941 151.655 77.5417 151.632 77.8289Z" fill="black"/>
<path d="M150.088 79.1826C149.643 79.0502 149.182 78.9781 148.718 78.9682C147.618 78.9414 146.442 79.3186 145.807 80.2127C145.375 80.8582 145.217 81.6477 145.367 82.4089C145.52 83.163 145.864 83.8656 146.367 84.45C146.657 84.7572 146.915 85.0934 147.135 85.4533C147.439 86.0277 147.449 86.7151 147.532 87.368C147.724 88.9228 148.389 90.3837 148.652 91.9289C148.916 93.474 148.689 95.2643 147.464 96.2465C147.259 96.4112 147.009 96.5855 146.991 96.8478C146.964 97.2671 147.512 97.4452 147.933 97.4854C149.192 97.6041 150.484 97.7209 151.707 97.3973C152.213 97.2633 152.701 97.0546 153.216 96.9588C154.523 96.7157 155.838 97.2154 157.147 97.4547C158.095 97.6105 159.053 97.688 160.014 97.6864C160.237 97.7063 160.462 97.6769 160.673 97.6003C160.777 97.5595 160.866 97.4866 160.926 97.3923C160.986 97.298 161.015 97.1871 161.007 97.0756C160.965 96.9313 160.887 96.7997 160.781 96.6927C160.119 95.8789 159.917 94.7971 159.737 93.7651L159.131 90.2975C158.806 88.4441 158.504 86.4298 159.385 84.7659C160.017 83.5692 161.184 82.7268 161.851 81.5492C162.084 81.1933 162.189 80.7696 162.149 80.3468C162.049 79.7551 161.513 79.332 160.963 79.085C159.905 78.6123 158.704 78.5684 157.614 78.9624C157.634 79.7915 157.422 80.6301 157.286 81.4516L157.053 82.7919C156.935 83.5817 156.761 84.3623 156.532 85.1278C156.449 85.4341 156.307 85.7214 156.115 85.9741C155.91 86.2015 155.659 86.3834 155.379 86.5083C154.772 86.8038 154.105 86.9558 153.429 86.9525C153.137 86.957 152.846 86.9123 152.568 86.8204C152.121 86.6252 151.718 86.3426 151.382 85.9894C151.264 85.8893 151.159 85.7755 151.069 85.6505C150.973 85.4914 150.901 85.3192 150.855 85.1393C150.7 84.671 150.577 84.1924 150.488 83.7071C150.43 83.3356 150.411 82.9584 150.384 82.5832C150.309 81.4745 150.309 80.2491 150.088 79.1826Z" fill="#6C63FF"/>
<path d="M148.933 101.154C148.933 101.154 148.477 107.172 151.326 108.192C154.175 109.213 151.669 103.197 151.669 103.197L150.755 101.382L148.933 101.154Z" fill="#A0616A"/>
<path d="M158.62 101.154C158.62 101.154 159.076 107.172 156.227 108.192C153.378 109.213 155.884 103.197 155.884 103.197L156.798 101.382L158.62 101.154Z" fill="#A0616A"/>
<path opacity="0.1" d="M146.425 81.0686L145.514 82.5448C145.514 82.5448 146.311 87.6533 146.425 88.5609C146.523 89.2158 146.676 89.8613 146.882 90.4909C146.882 90.4909 146.996 93.2155 146.996 94.238C146.996 95.2605 147.573 96.9626 147.573 96.9626C147.653 97.9277 147.847 98.88 148.149 99.8002C148.605 101.049 149.06 102.525 149.06 102.525C149.06 102.525 149.637 100.936 151.909 103.319C152.164 103.062 152.307 102.716 152.307 102.354C152.307 101.993 152.164 101.647 151.909 101.389C151.909 101.389 151.227 98.3259 151.227 96.7348C151.227 95.1437 149.972 87.5442 149.972 87.5442C149.972 87.5442 149.157 78.905 146.425 81.0686Z" fill="black"/>
<path d="M146.197 80.9479L145.286 82.4242C145.286 82.4242 146.084 87.5326 146.197 88.4402C146.296 89.0952 146.45 89.7408 146.657 90.3703C146.657 90.3703 146.77 93.0949 146.77 94.1154C146.77 95.136 147.347 96.8401 147.347 96.8401C147.427 97.8052 147.62 98.7576 147.924 99.6777C148.379 100.928 148.837 102.402 148.837 102.402C148.837 102.402 149.413 100.813 151.686 103.197C151.94 102.94 152.082 102.594 152.082 102.233C152.082 101.872 151.94 101.526 151.686 101.269C151.686 101.269 151.001 98.2053 151.001 96.6141C151.001 95.023 149.748 87.4235 149.748 87.4235C149.748 87.4235 148.933 78.7901 146.197 80.9479Z" fill="#6C63FF"/>
<path opacity="0.1" d="M161.242 80.1534L161.819 80.8293C161.819 80.8293 162.49 84.6932 161.008 89.5757L160.552 94.0025C160.552 94.0025 159.754 97.7496 159.641 98.6572C159.527 99.5648 159.527 99.6777 159.299 100.019C159.229 100.098 159.191 100.2 159.191 100.306C159.191 100.411 159.229 100.513 159.299 100.593L158.614 103.082C158.614 103.082 157.59 101.834 155.538 103.423C155.538 103.423 154.962 102.515 155.423 101.721C155.884 100.926 155.879 100.585 155.765 100.357C155.652 100.13 156.221 98.9961 156.221 98.7682C156.221 98.5404 157.024 93.3228 157.024 93.3228C157.024 93.3228 157.367 88.2143 157.709 86.5122C157.918 85.4648 157.914 83.1308 157.878 81.488C157.841 79.7762 159.921 78.8495 161.146 80.0519C161.175 80.0826 161.209 80.1113 161.242 80.1534Z" fill="black"/>
<path d="M161.584 79.9198L162.161 80.5957C162.161 80.5957 162.832 84.4615 161.35 89.3421L160.894 93.7689C160.894 93.7689 160.096 97.516 159.983 98.4236C159.869 99.3312 159.868 99.4461 159.641 99.7869C159.571 99.8664 159.533 99.9685 159.533 100.074C159.533 100.18 159.571 100.282 159.641 100.361L158.96 102.858C158.96 102.858 157.936 101.608 155.884 103.197C155.884 103.197 155.308 102.289 155.771 101.495C156.234 100.7 156.227 100.359 156.113 100.133C156 99.9075 156.569 98.7702 156.569 98.5442C156.569 98.3183 157.367 93.095 157.367 93.095C157.367 93.095 157.709 87.9865 158.051 86.2824C158.393 84.5783 158.164 79.4718 158.164 79.4718C158.164 79.4718 159.989 78.2234 161.584 79.9198Z" fill="#6C63FF"/>
<path d="M153.947 78.3383C156.465 78.3383 158.506 76.3049 158.506 73.7966C158.506 71.2883 156.465 69.2549 153.947 69.2549C151.428 69.2549 149.387 71.2883 149.387 73.7966C149.387 76.3049 151.428 78.3383 153.947 78.3383Z" fill="#A0616A"/>
<path opacity="0.1" d="M156.324 66.9783C156.105 67.5877 155.704 68.1159 155.176 68.4923C154.647 68.8686 154.015 69.0752 153.365 69.0844C152.715 69.0935 152.078 68.9048 151.539 68.5435C151 68.1822 150.584 67.6655 150.348 67.0625C152.128 66.3483 153.946 66.984 153.946 66.984C154.856 66.6662 155.644 66.6949 156.324 66.9783Z" fill="black"/>
<path d="M153.946 67.2119C153.946 67.2119 145.171 64.1483 147.337 79.018C147.337 79.018 149.275 80.2664 150.755 79.4718C150.755 79.4718 149.731 69.1419 153.719 69.5957C157.708 70.0495 157.024 79.2458 157.024 79.2458C157.024 79.2458 159.304 79.9256 159.988 78.6714C160.673 77.4173 159.76 65.1765 153.946 67.2119Z" fill="#3F3D56"/>
<path opacity="0.1" d="M153.72 68.914C150.982 68.6038 150.606 73.3696 150.644 76.391C150.677 73.3868 151.184 69.3065 153.72 69.5957C156.567 69.9192 157.034 74.7003 157.067 77.4077C157.099 74.9224 156.826 69.2682 153.72 68.914Z" fill="black"/>
<path opacity="0.1" d="M147.338 78.3363C147.139 77.0347 147.026 75.7216 146.998 74.4054C146.988 75.9495 147.102 77.4918 147.338 79.0179C147.338 79.0179 149.276 80.2663 150.756 79.4717C150.756 79.4717 150.733 79.2266 150.706 78.815C149.231 79.556 147.338 78.3363 147.338 78.3363Z" fill="black"/>
<path opacity="0.1" d="M159.989 78.0051C159.35 79.1692 157.33 78.658 157.057 78.5795C157.044 79.0008 157.024 79.2535 157.024 79.2535C157.024 79.2535 159.304 79.9332 159.989 78.6791C160.129 78.4225 160.202 77.6968 160.181 76.7261C160.162 77.3484 160.094 77.8136 159.989 78.0051Z" fill="black"/>
<path d="M207.929 190.853C208.84 189.171 207.806 187.111 206.618 185.612C205.43 184.113 203.979 182.548 204.009 180.634C204.053 177.886 206.979 176.266 209.319 174.809C211.053 173.729 212.653 172.448 214.084 170.993C214.661 170.409 215.213 169.785 215.549 169.038C216.034 167.966 216.02 166.741 215.99 165.569C215.888 161.649 215.696 157.734 215.413 153.824" stroke="#3F3D56" stroke-width="4" stroke-miterlimit="10"/>
<path d="M219.85 153.617C219.817 152.9 219.603 152.203 219.228 151.59C218.853 150.976 218.329 150.467 217.705 150.109L216.743 152.005L216.772 149.707C215.898 149.45 214.964 149.475 214.105 149.781C213.247 150.087 212.508 150.656 211.995 151.407C211.483 152.159 211.223 153.053 211.254 153.96C211.285 154.868 211.605 155.742 212.168 156.457C212.73 157.172 213.507 157.69 214.384 157.937C215.262 158.183 216.195 158.146 217.05 157.83C217.905 157.513 218.636 156.935 219.139 156.177C219.642 155.42 219.89 154.522 219.848 153.615L219.85 153.617Z" fill="#6C63FF"/>
<path d="M212.184 182.604C211.733 183.478 210.994 184.17 210.091 184.565C209.188 184.961 208.176 185.035 207.225 184.775C206.274 184.516 205.441 183.938 204.867 183.14C204.292 182.341 204.011 181.37 204.07 180.39C204.129 179.409 204.525 178.479 205.191 177.754C205.857 177.03 206.753 176.556 207.729 176.411C208.704 176.267 209.7 176.461 210.549 176.961C211.398 177.461 212.048 178.236 212.391 179.157L209.7 181.334L212.655 180.651C212.656 181.33 212.495 182 212.184 182.604Z" fill="#6C63FF"/>
<path d="M210.06 174.288C209.008 174.333 207.976 173.991 207.16 173.328C206.344 172.666 205.8 171.728 205.632 170.693C205.464 169.657 205.683 168.597 206.248 167.711C206.813 166.826 207.684 166.178 208.697 165.89L208.674 167.656L209.646 165.741H209.658C210.224 165.711 210.791 165.792 211.326 165.981C211.861 166.17 212.353 166.462 212.774 166.841C213.194 167.22 213.536 167.678 213.778 168.189C214.02 168.7 214.159 169.254 214.185 169.818C214.212 170.382 214.126 170.947 213.933 171.478C213.739 172.009 213.442 172.497 213.059 172.913C212.675 173.33 212.213 173.666 211.698 173.904C211.183 174.142 210.627 174.276 210.06 174.298V174.288Z" fill="#6C63FF"/>
<path d="M220.498 167.37C219.833 167.401 219.169 167.278 218.56 167.01C217.951 166.743 217.413 166.338 216.987 165.828C216.562 165.317 216.262 164.716 216.11 164.07C215.958 163.424 215.958 162.752 216.111 162.107C216.264 161.462 216.566 160.861 216.992 160.351C217.418 159.841 217.957 159.437 218.567 159.171C219.176 158.904 219.84 158.782 220.505 158.814C221.17 158.846 221.818 159.031 222.399 159.355L221.63 161.429L223.193 159.936C223.818 160.507 224.26 161.251 224.462 162.072C224.665 162.893 224.618 163.756 224.329 164.551C224.04 165.346 223.521 166.038 222.837 166.54C222.153 167.042 221.336 167.331 220.488 167.37H220.498Z" fill="#6C63FF"/>
<path opacity="0.1" d="M219.273 154.758C218.279 154.867 217.314 155.176 216.319 155.237C215.323 155.298 214.229 155.061 213.6 154.28C213.26 153.864 213.091 153.339 212.805 152.886C212.532 152.464 212.161 152.116 211.722 151.871C211.445 152.414 211.287 153.01 211.259 153.618C211.232 154.227 211.334 154.834 211.561 155.4C211.788 155.966 212.133 156.477 212.574 156.899C213.014 157.322 213.54 157.645 214.117 157.849C214.693 158.053 215.307 158.132 215.916 158.081C216.526 158.03 217.117 157.85 217.651 157.553C218.185 157.256 218.649 156.849 219.013 156.359C219.377 155.869 219.631 155.308 219.76 154.712C219.596 154.73 219.435 154.741 219.273 154.758Z" fill="black"/>
<path opacity="0.1" d="M220.497 167.37C219.756 167.404 219.019 167.247 218.357 166.913C217.695 166.58 217.131 166.081 216.719 165.466C216.308 164.852 216.063 164.141 216.008 163.404C215.953 162.668 216.09 161.929 216.407 161.261C216.749 161.489 217.043 161.783 217.272 162.124C217.577 162.584 217.764 163.116 218.123 163.539C218.792 164.322 219.938 164.579 220.976 164.533C222.014 164.487 223.014 164.192 224.052 164.096C224.196 164.085 224.34 164.075 224.486 164.071C224.272 164.979 223.767 165.792 223.047 166.387C222.327 166.982 221.432 167.328 220.497 167.37Z" fill="black"/>
<path opacity="0.1" d="M210.059 174.288C209.325 174.323 208.595 174.169 207.937 173.842C207.28 173.516 206.718 173.027 206.304 172.422C205.891 171.817 205.639 171.117 205.574 170.389C205.51 169.66 205.633 168.927 205.933 168.259C206.288 168.491 206.596 168.786 206.843 169.13C207.177 169.599 207.385 170.139 207.777 170.574C208.502 171.378 209.72 171.661 210.82 171.635C211.885 171.612 212.91 171.351 213.969 171.271C213.709 172.114 213.193 172.856 212.493 173.396C211.793 173.936 210.943 174.248 210.059 174.288Z" fill="black"/>
<path opacity="0.1" d="M212.183 182.604C211.685 183.588 210.825 184.343 209.782 184.712C208.739 185.081 207.593 185.035 206.583 184.583C205.574 184.132 204.777 183.311 204.36 182.29C203.943 181.269 203.937 180.127 204.344 179.102C204.698 179.333 205.016 179.616 205.287 179.941C205.697 180.436 205.966 180.999 206.441 181.461C207.319 182.321 208.738 182.675 210.001 182.707C210.73 182.715 211.458 182.681 212.183 182.604Z" fill="black"/>
<path d="M201.445 188.917C201.445 188.917 204.838 188.813 205.867 188.088C206.895 187.362 211.088 186.497 211.342 187.659C211.595 188.821 216.442 193.445 212.611 193.476C208.779 193.506 203.708 192.882 202.687 192.262C201.666 191.641 201.445 188.917 201.445 188.917Z" fill="#656380"/>
<path opacity="0.2" d="M212.672 193.079C208.841 193.11 203.769 192.484 202.749 191.865C201.98 191.392 201.663 189.702 201.559 188.921H201.445C201.445 188.921 201.661 191.647 202.681 192.266C203.702 192.884 208.773 193.51 212.605 193.48C213.71 193.48 214.093 193.079 214.072 192.499C213.918 192.846 213.497 193.064 212.672 193.079Z" fill="black"/>
<path d="M111.093 70.2064L107.585 72.4217L109.715 68.5636C109.113 68.0849 108.369 67.8195 107.6 67.8092H107.542C107.299 67.8126 107.056 67.7947 106.816 67.7556L105.626 68.5062L106.135 67.5833C105.293 67.2902 104.565 66.7401 104.055 66.0113L101.927 67.3516L103.273 64.9161C102.027 63.4283 100.351 62.515 98.5032 62.515C96.2905 62.515 94.3201 63.8266 93.0474 65.8696C92.6711 66.4804 92.1393 66.9814 91.506 67.3217C90.8727 67.6619 90.1603 67.8295 89.4411 67.8073H89.3219C86.8785 67.8073 84.9004 70.5664 84.9004 73.9707C84.9004 77.3751 86.8804 80.1323 89.3219 80.1323C89.8581 80.1307 90.3859 79.9993 90.8598 79.7493C92.4534 78.9241 94.545 78.9088 96.2136 79.646C96.929 79.9664 97.7043 80.133 98.4887 80.1346C99.2731 80.1363 100.049 79.973 100.766 79.6555C102.423 78.9337 104.489 78.949 106.074 79.7589C106.543 80.0066 107.066 80.1379 107.598 80.1419C110.041 80.1419 112.019 77.3828 112.019 73.9803C112.034 72.6648 111.715 71.3668 111.093 70.2064Z" fill="#F2F2F2"/>
<path opacity="0.03" d="M104.478 79.2229C103.201 78.9811 101.882 79.1238 100.687 79.6326C99.9704 79.9498 99.1948 80.1129 98.4107 80.1113C97.6266 80.1096 96.8517 79.9432 96.1366 79.623C94.466 78.8859 92.3745 78.9012 90.7808 79.7264C90.3069 79.9764 89.7791 80.1078 89.2429 80.1094C87.0725 80.1094 85.2674 77.9304 84.8906 75.0584C85.3242 74.7438 85.6924 74.3484 85.9748 73.8942C87.2552 71.8531 89.2179 70.5377 91.4306 70.5377C93.6432 70.5377 95.5906 71.834 96.8632 73.854C97.243 74.4643 97.7745 74.9667 98.4063 75.3125C99.0381 75.6584 99.7488 75.8359 100.47 75.8281H100.52C102.25 75.83 103.749 77.2105 104.478 79.2229Z" fill="black"/>
<path d="M202.804 74.7175L201.06 75.8223L202.123 73.9076C201.823 73.6658 201.45 73.531 201.064 73.5247H201.037C200.915 73.5264 200.794 73.5174 200.674 73.4979L200.08 73.8808L200.33 73.4098C199.909 73.264 199.546 72.99 199.292 72.6267L198.23 73.2968L198.901 72.0829C198.619 71.72 198.259 71.4242 197.848 71.2169C197.437 71.0096 196.984 70.896 196.523 70.8843C195.418 70.8843 194.436 71.5391 193.801 72.5577C193.613 72.8611 193.347 73.1095 193.031 73.2776C192.715 73.4457 192.36 73.5277 192.002 73.5151H191.942C190.723 73.5151 189.735 74.8918 189.735 76.5786C189.735 78.2655 190.723 79.6518 191.942 79.6518C192.21 79.6508 192.474 79.5851 192.711 79.4603C193.126 79.2596 193.58 79.151 194.041 79.1421C194.502 79.1331 194.959 79.2241 195.381 79.4086C195.739 79.567 196.125 79.6489 196.517 79.6489C196.908 79.6489 197.294 79.567 197.652 79.4086C198.071 79.2278 198.524 79.1388 198.981 79.1477C199.438 79.1566 199.887 79.2632 200.299 79.4603C200.536 79.5852 200.8 79.6509 201.068 79.6518C202.287 79.6518 203.275 78.277 203.275 76.5786C203.277 75.9288 203.115 75.2889 202.804 74.7175Z" fill="#F2F2F2"/>
<path opacity="0.03" d="M199.507 79.2152C198.87 79.0955 198.213 79.1668 197.617 79.4201C197.26 79.5785 196.873 79.6603 196.482 79.6603C196.091 79.6603 195.704 79.5785 195.347 79.4201C194.924 79.2355 194.466 79.1445 194.005 79.1535C193.544 79.1624 193.09 79.271 192.675 79.4717C192.438 79.5971 192.174 79.6628 191.906 79.6632C190.821 79.6632 189.922 78.5776 189.733 77.1454C189.949 76.9898 190.133 76.7949 190.276 76.571C190.91 75.5523 191.894 74.8994 192.998 74.8994C194.101 74.8994 195.072 75.5447 195.706 76.5518C195.896 76.8565 196.161 77.1072 196.476 77.2796C196.791 77.4521 197.146 77.5404 197.506 77.536H197.534C198.398 77.5226 199.138 78.2119 199.507 79.2152Z" fill="black"/>
<path d="M88.2823 103.331L91.1005 105.108L89.3934 102.016C89.8775 101.632 90.4761 101.42 91.0947 101.412H91.139C91.3321 101.415 91.525 101.401 91.7157 101.37L92.6672 101.972L92.2539 101.232C92.9281 100.996 93.511 100.556 93.9206 99.9726L95.6258 101.049L94.5608 99.0976C95.5585 97.9066 96.9022 97.1829 98.3806 97.1829C100.155 97.1829 101.733 98.2321 102.754 99.8635C103.055 100.352 103.48 100.753 103.986 101.026C104.493 101.299 105.062 101.433 105.638 101.416H105.734C107.691 101.416 109.277 103.626 109.277 106.352C109.277 109.079 107.691 111.29 105.734 111.29C105.303 111.289 104.879 111.183 104.498 110.982C103.831 110.66 103.103 110.485 102.362 110.471C101.622 110.457 100.887 110.603 100.209 110.9C99.6342 111.156 99.0119 111.288 98.3825 111.288C97.7531 111.288 97.1308 111.156 96.5562 110.9C95.8829 110.609 95.1547 110.466 94.4211 110.481C93.6874 110.495 92.9654 110.666 92.3039 110.982C91.9268 111.178 91.5083 111.281 91.0832 111.283C89.1243 111.283 87.5383 109.073 87.5383 106.345C87.5291 105.294 87.7849 104.258 88.2823 103.331Z" fill="#F2F2F2"/>
<path opacity="0.03" d="M93.5781 110.555C94.601 110.363 95.6581 110.478 96.6155 110.885C97.1901 111.14 97.8124 111.273 98.4418 111.273C99.0711 111.273 99.6934 111.14 100.268 110.885C100.947 110.588 101.682 110.442 102.422 110.456C103.163 110.47 103.892 110.644 104.559 110.967C104.939 111.168 105.363 111.273 105.793 111.275C107.533 111.275 108.978 109.531 109.28 107.229C108.933 106.976 108.638 106.659 108.411 106.295C107.39 104.66 105.812 103.614 104.038 103.614C102.263 103.614 100.706 104.652 99.6855 106.272C99.3818 106.76 98.9568 107.162 98.4517 107.438C97.9466 107.715 97.3784 107.857 96.802 107.852H96.7577C95.3621 107.838 94.1625 108.945 93.5781 110.555Z" fill="black"/>
</g>
</g>
<defs>
<clipPath id="clip0_3002_699">
<rect width="224" height="224" fill="white" transform="translate(43 25)"/>
</clipPath>
<clipPath id="clip1_3002_699">
<rect width="213" height="140" fill="white" transform="translate(49 62)"/>
</clipPath>
</defs>
</svg>
