<svg width="306" height="266" viewBox="0 0 306 266" fill="none" xmlns="http://www.w3.org/2000/svg">
<rect width="306" height="266" rx="10" fill="#F3F3F3"/>
<rect width="306" height="266" rx="10" fill="#82B352"/>
<g clip-path="url(#clip0_3002_936)">
<g clip-path="url(#clip1_3002_936)">
<path d="M78.8493 211.928C95.3346 211.928 108.699 198.547 108.699 182.041C108.699 165.535 95.3346 152.154 78.8493 152.154C62.364 152.154 49 165.535 49 182.041C49 198.547 62.364 211.928 78.8493 211.928Z" fill="#F2F2F2"/>
<path d="M114.957 195.297C100.366 195.297 86.2256 190.232 74.9463 180.963C63.6671 171.695 55.9463 158.798 53.0997 144.468C50.253 130.139 52.4566 115.265 59.3348 102.381C66.2131 89.4958 77.3405 79.3976 90.8211 73.8067C104.302 68.2157 119.301 67.4779 133.264 71.7189C147.227 75.9598 159.29 84.9173 167.396 97.0649C175.503 109.213 179.152 123.799 177.722 138.338C176.292 152.878 169.871 166.471 159.553 176.802C153.71 182.684 146.76 187.347 139.105 190.522C131.45 193.697 123.242 195.32 114.957 195.297ZM114.957 69.4821C80.4462 69.4821 52.3697 97.5941 52.3697 132.149C52.3697 166.703 80.4462 194.815 114.957 194.815C149.467 194.815 177.544 166.703 177.544 132.149C177.544 97.5941 149.467 69.4821 114.957 69.4821Z" fill="#2F2E41"/>
<path d="M147.815 152.136L147.808 152.14L116.724 169.471L82.6852 152.43L82.0986 152.136L83.8652 116.76L114.604 94.8265L114.943 95.0389L146.755 114.991L147.815 152.136Z" fill="#6C63FF"/>
<path opacity="0.3" d="M147.809 152.14L116.724 169.471L82.6855 152.43L112.837 131.264L147.809 152.14Z" fill="black"/>
<path opacity="0.1" d="M147.815 152.136L112.837 131.264L114.943 95.0389L146.755 114.991L147.815 152.136Z" fill="black"/>
<path d="M83.413 127.676L83.2402 127.431L114.322 105.465L147.155 126.076L146.996 126.331L114.331 105.825L83.413 127.676Z" fill="#F2F2F2"/>
<path d="M82.8106 139.695L82.6426 139.447L113.566 118.425L113.647 118.471L147.183 137.502L147.035 137.762L113.581 118.778L82.8106 139.695Z" fill="#F2F2F2"/>
<path d="M94.6099 158.487L94.4521 158.233L125.618 138.896V101.828H125.917V139.063L94.6099 158.487Z" fill="#F2F2F2"/>
<path d="M106.842 164.611L106.683 164.357L136.692 145.511V108.773H136.991V145.677L106.842 164.611Z" fill="#F2F2F2"/>
<path d="M136.58 158.491L101.679 139.075L101.684 138.982L103.521 102.621L103.82 102.636L101.987 138.903L136.725 158.229L136.58 158.491Z" fill="#F2F2F2"/>
<path d="M125.599 164.617L91.0898 146.51L91.0952 146.413L93.1295 110.035L93.4284 110.052L91.3997 146.334L125.738 164.351L125.599 164.617Z" fill="#F2F2F2"/>
<path d="M153.713 94.7897C160.36 94.7897 165.749 89.3942 165.749 82.7385C165.749 76.0827 160.36 70.6872 153.713 70.6872C147.065 70.6872 141.677 76.0827 141.677 82.7385C141.677 89.3942 147.065 94.7897 153.713 94.7897Z" fill="#3F3D56"/>
<path d="M263 211.446H55.9805V211.928H263V211.446Z" fill="#2F2E41"/>
<path d="M238.965 146.623L241.716 154.168C241.716 154.168 238.845 162.791 241.716 163.031C244.587 163.271 244.946 154.767 244.946 154.767L243.391 145.665L238.965 146.623Z" fill="#FFB9B9"/>
<path d="M240.281 121.951L242.314 123.987V133.688C242.314 133.688 243.511 135.484 243.271 135.963C243.032 136.442 242.793 136.442 243.032 136.802C243.271 137.161 243.511 137.401 243.271 137.64C243.155 137.796 243.092 137.985 243.092 138.179C243.092 138.373 243.155 138.563 243.271 138.718C243.511 138.958 243.989 139.317 243.63 139.676C243.271 140.036 242.793 139.796 243.271 141.113C243.75 142.431 244.587 142.79 244.348 143.269C244.109 143.748 244.109 144.946 244.109 144.946L238.965 145.665L237.889 132.131L240.281 121.951Z" fill="#D0CDE1"/>
<path d="M244.348 144.826L238.367 145.066L238.607 147.581L243.87 146.623L244.348 144.826Z" fill="#3F3D56"/>
<path d="M227.9 109.435L227.183 116.621L234.479 117.699L235.017 113.567L235.556 109.435H227.9Z" fill="#FFB9B9"/>
<path opacity="0.1" d="M227.9 109.435L227.183 116.621L234.479 117.699L235.017 113.567L235.556 109.435H227.9Z" fill="black"/>
<path d="M212.052 143.629L216.119 152.372C216.119 152.372 216.836 156.444 217.913 156.564C218.99 156.683 220.066 152.372 220.066 152.372L218.631 150.096L216.956 143.629L212.052 143.629Z" fill="#FFB9B9"/>
<path d="M220.544 151.533L217.195 156.803C217.195 156.803 213.965 206.986 214.444 206.627C214.922 206.267 216.477 206.147 217.075 205.189C217.674 204.231 221.382 205.189 221.382 205.189L223.535 202.914V201.117C223.535 200.758 227.841 173.331 227.841 173.331V180.278C227.841 180.278 226.525 205.788 228.678 205.549C230.831 205.309 235.257 203.872 235.257 203.872C235.257 203.872 241.597 156.204 239.683 154.408C237.769 152.611 236.932 148.539 236.932 148.539L220.544 151.533Z" fill="#2F2E41"/>
<path d="M231.908 111.77C235.079 111.77 237.649 109.196 237.649 106.021C237.649 102.846 235.079 100.273 231.908 100.273C228.737 100.273 226.166 102.846 226.166 106.021C226.166 109.196 228.737 111.77 231.908 111.77Z" fill="#FFB9B9"/>
<path d="M219.109 117.759L218.272 117.28C218.272 117.28 214.564 119.795 213.368 125.424C212.171 131.053 211.334 132.49 211.334 132.49C211.334 132.49 210.138 132.73 210.975 133.568C211.813 134.406 211.813 134.287 211.095 134.766C210.377 135.245 209.899 134.287 210.377 135.245C210.856 136.203 211.454 135.963 210.975 136.562C210.497 137.161 209.66 137.161 210.138 137.64C210.616 138.119 209.66 139.197 210.258 139.676C210.856 140.155 211.095 140.275 211.095 141.113C211.091 141.603 211.172 142.089 211.334 142.551H217.554C217.554 142.551 216.358 140.275 216.717 139.796C217.076 139.317 217.195 138.838 216.956 138.598C216.717 138.359 215.999 138.838 216.717 138.239C217.435 137.64 217.674 137.999 217.435 137.281C217.195 136.562 216.717 136.922 217.195 136.562C217.674 136.203 218.033 136.323 217.793 135.963C217.554 135.604 217.076 135.604 217.554 135.365C218.033 135.125 218.391 135.365 218.272 134.766C218.152 134.167 218.033 134.406 218.272 134.167C218.511 133.927 221.023 125.783 221.023 125.544C221.023 125.304 219.109 117.759 219.109 117.759Z" fill="#D0CDE1"/>
<path d="M217.913 142.072L210.377 142.551L212.291 144.347L217.554 144.467L217.913 142.072Z" fill="#3F3D56"/>
<path d="M220.066 151.054L218.511 153.929C218.511 153.929 223.176 154.527 224.85 155.126C226.525 155.725 230.831 156.563 230.831 156.563L231.908 152.372L220.066 151.054Z" fill="#3F3D56"/>
<path d="M233.702 152.372L235.018 156.324L240.281 155.246L239.683 151.533L233.702 152.372Z" fill="#3F3D56"/>
<path d="M235.855 113.687C235.855 113.687 235.496 113.447 234.659 113.926C233.822 114.405 231.07 114.645 229.755 113.208C228.439 111.77 227.482 110.573 227.123 110.812C226.764 111.052 226.525 113.806 226.525 113.806L225.329 114.765L218.271 117.28L218.87 133.448L219.946 137.161C219.946 137.161 219.109 140.036 220.185 141.712C221.262 143.389 219.587 143.988 219.587 143.988C219.587 143.988 219.228 144.467 219.468 145.665C219.707 146.862 219.228 151.294 219.228 151.294C219.228 151.294 229.396 155.845 240.042 151.893L238.845 147.341L238.247 137.161C238.247 137.161 238.845 135.484 238.726 134.766C238.606 134.047 242.314 123.987 242.314 123.987C242.314 123.987 241.716 118.956 238.606 117.878C235.496 116.801 235.018 115.723 235.018 115.723C235.018 115.723 236.453 114.166 235.855 113.687Z" fill="#D0CDE1"/>
<path d="M226.126 106.758C226.126 106.758 225.53 105.862 225.76 104.898C225.897 104.35 225.951 103.785 225.92 103.222C226.177 102.386 226.499 101.573 226.883 100.788C227.365 99.9155 227.135 99.5481 228.649 99.2725C230.162 98.997 229.543 97.0224 233.533 99.1577C233.668 99.3459 233.855 99.49 234.072 99.5717C234.288 99.6535 234.524 99.6692 234.749 99.617C235.574 99.4562 235.873 100.604 235.873 100.604C235.873 100.604 236.423 100.283 236.629 100.742C236.836 101.201 238.307 100.466 238.307 103.566C238.307 106.666 236.633 109.435 236.633 109.435C236.633 109.435 236.755 104.221 234.027 103.693C231.298 103.164 228.362 101.626 227.651 103.601C227.268 104.709 226.756 105.769 226.126 106.758Z" fill="#2F2E41"/>
<path d="M236.693 107.998C236.99 107.998 237.231 107.676 237.231 107.279C237.231 106.882 236.99 106.56 236.693 106.56C236.395 106.56 236.154 106.882 236.154 107.279C236.154 107.676 236.395 107.998 236.693 107.998Z" fill="#FFB9B9"/>
<path d="M233.642 203.447L234.483 205.974C234.483 205.974 234.483 208.501 235.324 209.765C236.166 211.028 237.007 213.766 233.642 213.976C230.277 214.187 228.805 212.923 228.805 212.923C228.805 212.923 229.436 211.239 228.805 210.607C228.174 209.975 228.805 208.712 228.805 208.712L229.436 203.658L233.642 203.447Z" fill="#F9CD92"/>
<path d="M217.255 203.447L216.414 205.974C216.414 205.974 216.414 208.501 215.573 209.765C214.731 211.028 213.89 213.766 217.255 213.976C220.62 214.187 222.092 212.923 222.092 212.923C222.092 212.923 221.461 211.239 222.092 210.607C222.723 209.975 222.092 208.712 222.092 208.712L221.461 203.658L217.255 203.447Z" fill="#2F2E41"/>
</g>
</g>
<defs>
<clipPath id="clip0_3002_936">
<rect width="224" height="224" fill="white" transform="translate(43 25)"/>
</clipPath>
<clipPath id="clip1_3002_936">
<rect width="214" height="145" fill="white" transform="translate(49 69)"/>
</clipPath>
</defs>
</svg>
