<svg width="306" height="266" viewBox="0 0 306 266" fill="none" xmlns="http://www.w3.org/2000/svg">
<rect width="306" height="266" rx="10" fill="#F3F3F3"/>
<rect width="306" height="266" rx="10" fill="#BAE2EF"/>
<g clip-path="url(#clip0_3002_1373)">
<g clip-path="url(#clip1_3002_1373)">
<path d="M265 162.383C265 152.296 256.788 128.36 246.658 128.36C236.528 128.36 228.316 152.296 228.316 162.383C228.32 167.228 230.254 171.873 233.693 175.298C237.132 178.723 241.796 180.647 246.658 180.647C251.52 180.647 256.184 178.723 259.623 175.298C263.063 171.873 264.996 167.228 265 162.383Z" fill="#F2F2F2"/>
<path d="M246.659 206.817C246.678 206.817 246.698 206.813 246.716 206.806C246.735 206.798 246.751 206.787 246.765 206.773C246.779 206.759 246.79 206.743 246.798 206.725C246.806 206.706 246.809 206.687 246.809 206.667V143.698C246.809 143.659 246.793 143.621 246.765 143.593C246.737 143.565 246.699 143.549 246.659 143.549C246.619 143.549 246.58 143.565 246.552 143.593C246.524 143.621 246.508 143.659 246.508 143.698V206.667C246.508 206.687 246.512 206.706 246.519 206.725C246.527 206.743 246.538 206.759 246.552 206.773C246.566 206.787 246.583 206.798 246.601 206.806C246.619 206.813 246.639 206.817 246.659 206.817Z" fill="#CCCCCC"/>
<path d="M246.659 155.855C246.678 155.855 246.698 155.851 246.716 155.844C246.735 155.836 246.751 155.825 246.765 155.811L254.025 148.582C254.053 148.554 254.069 148.516 254.069 148.476C254.069 148.436 254.053 148.398 254.025 148.37C253.996 148.342 253.958 148.326 253.918 148.326C253.878 148.326 253.84 148.342 253.812 148.37L246.552 155.599C246.531 155.62 246.517 155.646 246.511 155.676C246.505 155.705 246.508 155.735 246.519 155.762C246.531 155.79 246.55 155.813 246.575 155.83C246.6 155.846 246.629 155.855 246.659 155.855Z" fill="#CCCCCC"/>
<path d="M246.658 168.37C246.688 168.37 246.717 168.361 246.742 168.344C246.766 168.328 246.786 168.304 246.797 168.277C246.809 168.25 246.812 168.219 246.806 168.19C246.8 168.161 246.786 168.134 246.765 168.113L234.607 156.007C234.593 155.993 234.576 155.982 234.558 155.975C234.54 155.967 234.52 155.963 234.5 155.963C234.481 155.963 234.461 155.967 234.443 155.975C234.424 155.982 234.408 155.993 234.394 156.007C234.38 156.021 234.369 156.038 234.361 156.056C234.354 156.074 234.35 156.094 234.35 156.113C234.35 156.133 234.353 156.153 234.361 156.171C234.369 156.189 234.38 156.206 234.394 156.22L246.551 168.326C246.565 168.34 246.582 168.351 246.6 168.358C246.618 168.366 246.638 168.37 246.658 168.37Z" fill="#CCCCCC"/>
<path d="M262.662 207H202.676C202.62 207 202.567 206.978 202.527 206.939C202.488 206.9 202.466 206.846 202.466 206.791C202.466 206.736 202.488 206.682 202.527 206.643C202.567 206.604 202.62 206.582 202.676 206.582H262.662C262.718 206.582 262.771 206.604 262.81 206.643C262.85 206.682 262.872 206.736 262.872 206.791C262.872 206.846 262.85 206.9 262.81 206.939C262.771 206.978 262.718 207 262.662 207Z" fill="#CCCCCC"/>
<path d="M220.311 204.33L217.74 204.33L216.517 194.447L220.312 194.447L220.311 204.33Z" fill="#FFB8B8"/>
<path d="M215.904 203.598H220.863V206.709H212.781C212.781 205.884 213.11 205.093 213.696 204.509C214.281 203.926 215.076 203.598 215.904 203.598Z" fill="#2F2E41"/>
<path d="M238.969 201.428L236.63 202.492L231.396 194.009L234.849 192.438L238.969 201.428Z" fill="#FFB8B8"/>
<path d="M234.655 202.587L239.166 200.534L240.463 203.364L233.112 206.709C232.941 206.338 232.846 205.936 232.831 205.528C232.817 205.12 232.883 204.713 233.026 204.33C233.17 203.947 233.387 203.596 233.666 203.297C233.946 202.998 234.282 202.756 234.655 202.587Z" fill="#2F2E41"/>
<path d="M220.147 201.724H217.691C217.452 201.723 217.223 201.633 217.049 201.471C216.874 201.31 216.767 201.089 216.749 200.852L215.41 165.206C215.4 165.069 215.42 164.932 215.469 164.804C215.517 164.676 215.594 164.56 215.692 164.464C215.79 164.369 215.909 164.295 216.038 164.25C216.168 164.205 216.306 164.188 216.443 164.201L230.65 165.705C230.88 165.727 231.094 165.833 231.251 166.002C231.408 166.172 231.497 166.392 231.502 166.623L231.799 182.347C231.801 182.432 231.818 182.517 231.848 182.596L237.676 197.655C237.721 197.772 237.743 197.896 237.739 198.02C237.736 198.145 237.707 198.268 237.656 198.381C237.604 198.495 237.53 198.597 237.439 198.682C237.347 198.767 237.239 198.833 237.122 198.876L234.633 199.79C234.416 199.869 234.178 199.867 233.964 199.784C233.749 199.7 233.572 199.542 233.467 199.338L226.308 185.467C226.269 185.391 226.24 185.311 226.223 185.228L225 179.356C224.965 179.186 224.869 179.034 224.732 178.927C224.594 178.821 224.422 178.766 224.248 178.774C224.074 178.782 223.908 178.852 223.78 178.97C223.653 179.089 223.572 179.249 223.552 179.422L221.085 200.891C221.059 201.12 220.949 201.332 220.776 201.486C220.603 201.639 220.379 201.724 220.147 201.724Z" fill="#2F2E41"/>
<path d="M221.37 137.334C224.215 137.334 226.522 135.035 226.522 132.2C226.522 129.365 224.215 127.067 221.37 127.067C218.525 127.067 216.219 129.365 216.219 132.2C216.219 135.035 218.525 137.334 221.37 137.334Z" fill="#FFB8B8"/>
<path d="M224.923 168.458C220.366 168.458 216.798 166.568 215.506 165.777H215.506C215.36 165.687 215.241 165.559 215.162 165.406C215.084 165.254 215.049 165.083 215.062 164.912L216.315 147.069C216.395 145.865 216.757 144.696 217.372 143.656C217.987 142.617 218.837 141.735 219.855 141.081C220.828 140.44 221.938 140.034 223.096 139.896C224.254 139.759 225.428 139.893 226.524 140.289C227.008 140.455 227.465 140.691 227.881 140.989C230.656 143.049 231.993 146.15 231.55 149.498C230.632 156.441 231.672 165.806 231.794 166.851L231.803 166.926L231.734 166.958C229.6 167.946 227.275 168.458 224.923 168.458Z" fill="#6C63FF"/>
<path d="M231.481 171.007C231.727 170.822 231.93 170.586 232.075 170.315C232.22 170.043 232.303 169.744 232.319 169.437C232.335 169.13 232.283 168.823 232.167 168.539C232.052 168.254 231.875 167.998 231.649 167.789L234.672 160.954L230.831 161.603L228.55 167.993C228.222 168.395 228.054 168.902 228.076 169.418C228.099 169.935 228.311 170.426 228.672 170.797C229.033 171.169 229.519 171.395 230.036 171.434C230.554 171.473 231.068 171.321 231.481 171.007Z" fill="#FFB8B8"/>
<path d="M231.77 166.785C231.639 166.785 231.51 166.758 231.39 166.706C231.27 166.653 231.163 166.576 231.075 166.48L229.948 165.255C229.838 165.135 229.762 164.989 229.725 164.832C229.688 164.674 229.693 164.509 229.739 164.353L232.32 155.649L228.393 147.432C228.22 147.071 228.178 146.662 228.273 146.273C228.357 145.932 228.542 145.624 228.805 145.39C229.068 145.156 229.396 145.007 229.745 144.963C230.095 144.918 230.45 144.98 230.763 145.141C231.076 145.302 231.334 145.553 231.501 145.862L236.809 154.445C237.016 154.779 237.137 155.157 237.162 155.548C237.187 155.939 237.116 156.331 236.954 156.688L232.631 166.232C232.567 166.374 232.468 166.497 232.344 166.592C232.22 166.687 232.074 166.749 231.92 166.773C231.87 166.781 231.82 166.785 231.77 166.785Z" fill="#6C63FF"/>
<path d="M225.615 136.726C225.081 136.817 224.641 136.076 224.575 135.555C224.508 135.034 224.699 134.535 224.72 134.017C224.74 133.5 224.495 132.87 223.956 132.717C223.39 132.556 222.865 133.008 222.286 132.954C221.479 132.878 221.074 131.937 220.976 131.175C220.878 130.414 220.802 129.512 220.103 129.078C219.406 128.645 218.544 128.96 217.743 128.974C216.39 128.997 215.013 127.968 214.696 126.699C214.86 126.747 215.036 126.738 215.194 126.675C215.353 126.611 215.486 126.497 215.572 126.35C215.64 126.193 215.653 126.018 215.611 125.853C215.569 125.687 215.473 125.541 215.338 125.435L216.872 126.183C216.662 125.758 216.979 125.274 217.415 125.113C217.851 124.952 218.358 125.024 218.838 125.099C221.24 125.471 224.022 125.287 225.615 127.112C226.718 128.376 227.627 130.781 227.503 132.337C227.379 133.893 225.615 136.726 225.615 136.726Z" fill="#2F2E41"/>
<path d="M198.3 145.477C198.568 145.325 198.866 145.233 199.173 145.208C199.481 145.183 199.79 145.226 200.079 145.333C200.368 145.44 200.63 145.609 200.846 145.828C201.062 146.047 201.228 146.31 201.331 146.6L208.826 146.546L206.705 149.801L199.913 149.353C199.414 149.494 198.88 149.447 198.412 149.221C197.945 148.995 197.577 148.607 197.379 148.129C197.18 147.651 197.164 147.117 197.333 146.629C197.503 146.14 197.847 145.73 198.3 145.477Z" fill="#FFB8B8"/>
<path d="M202.199 149.025C202.173 148.897 202.173 148.766 202.2 148.638C202.228 148.511 202.281 148.391 202.358 148.285L203.331 146.936C203.427 146.805 203.554 146.7 203.702 146.632C203.85 146.564 204.013 146.535 204.175 146.548L212.942 146.182L220.525 141.784C220.845 141.543 221.238 141.418 221.64 141.431C221.992 141.443 222.332 141.562 222.615 141.77C222.899 141.979 223.112 142.268 223.227 142.6C223.342 142.932 223.353 143.291 223.259 143.629C223.166 143.968 222.971 144.27 222.701 144.496L215.351 151.425C215.066 151.694 214.718 151.89 214.339 151.994C213.96 152.098 213.561 152.108 213.177 152.023L202.919 149.752C202.767 149.719 202.625 149.648 202.507 149.546C202.388 149.444 202.297 149.315 202.242 149.169C202.224 149.122 202.21 149.074 202.199 149.025Z" fill="#6C63FF"/>
<path d="M165.976 101.947L163.105 106.901L153.286 89.9542L123.143 141.971H143.551C143.551 143.285 144.075 144.545 145.008 145.474C145.94 146.403 147.205 146.925 148.523 146.925H123.143C122.27 146.925 121.413 146.696 120.657 146.261C119.901 145.826 119.274 145.201 118.838 144.448C118.401 143.695 118.172 142.841 118.172 141.971C118.172 141.102 118.402 140.247 118.838 139.494L148.981 87.4771C149.417 86.724 150.045 86.0986 150.801 85.6638C151.557 85.2289 152.414 85 153.287 85C154.159 85 155.017 85.2289 155.773 85.6638C156.528 86.0986 157.156 86.724 157.592 87.4771L165.976 101.947Z" fill="#00C58E"/>
<path d="M187.736 139.494L168.847 106.901L165.976 101.947L163.105 106.901L144.219 139.494C143.782 140.247 143.553 141.102 143.553 141.971C143.553 142.841 143.782 143.695 144.219 144.448C144.655 145.201 145.282 145.826 146.038 146.261C146.794 146.696 147.651 146.925 148.523 146.925H183.425C184.298 146.926 185.155 146.697 185.911 146.262C186.667 145.827 187.295 145.202 187.731 144.449C188.168 143.696 188.398 142.841 188.398 141.972C188.398 141.102 188.168 140.248 187.731 139.494H187.736V139.494ZM148.523 141.971L165.976 111.855L183.425 141.971H148.523V141.971Z" fill="#2F495E"/>
<path d="M201.239 144.448C200.803 145.201 200.176 145.827 199.42 146.261C198.664 146.696 197.807 146.925 196.935 146.925H183.424C184.077 146.925 184.724 146.797 185.327 146.548C185.93 146.299 186.478 145.934 186.94 145.474C187.401 145.014 187.768 144.468 188.017 143.867C188.267 143.266 188.396 142.622 188.396 141.971H196.924L172.725 100.207L168.847 106.901L165.976 101.947L168.42 97.7299C168.856 96.9768 169.484 96.3513 170.24 95.9165C170.996 95.4817 171.853 95.2527 172.726 95.2527C173.598 95.2527 174.456 95.4817 175.212 95.9165C175.967 96.3513 176.595 96.9768 177.031 97.7299L201.239 139.494C201.676 140.247 201.905 141.102 201.905 141.971C201.905 142.841 201.676 143.695 201.239 144.448Z" fill="#108775"/>
<path d="M103.036 206.582C103.036 204.531 103.854 202.564 105.309 201.114C106.765 199.664 108.738 198.849 110.797 198.849C112.855 198.849 114.829 199.664 116.284 201.114C117.74 202.564 118.557 204.531 118.557 206.582" fill="#F2F2F2"/>
<path d="M98.1337 159.12L54.3718 170.199C53.8227 170.337 53.2409 170.253 52.7541 169.964C52.2673 169.676 51.9152 169.206 51.7751 168.66L45.3935 143.631C45.2918 143.23 45.3538 142.805 45.5659 142.45C45.7781 142.094 46.123 141.837 46.5251 141.735L91.3681 130.382C91.7774 130.279 92.211 130.342 92.5738 130.557C92.9366 130.772 93.199 131.122 93.3034 131.529L99.6783 156.532C99.8172 157.079 99.7326 157.659 99.443 158.144C99.1534 158.629 98.6826 158.98 98.1337 159.12Z" fill="#F2F2F2"/>
<path d="M55.8534 167.627L95.5995 157.565C96.132 157.43 96.589 157.09 96.8699 156.619C97.1508 156.149 97.2326 155.586 97.0973 155.056L92.2017 135.855C92.0664 135.324 91.7251 134.869 91.2528 134.589C90.7806 134.309 90.2162 134.228 89.6836 134.362L49.9375 144.425C49.405 144.559 48.948 144.899 48.6672 145.37C48.3863 145.841 48.3045 146.403 48.4398 146.934L53.3354 166.135C53.4707 166.665 53.812 167.121 54.2842 167.4C54.7564 167.68 55.3209 167.762 55.8534 167.627Z" fill="white"/>
<path d="M93.2376 131.393L45.3341 143.52L45.0663 142.47C44.9272 141.92 45.0123 141.339 45.3029 140.852C45.5936 140.366 46.0661 140.014 46.6168 139.874L90.3639 128.799C90.9148 128.66 91.4986 128.744 91.9871 129.034C92.4756 129.323 92.829 129.794 92.9698 130.342L93.2376 131.393Z" fill="#E6E6E6"/>
<path d="M48.7138 141.56C49.0201 141.56 49.2684 141.312 49.2684 141.007C49.2684 140.702 49.0201 140.454 48.7138 140.454C48.4075 140.454 48.1592 140.702 48.1592 141.007C48.1592 141.312 48.4075 141.56 48.7138 141.56Z" fill="white"/>
<path d="M50.7538 141.043C51.0602 141.043 51.3085 140.796 51.3085 140.49C51.3085 140.185 51.0602 139.938 50.7538 139.938C50.4475 139.938 50.1992 140.185 50.1992 140.49C50.1992 140.796 50.4475 141.043 50.7538 141.043Z" fill="white"/>
<path d="M52.7949 140.527C53.1012 140.527 53.3495 140.279 53.3495 139.974C53.3495 139.669 53.1012 139.421 52.7949 139.421C52.4885 139.421 52.2402 139.669 52.2402 139.974C52.2402 140.279 52.4885 140.527 52.7949 140.527Z" fill="white"/>
<path d="M91.6713 151.068L55.9208 160.119C55.789 160.152 55.6518 160.159 55.5172 160.14C55.3826 160.12 55.2531 160.075 55.1362 160.005C55.0193 159.936 54.9172 159.845 54.8358 159.736C54.7544 159.627 54.6953 159.504 54.6618 159.372C54.6283 159.241 54.6211 159.104 54.6406 158.97C54.6601 158.836 54.7059 158.707 54.7755 158.591C54.845 158.474 54.9369 158.372 55.0459 158.291C55.1549 158.21 55.2788 158.151 55.4107 158.118L91.1612 149.067C91.4274 149 91.7097 149.04 91.9458 149.18C92.1819 149.32 92.3526 149.548 92.4202 149.813C92.4879 150.079 92.447 150.36 92.3065 150.595C92.1661 150.83 91.9376 151 91.6713 151.068Z" fill="#E6E6E6"/>
<path d="M91.7183 154.917L81.1923 157.582C81.0604 157.615 80.9233 157.622 80.7887 157.603C80.654 157.583 80.5246 157.538 80.4077 157.468C80.2908 157.399 80.1887 157.308 80.1073 157.199C80.0259 157.09 79.9668 156.967 79.9333 156.835C79.8998 156.704 79.8926 156.567 79.9121 156.433C79.9316 156.299 79.9774 156.17 80.047 156.054C80.1165 155.937 80.2084 155.835 80.3174 155.754C80.4264 155.673 80.5503 155.614 80.6822 155.581L91.2082 152.916C91.4745 152.849 91.7567 152.889 91.9928 153.029C92.2289 153.169 92.3996 153.397 92.4672 153.662C92.5349 153.927 92.494 154.209 92.3535 154.444C92.2131 154.679 91.9846 154.849 91.7183 154.917Z" fill="#F9CD92"/>
<path d="M90.0036 141.906L67.3046 147.652C67.0383 147.72 66.7561 147.679 66.52 147.539C66.2839 147.399 66.1132 147.171 66.0456 146.906C65.9779 146.641 66.0188 146.359 66.1593 146.124C66.2997 145.889 66.5282 145.719 66.7945 145.651L89.4935 139.905C89.6254 139.871 89.7626 139.864 89.8973 139.883C90.032 139.903 90.1615 139.948 90.2785 140.018C90.3955 140.087 90.4976 140.179 90.5791 140.287C90.6605 140.396 90.7197 140.519 90.7532 140.651C90.7867 140.782 90.7939 140.919 90.7744 141.053C90.7548 141.187 90.709 141.316 90.6393 141.433C90.5697 141.55 90.4778 141.651 90.3687 141.732C90.2596 141.813 90.1356 141.872 90.0036 141.906Z" fill="#E6E6E6"/>
<path d="M90.9285 145.532L68.2294 151.279C67.9631 151.346 67.6809 151.305 67.4448 151.165C67.2087 151.025 67.038 150.798 66.9704 150.532C66.9027 150.267 66.9436 149.986 67.0841 149.751C67.2245 149.515 67.453 149.345 67.7193 149.278L90.4183 143.531C90.6846 143.464 90.9668 143.505 91.2029 143.644C91.439 143.784 91.6097 144.012 91.6773 144.277C91.745 144.543 91.7041 144.824 91.5637 145.059C91.4232 145.295 91.1947 145.465 90.9285 145.532Z" fill="#E6E6E6"/>
<path d="M64.726 154.096L54.8119 156.606C54.5956 156.66 54.3664 156.627 54.1746 156.513C53.9828 156.399 53.8441 156.215 53.789 155.999L51.8441 148.371C51.7894 148.156 51.8227 147.927 51.9368 147.736C52.0509 147.545 52.2363 147.407 52.4525 147.352L62.3666 144.842C62.583 144.788 62.8122 144.821 63.0039 144.934C63.1957 145.048 63.3344 145.233 63.3896 145.448L65.3345 153.076C65.3892 153.292 65.3558 153.52 65.2418 153.711C65.1277 153.902 64.9422 154.041 64.726 154.096Z" fill="#E6E6E6"/>
<path d="M68.8733 165.996C68.9993 166.213 69.1671 166.403 69.3671 166.555C69.567 166.708 69.7951 166.819 70.0383 166.884C70.2816 166.948 70.5352 166.964 70.7847 166.931C71.0342 166.898 71.2746 166.816 71.4923 166.69C71.7099 166.564 71.9005 166.396 72.0532 166.197C72.2058 165.998 72.3175 165.77 72.3819 165.528C72.4462 165.285 72.462 165.032 72.4282 164.784C72.3944 164.535 72.3118 164.296 72.1851 164.079C72.1316 163.99 72.0713 163.904 72.0048 163.824L73.6156 152.384L73.6639 152.041L73.9911 149.706L74.0393 149.37L73.861 149.378L70.7401 149.52L69.9031 149.558L69.7983 151.688L69.2047 163.661C68.8945 163.957 68.6932 164.348 68.6331 164.771C68.573 165.195 68.6576 165.626 68.8733 165.996Z" fill="#FFB8B8"/>
<path d="M73.655 152.145L69.692 151.783C69.4864 151.763 69.2969 151.664 69.1647 151.506C69.0325 151.348 68.9684 151.144 68.9864 150.939L69.7214 142.727C69.7571 142.328 69.8726 141.94 70.0613 141.587C70.2499 141.233 70.5078 140.921 70.8197 140.669C71.1316 140.416 71.4912 140.228 71.8771 140.117C72.2631 140.005 72.6676 139.972 73.0666 140.019C73.4657 140.066 73.8513 140.192 74.2006 140.39C74.5498 140.588 74.8557 140.854 75.1 141.172C75.3444 141.49 75.5222 141.853 75.6231 142.241C75.7239 142.629 75.7457 143.032 75.6871 143.429L74.4988 151.483C74.4715 151.668 74.3786 151.837 74.237 151.959C74.0954 152.081 73.9145 152.148 73.7273 152.148C73.7034 152.148 73.6792 152.147 73.655 152.145Z" fill="#6C63FF"/>
<path d="M70.6508 145.51C70.2499 144.379 70.2314 143.148 70.5979 142.005C70.9644 140.862 71.6958 139.87 72.6808 139.18C74.1752 138.161 76.2202 137.796 78.4225 140.408C82.8271 145.633 83.9807 151.38 83.9807 151.38L74.9617 152.843C74.9617 152.843 71.8943 149.108 70.6508 145.51Z" fill="#6C63FF"/>
<path d="M85.2377 204.365L87.8092 204.365L89.0324 194.482L85.2373 194.482L85.2377 204.365Z" fill="#FFB8B8"/>
<path d="M92.7686 206.744L84.687 206.745L84.6869 203.633L89.646 203.633C90.056 203.633 90.4621 203.713 90.8409 203.87C91.2197 204.026 91.564 204.255 91.8539 204.544C92.1439 204.833 92.3739 205.176 92.5308 205.554C92.6878 205.931 92.7685 206.336 92.7686 206.744Z" fill="#2F2E41"/>
<path d="M64.0967 202.131L66.5381 202.935L70.8127 193.934L67.2093 192.747L64.0967 202.131Z" fill="#FFB8B8"/>
<path d="M70.498 206.745L62.8248 204.217L63.8047 201.263L68.5133 202.814C69.2996 203.073 69.9504 203.633 70.3226 204.37C70.6948 205.107 70.7579 205.961 70.498 206.745L70.498 206.745Z" fill="#2F2E41"/>
<path d="M76.3126 136.589C79.1577 136.589 81.4642 134.291 81.4642 131.456C81.4642 128.621 79.1577 126.323 76.3126 126.323C73.4675 126.323 71.1611 128.621 71.1611 131.456C71.1611 134.291 73.4675 136.589 76.3126 136.589Z" fill="#FFB8B8"/>
<path d="M80.8229 201.614L78.4349 185.909C78.4094 185.741 78.3263 185.588 78.1997 185.474C78.0732 185.361 77.9111 185.295 77.7411 185.288C77.5711 185.28 77.4038 185.332 77.2679 185.434C77.1319 185.536 77.0356 185.681 76.9956 185.846L73.3591 200.813C73.3018 201.042 73.1606 201.242 72.9631 201.373C72.7657 201.504 72.5263 201.556 72.2919 201.52L62.261 199.914C62.128 199.893 62.0011 199.843 61.8888 199.769C61.7766 199.695 61.6816 199.598 61.6102 199.484C61.5388 199.37 61.4927 199.242 61.475 199.109C61.4573 198.976 61.4684 198.841 61.5075 198.712L74.5872 155.743C74.6244 155.621 74.6288 155.491 74.6 155.367L74.1645 153.486C74.1167 153.282 74.1388 153.068 74.2272 152.879C74.3157 152.689 74.4654 152.534 74.6525 152.438C76.4336 151.533 80.9438 149.65 84.3492 151.712C84.4597 151.78 84.5554 151.868 84.6304 151.974C84.7053 152.079 84.7581 152.198 84.7853 152.324L95.0032 200.177C95.031 200.308 95.0308 200.442 95.0025 200.572C94.9743 200.702 94.9187 200.825 94.8394 200.932C94.7601 201.039 94.6589 201.128 94.5425 201.193C94.4262 201.258 94.2972 201.298 94.1642 201.31L81.8403 202.41C81.8119 202.412 81.7837 202.413 81.7557 202.413C81.5301 202.413 81.312 202.332 81.141 202.185C80.9699 202.039 80.8571 201.836 80.8229 201.614Z" fill="#2F2E41"/>
<path d="M72.8966 127.829C73.2849 127.596 73.6295 127.298 73.9149 126.947C74.0557 126.77 74.1483 126.56 74.1839 126.336C74.2196 126.113 74.197 125.885 74.1183 125.673C73.858 125.101 73.0846 124.919 72.4853 125.114C71.8861 125.31 71.4231 125.777 70.9851 126.229C70.5993 126.627 70.2025 127.043 70.0195 127.565C69.8365 128.087 69.9305 128.75 70.3857 129.067C70.8324 129.378 71.4746 129.25 71.9042 128.916C72.3338 128.582 72.5998 128.086 72.8534 127.606L72.8966 127.829Z" fill="#2F2E41"/>
<path d="M71.152 126.366C71.1234 124.92 69.4689 123.883 68.0401 124.139C66.6112 124.395 65.5129 125.609 64.9631 126.948C63.8015 129.777 64.6735 133.005 65.7928 135.851C66.912 138.697 68.297 141.585 68.1338 144.638C68.0234 146.287 67.4679 147.877 66.526 149.238C65.584 150.6 64.2905 151.682 62.7822 152.371C64.3948 153.1 66.3223 152.347 67.6774 151.212C70.6868 148.69 71.8484 144.201 70.4378 140.544C69.7421 138.74 68.5159 137.197 67.5587 135.516C66.6014 133.835 65.8991 131.855 66.3933 129.986C66.8875 128.118 68.9908 126.604 70.7889 127.328L71.152 126.366Z" fill="#2F2E41"/>
<path d="M76.6217 133.734C76.1726 132.977 75.7192 131.985 76.5403 131.324C76.7188 131.186 76.923 131.086 77.1409 131.029C77.3588 130.971 77.5861 130.958 77.8093 130.989C78.7348 131.1 79.7425 131.146 80.6382 130.811C80.9742 130.696 81.2835 130.515 81.5477 130.278C81.812 130.042 82.0259 129.754 82.1766 129.434C82.639 128.342 82.06 127.015 81.0932 126.325C80.5018 125.918 79.803 125.695 79.0844 125.682C78.3658 125.669 77.6595 125.868 77.054 126.254C75.8019 125.703 74.2827 125.948 73.1451 126.707C72.0076 127.465 71.2292 128.68 70.8063 129.977C70.4168 131.094 70.3497 132.297 70.6127 133.45C70.8244 134.252 71.2269 134.991 71.7861 135.605C72.3454 136.219 73.0449 136.69 73.8254 136.977C74.1294 137.097 74.4597 137.134 74.7829 137.087C75.1062 137.039 75.4112 136.907 75.6674 136.705C75.6674 136.705 76.3774 136.087 76.5996 135.344C76.7702 134.772 76.8616 134.138 76.6217 133.734Z" fill="#2F2E41"/>
<path d="M144.786 207H56.4842C56.4285 207 56.3752 206.978 56.3358 206.939C56.2965 206.9 56.2744 206.846 56.2744 206.791C56.2744 206.736 56.2965 206.682 56.3358 206.643C56.3752 206.604 56.4285 206.582 56.4842 206.582H144.786C144.842 206.582 144.895 206.604 144.934 206.643C144.974 206.682 144.996 206.736 144.996 206.791C144.996 206.846 144.974 206.9 144.934 206.939C144.895 206.978 144.842 207 144.786 207Z" fill="#CCCCCC"/>
<path d="M91.9033 138.314C91.8776 138.427 91.8608 138.541 91.8531 138.657L82.8431 143.836L80.653 142.58L78.3184 145.625L81.9785 148.225C82.2741 148.435 82.6302 148.543 82.9932 148.535C83.3562 148.526 83.7065 148.4 83.9916 148.176L93.2825 140.872C93.7018 141.027 94.1584 141.051 94.5916 140.94C95.0248 140.83 95.4141 140.591 95.7076 140.255C96.0011 139.919 96.185 139.502 96.2348 139.059C96.2846 138.616 96.198 138.169 95.9864 137.777C95.7748 137.384 95.4483 137.065 95.0504 136.862C94.6524 136.659 94.2019 136.582 93.7586 136.64C93.3154 136.698 92.9004 136.89 92.569 137.189C92.2376 137.488 92.0054 137.88 91.9033 138.314V138.314Z" fill="#FFB8B8"/>
<path d="M82.5423 144.081L79.6303 147.842C79.5474 147.949 79.4424 148.037 79.3223 148.1C79.2023 148.163 79.0701 148.199 78.9346 148.207C78.7992 148.214 78.6638 148.192 78.5375 148.143C78.4113 148.093 78.2973 148.017 78.2032 147.92L74.9066 144.509C74.3592 144.084 74.0036 143.459 73.9176 142.773C73.8317 142.086 74.0225 141.394 74.4481 140.848C74.8738 140.301 75.4995 139.946 76.1881 139.858C76.8767 139.771 77.5719 139.96 78.1213 140.382L82.2559 142.686C82.3743 142.752 82.477 142.843 82.557 142.952C82.6371 143.061 82.6926 143.186 82.7197 143.318C82.7469 143.451 82.7451 143.588 82.7145 143.719C82.6839 143.851 82.6252 143.974 82.5423 144.081H82.5423Z" fill="#6C63FF"/>
<path d="M110.797 207C110.741 207 110.688 206.978 110.648 206.939C110.609 206.9 110.587 206.846 110.587 206.791V202.716C110.587 202.66 110.609 202.607 110.648 202.568C110.688 202.529 110.741 202.507 110.797 202.507C110.852 202.507 110.906 202.529 110.945 202.568C110.984 202.607 111.006 202.66 111.006 202.716V206.791C111.006 206.846 110.984 206.9 110.945 206.939C110.906 206.978 110.852 207 110.797 207Z" fill="#CCCCCC"/>
<path d="M110.797 205.182C110.747 205.182 110.698 205.164 110.66 205.131L108.143 202.979C108.122 202.961 108.105 202.939 108.092 202.915C108.08 202.89 108.072 202.863 108.07 202.836C108.068 202.808 108.071 202.781 108.08 202.754C108.088 202.728 108.102 202.704 108.12 202.683C108.138 202.662 108.16 202.645 108.185 202.633C108.209 202.62 108.236 202.613 108.264 202.611C108.291 202.609 108.319 202.612 108.345 202.621C108.371 202.63 108.396 202.643 108.417 202.661L110.934 204.814C110.966 204.842 110.989 204.879 111 204.92C111.011 204.962 111.008 205.005 110.994 205.045C110.979 205.085 110.952 205.12 110.917 205.144C110.881 205.169 110.84 205.182 110.797 205.182H110.797Z" fill="#CCCCCC"/>
<path d="M121.284 206.582C121.284 204.531 122.102 202.564 123.557 201.114C125.013 199.664 126.986 198.849 129.045 198.849C131.103 198.849 133.077 199.664 134.532 201.114C135.988 202.564 136.805 204.531 136.805 206.582" fill="#F2F2F2"/>
<path d="M129.045 207C128.989 207 128.936 206.978 128.896 206.939C128.857 206.9 128.835 206.846 128.835 206.791V202.716C128.835 202.66 128.857 202.607 128.896 202.568C128.936 202.529 128.989 202.507 129.045 202.507C129.1 202.507 129.154 202.529 129.193 202.568C129.232 202.607 129.254 202.66 129.254 202.716V206.791C129.254 206.846 129.232 206.9 129.193 206.939C129.154 206.978 129.1 207 129.045 207Z" fill="#CCCCCC"/>
<path d="M129.045 205.182C128.995 205.182 128.946 205.164 128.908 205.131L126.391 202.979C126.349 202.943 126.323 202.891 126.319 202.836C126.315 202.781 126.333 202.726 126.369 202.684C126.405 202.642 126.457 202.616 126.512 202.612C126.568 202.607 126.623 202.625 126.665 202.662L129.182 204.814C129.214 204.842 129.237 204.879 129.248 204.92C129.259 204.962 129.257 205.005 129.242 205.045C129.227 205.085 129.2 205.12 129.165 205.144C129.13 205.169 129.088 205.182 129.045 205.182Z" fill="#CCCCCC"/>
</g>
</g>
<defs>
<clipPath id="clip0_3002_1373">
<rect width="224" height="224" fill="white" transform="translate(43 25)"/>
</clipPath>
<clipPath id="clip1_3002_1373">
<rect width="220" height="122" fill="white" transform="translate(45 85)"/>
</clipPath>
</defs>
</svg>
