<svg width="48" height="48" viewBox="0 0 48 48" fill="none" xmlns="http://www.w3.org/2000/svg">
<rect width="48" height="48" rx="8" fill="#F9CD92" fill-opacity="0.2"/>
<path d="M23.4435 20.0472H27.1278C27.0746 16.8068 24.4112 14.5696 20.3629 14.5696C16.3768 14.5696 13.456 16.7713 13.4737 20.0739C13.4648 22.755 15.3558 24.2908 18.4276 25.0277L20.4073 25.5249C22.3871 26.0043 23.4879 26.5724 23.4968 27.7976C23.4879 29.1293 22.2273 30.0348 20.2741 30.0348C18.2766 30.0348 16.8384 29.1115 16.7141 27.2915H12.9943C13.092 31.2244 15.9062 33.2575 20.3185 33.2575C24.7575 33.2575 27.3675 31.1357 27.3764 27.8065C27.3675 24.7791 25.0859 23.1722 21.9254 22.462L20.2919 22.0714C18.7116 21.7074 17.3888 21.1214 17.4155 19.8164C17.4155 18.6445 18.4542 17.7834 20.3363 17.7834C22.174 17.7834 23.3015 18.6179 23.4435 20.0472ZM29.8911 33H33.673V19.3636H29.8911V33ZM31.7909 17.6058C32.9184 17.6058 33.8417 16.7447 33.8417 15.6882C33.8417 14.6406 32.9184 13.7795 31.7909 13.7795C30.6723 13.7795 29.749 14.6406 29.749 15.6882C29.749 16.7447 30.6723 17.6058 31.7909 17.6058Z" fill="#F9CD92"/>
</svg>
