<svg width="214" height="66" viewBox="0 0 214 66" fill="none" xmlns="http://www.w3.org/2000/svg">
<path d="M7.524 24.94V31.24H15.984V35.236H7.524V41.896H17.064V46H2.484V20.836H17.064V24.94H7.524ZM36.9802 31.024V35.272H21.7162V31.024H36.9802ZM47.6724 19.36V46H42.6324V19.36H47.6724ZM71.192 35.596C71.192 36.316 71.144 36.964 71.048 37.54H56.468C56.588 38.98 57.092 40.108 57.98 40.924C58.868 41.74 59.96 42.148 61.256 42.148C63.128 42.148 64.46 41.344 65.252 39.736H70.688C70.112 41.656 69.008 43.24 67.376 44.488C65.744 45.712 63.74 46.324 61.364 46.324C59.444 46.324 57.716 45.904 56.18 45.064C54.668 44.2 53.48 42.988 52.616 41.428C51.776 39.868 51.356 38.068 51.356 36.028C51.356 33.964 51.776 32.152 52.616 30.592C53.456 29.032 54.632 27.832 56.144 26.992C57.656 26.152 59.396 25.732 61.364 25.732C63.26 25.732 64.952 26.14 66.44 26.956C67.952 27.772 69.116 28.936 69.932 30.448C70.772 31.936 71.192 33.652 71.192 35.596ZM65.972 34.156C65.948 32.86 65.48 31.828 64.568 31.06C63.656 30.268 62.54 29.872 61.22 29.872C59.972 29.872 58.916 30.256 58.052 31.024C57.212 31.768 56.696 32.812 56.504 34.156H65.972ZM73.5747 35.956C73.5747 33.94 73.9707 32.152 74.7627 30.592C75.5787 29.032 76.6707 27.832 78.0387 26.992C79.4307 26.152 80.9787 25.732 82.6827 25.732C84.1707 25.732 85.4667 26.032 86.5707 26.632C87.6987 27.232 88.5987 27.988 89.2707 28.9V26.056H94.3467V46H89.2707V43.084C88.6227 44.02 87.7227 44.8 86.5707 45.424C85.4427 46.024 84.1347 46.324 82.6467 46.324C80.9667 46.324 79.4307 45.892 78.0387 45.028C76.6707 44.164 75.5787 42.952 74.7627 41.392C73.9707 39.808 73.5747 37.996 73.5747 35.956ZM89.2707 36.028C89.2707 34.804 89.0307 33.76 88.5507 32.896C88.0707 32.008 87.4227 31.336 86.6067 30.88C85.7907 30.4 84.9147 30.16 83.9787 30.16C83.0427 30.16 82.1787 30.388 81.3867 30.844C80.5947 31.3 79.9467 31.972 79.4427 32.86C78.9627 33.724 78.7227 34.756 78.7227 35.956C78.7227 37.156 78.9627 38.212 79.4427 39.124C79.9467 40.012 80.5947 40.696 81.3867 41.176C82.2027 41.656 83.0667 41.896 83.9787 41.896C84.9147 41.896 85.7907 41.668 86.6067 41.212C87.4227 40.732 88.0707 40.06 88.5507 39.196C89.0307 38.308 89.2707 37.252 89.2707 36.028ZM104.309 29.152C104.957 28.096 105.797 27.268 106.829 26.668C107.885 26.068 109.085 25.768 110.429 25.768V31.06H109.097C107.513 31.06 106.313 31.432 105.497 32.176C104.705 32.92 104.309 34.216 104.309 36.064V46H99.2692V26.056H104.309V29.152ZM124.876 25.768C127.252 25.768 129.172 26.524 130.636 28.036C132.1 29.524 132.832 31.612 132.832 34.3V46H127.792V34.984C127.792 33.4 127.396 32.188 126.604 31.348C125.812 30.484 124.732 30.052 123.364 30.052C121.972 30.052 120.868 30.484 120.052 31.348C119.26 32.188 118.864 33.4 118.864 34.984V46H113.824V26.056H118.864V28.54C119.536 27.676 120.388 27.004 121.42 26.524C122.476 26.02 123.628 25.768 124.876 25.768ZM140.181 23.68C139.293 23.68 138.549 23.404 137.949 22.852C137.373 22.276 137.085 21.568 137.085 20.728C137.085 19.888 137.373 19.192 137.949 18.64C138.549 18.064 139.293 17.776 140.181 17.776C141.069 17.776 141.801 18.064 142.377 18.64C142.977 19.192 143.277 19.888 143.277 20.728C143.277 21.568 142.977 22.276 142.377 22.852C141.801 23.404 141.069 23.68 140.181 23.68ZM142.665 26.056V46H137.625V26.056H142.665ZM158.696 25.768C161.072 25.768 162.992 26.524 164.456 28.036C165.92 29.524 166.652 31.612 166.652 34.3V46H161.612V34.984C161.612 33.4 161.216 32.188 160.424 31.348C159.632 30.484 158.552 30.052 157.184 30.052C155.792 30.052 154.688 30.484 153.872 31.348C153.08 32.188 152.684 33.4 152.684 34.984V46H147.644V26.056H152.684V28.54C153.356 27.676 154.208 27.004 155.24 26.524C156.296 26.02 157.448 25.768 158.696 25.768ZM179.257 25.732C180.745 25.732 182.053 26.032 183.181 26.632C184.309 27.208 185.197 27.964 185.845 28.9V26.056H190.921V46.144C190.921 47.992 190.549 49.636 189.805 51.076C189.061 52.54 187.945 53.692 186.457 54.532C184.969 55.396 183.169 55.828 181.057 55.828C178.225 55.828 175.897 55.168 174.073 53.848C172.273 52.528 171.253 50.728 171.013 48.448H176.017C176.281 49.36 176.845 50.08 177.709 50.608C178.597 51.16 179.665 51.436 180.913 51.436C182.377 51.436 183.565 50.992 184.477 50.104C185.389 49.24 185.845 47.92 185.845 46.144V43.048C185.197 43.984 184.297 44.764 183.145 45.388C182.017 46.012 180.721 46.324 179.257 46.324C177.577 46.324 176.041 45.892 174.649 45.028C173.257 44.164 172.153 42.952 171.337 41.392C170.545 39.808 170.149 37.996 170.149 35.956C170.149 33.94 170.545 32.152 171.337 30.592C172.153 29.032 173.245 27.832 174.613 26.992C176.005 26.152 177.553 25.732 179.257 25.732ZM185.845 36.028C185.845 34.804 185.605 33.76 185.125 32.896C184.645 32.008 183.997 31.336 183.181 30.88C182.365 30.4 181.489 30.16 180.553 30.16C179.617 30.16 178.753 30.388 177.961 30.844C177.169 31.3 176.521 31.972 176.017 32.86C175.537 33.724 175.297 34.756 175.297 35.956C175.297 37.156 175.537 38.212 176.017 39.124C176.521 40.012 177.169 40.696 177.961 41.176C178.777 41.656 179.641 41.896 180.553 41.896C181.489 41.896 182.365 41.668 183.181 41.212C183.997 40.732 184.645 40.06 185.125 39.196C185.605 38.308 185.845 37.252 185.845 36.028Z" fill="#222C44"/>
<circle cx="206.5" cy="40.5" r="7.5" fill="#6556FF"/>
</svg>
