<svg width="174" height="235" viewBox="0 0 174 235" fill="none" xmlns="http://www.w3.org/2000/svg">
<path d="M0 10C0 4.47715 4.47715 0 10 0H164C169.523 0 174 4.47715 174 10V225C174 230.523 169.498 235.014 164.07 233.996C139.642 229.415 109.557 210.364 97.2038 201.984C93.73 199.628 89.1953 199.526 85.6225 201.729C72.0734 210.085 37.6823 229.91 9.95066 234.181C4.49215 235.021 0 230.523 0 225V10Z" fill="#FF7A59"/>
<path d="M28.9689 84.9894H35.8883L35.5884 71.4736H48.8998L48.7733 65.7701H35.4618L35.2889 57.9737H50.0385L49.912 52.2702H28.2429L28.9689 84.9894ZM55.5921 84.9894H62.5115L62.2542 73.3907H67.3039L73.7615 84.9894H81.4L74.1665 72.2724C77.8544 70.6748 79.8439 67.4316 79.7447 62.9583C79.6004 56.456 75.2089 52.2702 67.7781 52.2702H54.8662L55.5921 84.9894ZM62.1308 67.831L61.9111 57.9258H66.5772C70.5723 57.9258 72.5452 59.6991 72.6175 62.9583C72.6895 66.2014 70.792 67.831 66.829 67.831H62.1308ZM85.4234 84.9894H107.54L107.413 79.2859H92.2162L92.0429 71.4736H106.041L105.915 65.7701H91.9163L91.7434 57.9737L106.877 57.9737L106.75 52.2702L84.6974 52.2702L85.4234 84.9894ZM113.277 84.9894H135.394L135.267 79.2859H120.07L119.897 71.4736H133.895L133.769 65.7701H119.77L119.597 57.9737H134.73L134.604 52.2702H112.551L113.277 84.9894ZM31.9252 118.981H35.2189L35.0476 111.259H42.6026L42.5414 108.499H34.9863L34.8768 103.564H43.2309L43.1697 100.804H31.5219L31.9252 118.981ZM62.1185 109.892C61.9881 104.017 58.3246 100.555 53.5572 100.555C48.781 100.555 45.28 104.017 45.4104 109.892C45.5405 115.759 49.1953 119.23 53.9716 119.23C58.739 119.23 62.2488 115.768 62.1185 109.892ZM58.807 109.892C58.8988 114.028 56.8712 116.274 53.906 116.274C50.9497 116.274 48.8136 114.028 48.7218 109.892C48.63 105.756 50.6665 103.511 53.6228 103.511C56.588 103.511 58.7153 105.756 58.807 109.892ZM64.934 118.981H68.2277L68.08 112.324H71.4358L75.1524 118.981H78.8278L74.735 111.774C76.8555 110.913 77.9424 109.085 77.8877 106.617C77.8107 103.147 75.5215 100.804 71.3489 100.804H64.5307L64.934 118.981ZM68.0193 109.591L67.8854 103.555H70.9039C73.3631 103.555 74.4889 104.682 74.5319 106.617C74.5748 108.552 73.497 109.591 71.0556 109.591H68.0193ZM100.933 100.804H97.6571L97.932 113.194H97.7722L88.9391 100.804H85.9917L86.3949 118.981H89.6886L89.4139 106.6H89.5648L98.4067 118.981H101.336L100.933 100.804ZM104.425 118.981H116.322L116.26 116.221H107.658L107.548 111.259H115.467L115.405 108.499H107.486L107.377 103.564H115.908L115.847 100.804H104.022L104.425 118.981ZM122.937 118.981H126.186L129.552 106.227H129.694L133.617 118.981H136.866L141.595 100.804H138.052L135.073 114.17H134.913L131.11 100.804H127.887L124.686 114.162H124.517L120.945 100.804H117.402L122.937 118.981ZM59.5401 134.795L59.7975 146.396C59.8481 148.677 58.2952 150.31 55.8005 150.31C53.297 150.31 51.6805 148.677 51.6299 146.396L51.3725 134.795H48.0788L48.3423 146.671C48.4289 150.576 51.4179 153.248 55.8657 153.248C60.2958 153.248 63.1839 150.576 63.0973 146.671L62.8338 134.795H59.5401ZM75.9057 139.792H79.0751C78.9448 136.721 76.2776 134.547 72.4068 134.547C68.5894 134.547 65.7695 136.695 65.8497 139.908C65.9075 142.517 67.7963 144.017 70.8053 144.789L72.8856 145.322C74.8586 145.819 76.1684 146.431 76.2086 147.843C76.2342 149.396 74.7835 150.434 72.635 150.434C70.5754 150.434 68.9569 149.511 68.7814 147.603H65.541C65.7543 151.215 68.4894 153.248 72.7241 153.248C77.0831 153.248 79.5651 151.073 79.5029 147.869C79.4241 144.718 76.791 143.28 74.0422 142.633L72.3282 142.207C70.8289 141.851 69.1991 141.221 69.1832 139.704C69.1617 138.337 70.3646 137.334 72.4243 137.334C74.3863 137.334 75.7027 138.248 75.9057 139.792ZM82.0524 152.973H93.9487L93.8875 150.212H85.2849L85.1748 145.251H93.0938L93.0326 142.491H85.1135L85.0041 137.556H93.5357L93.4744 134.795H81.6491L82.0524 152.973ZM96.738 152.973H100.032L99.884 146.316H103.24L106.956 152.973H110.632L106.539 145.766C108.659 144.905 109.746 143.076 109.692 140.609C109.615 137.139 107.325 134.795 103.153 134.795H96.3347L96.738 152.973ZM99.8233 143.582L99.6894 137.547H102.708C105.167 137.547 106.293 138.674 106.336 140.609C106.379 142.544 105.301 143.582 102.86 143.582H99.8233ZM122.086 139.792H125.256C125.125 136.721 122.458 134.547 118.588 134.547C114.77 134.547 111.95 136.695 112.03 139.908C112.088 142.517 113.977 144.017 116.986 144.789L119.066 145.322C121.039 145.819 122.349 146.431 122.389 147.843C122.415 149.396 120.964 150.434 118.816 150.434C116.756 150.434 115.138 149.511 114.962 147.603H111.722C111.935 151.215 114.67 153.248 118.905 153.248C123.264 153.248 125.746 151.073 125.684 147.869C125.605 144.718 122.972 143.28 120.223 142.633L118.509 142.207C117.01 141.851 115.38 141.221 115.364 139.704C115.342 138.337 116.545 137.334 118.605 137.334C120.567 137.334 121.883 138.248 122.086 139.792Z" fill="#FAFAF9"/>
</svg>
